<svg xmlns="http://www.w3.org/2000/svg" width="78" height="90.85" viewBox="0 0 78 90.85">
    <defs>
        <style>
            .cls-1{fill:#184c5f}
        </style>
    </defs>
    <g id="noun_Thinking_1503618" transform="translate(-9 -5.712)">
        <g id="그룹_1746">
            <path id="패스_1209" d="M37.762 82.76v-.182h.519a1.067 1.067 0 0 1 .155-.032c.164-.028.221-.036.292-.045q.082-.009.157-.021t.153-.03l.2-.046c.074-.016.15-.032.226-.046l.21-.043c.073-.016.15-.032.234-.048l.222-.042c.074-.015.15-.033.225-.051.091-.023.188-.044.294-.062l.28-.044q.131-.021.235-.042c.084-.017.188-.034.314-.05.11-.013.2-.027.278-.04q.139-.027.324-.049t.357-.035c.117-.009.248-.017.39-.024s.257-.017.371-.03.267-.026.42-.036l.43-.023.416-.022.45-.021.486-.021c.159-.007.307-.015.445-.024s.29-.019.465-.034.326-.028.46-.043l.481-.055c.176-.02.337-.045.485-.073s.329-.06.515-.09.328-.058.451-.085.273-.066.439-.11.336-.093.511-.145.35-.1.514-.146.311-.093.478-.156q.275-.1.515-.175.219-.065.452-.151t.534-.19c.189-.066.353-.125.489-.175s.306-.11.481-.163l.515-.154q.268-.081.528-.15c.174-.047.334-.086.481-.118l.476-.1q.272-.056.5-.092t.456-.067l.47-.065q.247-.035.51-.059l.469-.045c.152-.014.327-.025.526-.032s.368-.015.528-.024l.473-.023.5-.021.531-.022q.269-.01.471-.01t.444-.013q.273-.014.492-.014H63.9c.11 0 .224 0 .339-.009l.372-.022.367-.021q.176-.01.335-.023t.325-.033l.353-.045q.189-.024.351-.036.143-.01.293-.03l.3-.042c.1-.014.209-.03.3-.037l.31-.023c.12-.008.232-.01.33-.01h1.374c.093 0 .186 0 .282.011s.185.02.271.036.172.036.266.061.171.048.249.071l.232.07c.08.027.166.06.258.1s.168.074.231.106l.18.089q.1.047.187.1l.17.092.159.089c.048.027.092.051.134.071l.127.061q.041.019 1.069.05a.893.893 0 0 1-.021-.166c-.022-.11-.036-.153-.045-.194-.036-.118-.036-.118-.057-.181a1.156 1.156 0 0 1-.044-.194c-.043-.187-.057-.257-.07-.338a1.656 1.656 0 0 0-.04-.188 1.812 1.812 0 0 1-.053-.282 2.1 2.1 0 0 0-.041-.243q-.039-.177-.062-.332-.02-.131-.053-.275c-.025-.106-.049-.214-.07-.32l-.07-.336-.069-.334c-.02-.1-.045-.2-.076-.318s-.061-.248-.087-.372-.05-.237-.078-.359-.059-.244-.089-.36l-.1-.389c-.036-.139-.062-.271-.092-.406s-.06-.265-.1-.41-.075-.3-.107-.445l-.1-.44c-.034-.154-.076-.3-.114-.439s-.082-.306-.127-.485-.092-.35-.137-.518-.1-.345-.148-.529-.106-.372-.16-.56-.11-.381-.171-.585-.124-.4-.184-.585-.125-.383-.195-.59-.133-.406-.188-.587-.12-.37-.21-.6-.173-.469-.238-.676-.129-.415-.2-.638-.134-.438-.2-.646-.136-.457-.219-.742l-.217-.747c-.063-.215-.132-.467-.2-.744s-.143-.551-.218-.832-.152-.582-.23-.9-.153-.606-.23-.885-.158-.584-.243-.9-.162-.616-.229-.883-.15-.567-.251-.914-.191-.67-.267-.955-.157-.568-.25-.871-.178-.6-.248-.872-.145-.557-.237-.882-.175-.619-.252-.878l-.243-.812c-.085-.281-.165-.549-.242-.8l-.243-.791c-.085-.274-.165-.54-.241-.793s-.159-.5-.257-.772-.2-.555-.285-.828-.174-.542-.273-.83-.194-.563-.285-.821l-.287-.815-.29-.826q-.14-.4-.3-.8t-.3-.77q-.135-.351-.3-.723l-.334-.769q-.168-.387-.34-.75t-.309-.641q-.136-.275-.321-.63t-.331-.631q-.143-.268-.342-.581t-.373-.554q-.167-.234-.367-.471t-.4-.458q-.2-.216-.427-.433c-.151-.145-.3-.28-.437-.4s-.291-.245-.448-.367-.31-.234-.457-.335a5.073 5.073 0 0 0-.467-.284l-.5-.268q-.221-.12-.466-.237t-.495-.232c-.159-.074-.324-.147-.494-.219s-.356-.148-.532-.224-.337-.137-.5-.194-.33-.11-.507-.159-.39-.114-.6-.183l-.585-.191q-.267-.086-.592-.17l-.642-.165q-.319-.08-.66-.182-.322-.1-.621-.162-.314-.069-.651-.148t-.638-.142a4.589 4.589 0 0 0-.557-.084q-.273-.022-.583-.022h-1.218c-.183 0-.374.007-.573.022s-.394.035-.573.057-.355.053-.546.095-.38.089-.556.139-.362.111-.554.182-.38.147-.556.226-.363.169-.556.27-.381.207-.568.322-.377.235-.559.353-.359.246-.553.4-.408.313-.61.455-.386.284-.58.443l-.634.501q-.329.275-.612.526t-.592.541q-.306.286-.59.582t-.58.626q-.292.329-.53.623t-.486.644q-.25.349-.464.679t-.412.693q-.2.371-.383.755t-.333.735q-.15.353-.3.729t-.294.789q-.146.416-.26.8t-.228.828q-.115.442-.216.884t-.194.928l-.174.9q-.078.4-.157.955t-.138 1.058l-.116 1.016a9.275 9.275 0 0 0-.055 1.038v2.2q0 .578.01 1.211t.036 1.194q.025.57.037 1.177t.042 1.158l.069 1.229q.036.658.058 1.118.021.454.058 1.008t.068 1.128q.032.565.079 1.046t.085 1.034q.035.532.079 1.055t.09.964q.047.45.094 1.043t.09 1.007q.044.423.1.993t.1 1.049l.095.98q.048.502.08.942.033.432.079.884t.08.887q.033.422.069.846t.059.836q.021.4.057.767t.068.677q.033.3.07.672c.024.243.047.453.069.63s.043.358.068.542.045.374.06.55.03.319.047.456.03.282.037.4.018.222.031.328a2.359 2.359 0 0 0 .051.278c.026.1.047.2.063.289s.026.139.04.194.026.1.041.146a1.274 1.274 0 0 0 .09.19zm35.351-3.186a.107.107 0 0 1-.025-.05h-.008a.333.333 0 0 0 .033.049zm.018.021l-.019-.021zm0 .04a.514.514 0 0 0-.086.2.6.6 0 0 1 .086-.213zm.048-.09a.215.215 0 0 1 .07.011l-.034-.011zm.083.016h-.014zm.392-.3a.344.344 0 0 0-.06-.086.368.368 0 0 1 .056.068z" class="cls-1"/>
            <path id="패스_1210" d="M46.277 8.7a1.291 1.291 0 0 1 .232-.35 1.293 1.293 0 0 1-.232.35zm-1.481.35c-.391-.142-.71-.272-.963-.395a2.743 2.743 0 0 0-.418-.163 3.264 3.264 0 0 0-.456-.1c-.167-.025-.355-.044-.559-.054-.232-.011-.432-.017-.6-.017a4.411 4.411 0 0 0-.476.029 3.693 3.693 0 0 0-.53.1q-.333.087-.691.209-.381.13-.816.3-.411.158-.762.326-.369.176-.7.355c-.222.12-.436.243-.647.371s-.411.256-.61.389-.384.266-.558.4-.368.279-.547.419-.358.283-.528.419-.332.272-.5.415-.312.275-.459.417-.273.28-.413.444a5 5 0 0 0-.363.485 4.824 4.824 0 0 0-.308.546c-.106.218-.206.444-.3.674s-.175.46-.244.68-.129.437-.181.665-.1.485-.143.744-.071.492-.091.733-.035.5-.041.75q-.01.4-.01.783c0 .234.008.449.024.642s.041.373.074.545.078.373.129.568a5.2 5.2 0 0 0 .156.5 3.455 3.455 0 0 0 .182.407c.078.15.164.3.256.44a3.791 3.791 0 0 0 .293.389q.184.214.388.416t.437.395c.181.151.362.3.545.444s.372.3.568.448l.6.463q.268.2.519.368t.478.285a4.731 4.731 0 0 0 .456.214 4.057 4.057 0 0 0 .456.153 4.181 4.181 0 0 0 .465.1q.271.042.563.072c.2.02.406.036.605.048.217.012.421.021.607.028s.4.011.621.014.451 0 .664 0h1.419c.211 0 .424-.007.634-.02l.677-.043c.2-.013.392-.026.577-.041.166-.014.369-.038.606-.072a3.9 3.9 0 0 0 .554-.12 3.571 3.571 0 0 0 .5-.189 5.57 5.57 0 0 0 .531-.286 5.826 5.826 0 0 0 .509-.347 5.382 5.382 0 0 0 .473-.409 3.8 3.8 0 0 0 .387-.435 4.254 4.254 0 0 0 .28-.4c.072-.123.139-.252.2-.38.076-.161.152-.326.227-.493s.151-.337.222-.5.159-.356.244-.536c.074-.156.143-.31.208-.46.057-.133.123-.309.195-.52a4.214 4.214 0 0 0 .151-.6c.044-.25.075-.455.093-.614q.03-.273.059-.565l.058-.617c.019-.21.031-.388.04-.565s.013-.333.013-.5v-.535a1.971 1.971 0 0 0-.056-.375 5.4 5.4 0 0 0-.16-.558l-.208-.6-.191-.552c-.066-.193-.129-.385-.191-.579-.051-.159-.111-.329-.181-.511s-.146-.362-.229-.541q-.14-.3-.274-.58-.122-.253-.272-.521a3.515 3.515 0 0 0-.24-.38 2.938 2.938 0 0 0-.261-.3l-.422-.428c-.145-.147-.283-.29-.413-.425l-.193-.2a1.27 1.27 0 0 1-.257-1.416 1.383 1.383 0 0 1-1.477.349zm3.707-.72l.2.2c.125.13.256.265.392.4l.42.426a5.581 5.581 0 0 1 .5.575 6.069 6.069 0 0 1 .428.669q.186.334.342.656c.1.2.193.4.293.621s.2.461.291.689.166.447.233.657c.056.177.115.354.173.525l.189.544.207.593a7.948 7.948 0 0 1 .237.825 4.4 4.4 0 0 1 .12.895q.005.284.005.581c0 .213-.006.425-.017.631s-.026.425-.047.664q-.03.327-.06.63t-.063.6c-.024.218-.063.476-.117.776a6.76 6.76 0 0 1-.244.965c-.093.275-.182.511-.269.713q-.116.269-.245.542c-.075.158-.146.315-.214.468-.074.17-.152.346-.234.528s-.163.356-.247.535c-.094.2-.194.387-.3.574a6.668 6.668 0 0 1-.459.671 6.418 6.418 0 0 1-.65.732 8.051 8.051 0 0 1-.708.611 8.532 8.532 0 0 1-.746.51 8.3 8.3 0 0 1-.79.425 6.331 6.331 0 0 1-.884.336 6.671 6.671 0 0 1-.949.207c-.291.042-.549.072-.782.092-.2.016-.412.031-.629.044l-.667.042q-.41.026-.815.026H40.27c-.246 0-.469-.008-.684-.015s-.429-.018-.667-.031-.484-.033-.724-.057-.487-.055-.715-.091a6.924 6.924 0 0 1-.766-.161 6.833 6.833 0 0 1-.769-.258 7.492 7.492 0 0 1-.726-.34q-.339-.182-.68-.4c-.223-.146-.45-.307-.682-.484l-.614-.474c-.207-.161-.407-.319-.6-.471s-.39-.314-.586-.477q-.325-.271-.608-.551c-.185-.184-.362-.373-.532-.571a6.438 6.438 0 0 1-.5-.667c-.14-.216-.268-.435-.382-.656a5.974 5.974 0 0 1-.312-.7q-.127-.339-.23-.733-.1-.378-.169-.744c-.048-.256-.084-.521-.108-.8s-.033-.554-.033-.855c0-.278 0-.56.011-.849s.025-.6.049-.893.064-.62.115-.931.107-.6.173-.9.147-.589.237-.872.19-.562.307-.854.241-.57.373-.842a7.4 7.4 0 0 1 .476-.831 7.6 7.6 0 0 1 .553-.738c.192-.227.388-.438.591-.635.187-.181.38-.356.581-.528s.374-.315.557-.463.365-.292.56-.445.392-.3.591-.452.433-.316.669-.474.476-.312.719-.459.5-.3.76-.436.538-.283.827-.42.62-.28.958-.41q.483-.186.914-.333c.3-.1.6-.193.887-.268a6.435 6.435 0 0 1 .928-.176 7.17 7.17 0 0 1 .782-.046c.215 0 .459.007.738.02.3.015.577.042.833.081a6.022 6.022 0 0 1 .836.182 5.5 5.5 0 0 1 .836.325c.156.076.393.172.7.285a1.291 1.291 0 0 1 .788 1.68 1.433 1.433 0 0 1 1.968.038z" class="cls-1"/>
            <path id="패스_1211" d="M52.174 92.169l-.593.047-.712.056q-.409.031-.821.055t-.907.036c-.323.008-.65.01-.986.006s-.652-.012-.977-.023-.662-.026-1-.045-.7-.046-1.081-.079-.721-.064-1.064-.1-.6-.055-.8-.071-.464-.031-.811-.048-.7-.031-1.057-.04l-.825-.021-.836-.017c-.367-.008-.641-.013-.824-.014l-.573-.007-.8-.006h-1.645l-.814-.006h-1.533q-.276 0-.748.008c-.312 0-.618.012-.922.02s-.58.018-.844.03l-.809.033c-.265.009-.514.016-.741.02-.253.005-.53 0-.837-.008s-.582-.03-.833-.054c-.227-.022-.437-.044-.635-.065a2.027 2.027 0 0 1-1.381-.761 1.635 1.635 0 0 1-.033-2.018 6.829 6.829 0 0 1 .5-.615q.239-.262.532-.553c.192-.191.364-.356.518-.5q.2-.181.436-.407t.449-.443l.489-.5c.167-.169.342-.344.523-.522l.518-.513c.171-.168.333-.323.49-.469s.34-.306.529-.464.338-.28.478-.395.331-.266.536-.423.441-.328.667-.479c.207-.137.419-.275.632-.411a3.514 3.514 0 0 0 .4-.294c.2-.167.464-.368.812-.611a1.381 1.381 0 0 1 1.885.292 1.275 1.275 0 0 1-.3 1.82c-.284.2-.49.353-.6.449a6.169 6.169 0 0 1-.705.519c-.2.128-.4.256-.588.382-.173.115-.345.239-.518.372s-.342.265-.472.373-.288.236-.457.378-.3.253-.422.369-.283.268-.436.418l-.511.506q-.264.261-.5.5l-.477.485q-.253.258-.517.51c-.171.163-.329.311-.472.441l-.08.074h.338c.217 0 .45-.01.7-.019l.785-.033c.281-.013.579-.023.891-.031s.632-.016.957-.021.583-.008.785-.009h1.554l.826.006h1.625l.826.006.569.007q.289 0 .852.015l.84.017.838.021c.38.01.754.024 1.12.043s.665.035.89.053.5.042.849.075.682.064 1.04.1.681.055 1 .072.632.032.938.042.613.017.916.021.6 0 .887-.006.561-.018.811-.032.513-.032.764-.051l.716-.056.582-.046c.2-.016.425-.029.678-.039s.472-.013.666-.012c.214 0 .436.008.663.024a1.707 1.707 0 0 1 1.59 1.247 1.972 1.972 0 0 1-.2 1.486c-.113.207-.234.417-.361.628s-.276.448-.441.693c-.15.222-.282.421-.4.6l-.352.527c-.126.188-.25.367-.37.531-.135.187-.291.381-.47.586l-.228.261a1.383 1.383 0 0 1-1.9.154 1.273 1.273 0 0 1-.159-1.837l.226-.258c.127-.145.233-.278.323-.4.1-.139.2-.288.313-.45l.346-.518.407-.61a.2.2 0 0 0-.127-.004zm-24.683-2.88l-.039-.006h.012z" class="cls-1"/>
            <path id="패스_1212" d="M72.017 79.223l.041-.038-.01.01zm.066-1.342a1.382 1.382 0 0 1 1.9.216 2.208 2.208 0 0 1 .615 1.67 2.058 2.058 0 0 1-.662 1.3c-.176.164-.368.327-.577.494s-.413.315-.62.453c-.18.12-.378.249-.6.39s-.4.258-.567.36-.322.2-.494.316l-.572.372c-.21.136-.433.278-.673.428-.216.134-.435.276-.662.428s-.475.319-.734.5-.461.317-.605.418-.327.234-.554.4-.469.344-.7.507l-.632.456c-.19.137-.363.264-.514.379s-.33.254-.514.4q-.318.249-.607.446t-.636.392c-.2.113-.406.223-.607.329-.158.084-.312.175-.458.271s-.312.212-.452.317c-.176.132-.347.256-.505.365-.174.121-.361.243-.564.365q-.237.143-.432.274l-.147.1q.12.106.236.213l.436.407q.228.215.472.464c.159.162.3.313.44.458q.155.167.368.366l.245.229a1.272 1.272 0 0 1 .03 1.844 1.384 1.384 0 0 1-1.909.029L60.585 94c-.185-.173-.351-.338-.5-.494q-.177-.189-.393-.41t-.4-.391q-.2-.192-.42-.392c-.129-.119-.264-.238-.408-.358s-.284-.231-.434-.343a6.69 6.69 0 0 1-.6-.5 1.418 1.418 0 0 1 .565-2.458 1.578 1.578 0 0 0 .278-.123 3.6 3.6 0 0 0 .348-.219q.243-.176.487-.34c.168-.113.349-.228.542-.344.151-.092.289-.181.42-.272s.276-.194.424-.306c.184-.138.38-.276.588-.413s.446-.278.686-.405q.279-.146.547-.3.235-.131.438-.269t.457-.336c.193-.152.374-.292.547-.423s.363-.271.569-.42l.632-.456q.327-.236.673-.49c.241-.178.441-.322.6-.436s.366-.254.631-.436.52-.355.757-.513.5-.327.738-.477q.336-.209.63-.4l.57-.37c.183-.119.358-.231.526-.337s.342-.216.549-.349.391-.253.555-.362c.143-.1.292-.2.443-.324l.069-.056a1.275 1.275 0 0 1 .384-1.597z" class="cls-1"/>
            <path id="패스_1213" d="M33.616 41.7a1.374 1.374 0 0 1 1.825-.54A1.282 1.282 0 0 1 36 42.921c-.21.383-.374.673-.5.88s-.263.423-.414.647-.305.432-.448.61-.266.327-.406.49c-.114.131-.229.272-.345.42q-.2.258-.447.566c-.169.211-.342.421-.522.633s-.39.443-.613.677-.443.455-.672.676-.5.461-.768.681c-.252.205-.5.4-.752.59s-.508.376-.79.575-.581.4-.875.59-.529.334-.712.438c-.164.094-.389.219-.676.378s-.548.3-.75.394-.46.214-.784.354-.646.274-.972.4-.585.229-.776.3-.443.155-.772.263q-.533.176-1.047.3t-1.013.2a7.569 7.569 0 0 1-1.061.085 6.574 6.574 0 0 1-1.124-.09 9.943 9.943 0 0 1-1.01-.219 9.426 9.426 0 0 1-1.032-.348q-.507-.2-1.011-.445t-.993-.53q-.466-.275-.939-.6-.458-.311-.867-.61c-.282-.206-.538-.4-.77-.6a9 9 0 0 1-.675-.624q-.3-.307-.532-.6c-.152-.187-.289-.367-.414-.545s-.241-.36-.351-.549-.216-.392-.321-.613-.191-.429-.273-.649-.159-.462-.231-.724-.129-.524-.175-.789c-.041-.237-.079-.469-.113-.7A5.556 5.556 0 0 1 9 43.984q0-.386.04-.8.032-.374.068-.734t.072-.712q.037-.361.078-.728t.091-.732c.034-.253.076-.506.125-.754s.107-.511.174-.768.148-.519.235-.756.179-.464.289-.711.218-.466.335-.691.226-.427.348-.648l.351-.639q.19-.348.4-.7.223-.381.475-.742c.16-.23.334-.467.518-.708l.508-.671q.256-.34.507-.66c.173-.22.356-.443.546-.666l.571-.673q.288-.341.533-.643.258-.318.547-.668t.6-.7l.556-.623q.266-.3.537-.617.286-.335.6-.687t.582-.657c.163-.183.32-.369.473-.56s.306-.388.442-.57c.153-.206.3-.4.446-.582s.274-.343.406-.505.265-.321.391-.467.271-.309.428-.48.322-.341.481-.5c.131-.127.269-.265.415-.415q.2-.2.352-.383.175-.206.337-.406a6.858 6.858 0 0 1 .464-.516q.18-.182.343-.366a6.486 6.486 0 0 1 .487-.494l.2-.183a1.384 1.384 0 0 1 1.908.054 1.273 1.273 0 0 1-.056 1.843l-.2.183a3.839 3.839 0 0 0-.288.293c-.14.158-.287.315-.442.473a4.249 4.249 0 0 0-.288.32q-.182.225-.377.455c-.145.17-.3.344-.476.519s-.314.318-.46.459q-.182.178-.38.393t-.368.412q-.167.194-.349.417c-.125.153-.252.311-.381.474s-.26.335-.4.525q-.234.312-.5.639-.273.342-.567.672-.264.294-.566.639t-.573.661q-.287.336-.571.656l-.564.632q-.266.3-.534.621-.281.34-.53.648c-.175.216-.364.444-.571.689l-.57.672q-.258.3-.485.591c-.156.2-.313.4-.474.618l-.516.681q-.247.322-.454.621-.193.276-.363.566c-.124.212-.243.423-.358.635s-.241.44-.358.652-.218.4-.318.592-.185.368-.269.555-.158.37-.221.543-.113.337-.163.526-.1.4-.138.609-.074.409-.1.614-.058.444-.083.674l-.076.7-.072.707c-.024.234-.045.461-.065.7q-.028.321-.031.61a3.025 3.025 0 0 0 .029.463q.046.308.1.632c.033.188.074.375.124.557s.106.358.16.5.123.309.192.456.144.289.215.412.154.251.236.369.186.254.3.394.237.277.38.425a6.3 6.3 0 0 0 .47.434q.278.231.635.493t.79.557q.4.273.794.5.375.222.788.42t.839.37a6.7 6.7 0 0 0 .732.248 7.19 7.19 0 0 0 .731.158 3.79 3.79 0 0 0 .647.053 4.776 4.776 0 0 0 .67-.054q.377-.057.776-.152t.823-.236c.309-.1.545-.183.707-.241s.387-.145.687-.265.6-.245.9-.374.518-.227.672-.3.364-.185.626-.33.491-.272.64-.357.335-.2.6-.368.515-.338.77-.519.5-.363.727-.529.446-.343.671-.527q.315-.257.6-.532.3-.294.595-.6c.19-.2.362-.389.514-.567s.319-.38.471-.571.3-.376.428-.541c.143-.183.286-.357.425-.518.117-.136.231-.274.346-.417.1-.123.209-.273.326-.445s.236-.358.334-.521.245-.432.442-.789z" class="cls-1"/>
            <path id="패스_1214" d="M55.337 36.56a1.294 1.294 0 0 1-.849-1.651 1.361 1.361 0 0 1 1.71-.82 3.078 3.078 0 0 0 .583.147 4.915 4.915 0 0 0 .52 0q.291-.015.6-.048.338-.036.72-.081t.826-.107q.485-.066.988-.115t1.032-.082c.348-.022.622-.037.826-.044s.5-.014.882-.019.659-.006.85-.006.407 0 .647.005.57.013.978.028l.936.034.643.022.64.023.685.028.649.024.616.023q.347.013.709.031c.239.012.473.026.7.039s.555.034.976.063.745.053.957.071.427.037.626.056l.639.063c.23.024.448.049.649.075l.607.08q.316.043.673.1c.247.037.561.089.946.157s.665.12.855.157l.573.108c.209.039.49.1.847.174s.713.163 1.044.251.673.193 1 .307a9.6 9.6 0 0 1 .982.41 8.246 8.246 0 0 1 .884.495 7.761 7.761 0 0 1 .77.57 7.536 7.536 0 0 1 .695.662 7.788 7.788 0 0 1 .569.7 6.907 6.907 0 0 1 .475.76 7.323 7.323 0 0 1 .377.8 7.693 7.693 0 0 1 .278.826 7.839 7.839 0 0 1 .189.859q.064.385.114.758a5.589 5.589 0 0 1 .047.921q-.011.4-.05.822-.038.4-.1.849c-.041.317-.092.62-.153.914s-.133.58-.22.893-.181.612-.281.9-.205.578-.316.853q-.156.386-.319.779c-.11.262-.219.516-.328.764s-.223.493-.336.728-.228.46-.346.681-.238.437-.357.644-.252.429-.379.627-.258.4-.4.6-.3.415-.46.626-.33.414-.5.616-.349.4-.534.594-.352.376-.524.556-.337.351-.5.518l-.466.478q-.242.25-.492.5t-.433.439q-.2.2-.39.409c-.138.147-.273.288-.407.426s-.308.307-.507.5a8.06 8.06 0 0 1-.687.578 7.947 7.947 0 0 1-.675.455q-.279.165-.579.33l-.539.3a4.739 4.739 0 0 0-.406.257 2.875 2.875 0 0 0-.307.247 4.736 4.736 0 0 1-.591.476l-.227.155a1.381 1.381 0 0 1-1.881-.314 1.276 1.276 0 0 1 .325-1.817l.227-.155a2.07 2.07 0 0 0 .26-.21 5.539 5.539 0 0 1 .6-.487 7.456 7.456 0 0 1 .64-.4q.271-.153.559-.311c.177-.1.348-.195.5-.288a5.236 5.236 0 0 0 .436-.3 5.358 5.358 0 0 0 .454-.382c.173-.163.316-.3.425-.415l.376-.393c.13-.137.277-.293.417-.437s.295-.3.46-.467.311-.313.464-.472l.471-.483q.231-.238.479-.5c.165-.172.332-.35.5-.536s.317-.345.461-.513.285-.341.422-.517.259-.342.372-.506.231-.342.343-.519.212-.341.319-.528.213-.375.316-.569.2-.391.3-.592.2-.423.3-.648.2-.471.308-.718.207-.5.307-.748c.093-.231.182-.471.268-.726s.164-.5.237-.761.133-.509.182-.737.087-.464.12-.719q.053-.4.086-.759c.021-.224.034-.443.041-.661a3.083 3.083 0 0 0-.026-.509c-.03-.224-.065-.452-.1-.69a5.357 5.357 0 0 0-.13-.591 5.2 5.2 0 0 0-.189-.563 4.811 4.811 0 0 0-.25-.531 4.334 4.334 0 0 0-.3-.478 5.133 5.133 0 0 0-.372-.455 4.861 4.861 0 0 0-.447-.425 5.077 5.077 0 0 0-.5-.373 5.538 5.538 0 0 0-.592-.33 6.82 6.82 0 0 0-.7-.291q-.381-.133-.791-.243-.431-.115-.918-.22c-.332-.072-.589-.125-.771-.159l-.579-.109c-.183-.035-.459-.086-.824-.151s-.652-.112-.872-.145-.437-.064-.634-.091l-.587-.077q-.272-.035-.582-.068l-.619-.062c-.189-.019-.384-.036-.59-.053s-.5-.04-.915-.068-.728-.049-.952-.062l-.676-.038c-.231-.012-.449-.022-.671-.03l-.607-.023-.66-.025-.69-.028-.614-.022-.656-.022-.939-.034c-.389-.014-.695-.023-.914-.026s-.429 0-.608 0-.453 0-.817.006-.632.011-.809.017-.431.02-.759.041-.634.045-.936.074-.594.063-.882.1q-.469.064-.871.111t-.756.085q-.384.04-.749.059a7.729 7.729 0 0 1-.82 0 5.223 5.223 0 0 1-1.274-.281z" class="cls-1"/>
        </g>
    </g>
</svg>
