<svg xmlns="http://www.w3.org/2000/svg" width="78.556" height="90.159" viewBox="0 0 78.556 90.159">
    <defs>
        <style>
            .cls-1{fill:#184c5f}
        </style>
    </defs>
    <g id="noun_slip_1503611" transform="translate(-48.722 225)">
        <g id="그룹_1754" transform="translate(38 -231)">
            <path id="패스_1257" d="M37.323 71.056a.075.075 0 0 0-.037-.008h.026zm.471-.008a.25.25 0 0 1 .248.283l.228.055.142-.019a1.49 1.49 0 0 0 .155-.032 1.724 1.724 0 0 0 .188-.049c.115-.058.158-.081.2-.1l.148-.068c.151-.089.205-.122.26-.152s.09-.05.138-.08l.158-.094c.059-.035.122-.069.189-.1a1.258 1.258 0 0 0 .139-.079l.172-.109.191-.112.187-.108c.06-.034.122-.072.186-.111l.2-.124c.062-.038.116-.069.175-.108s.136-.087.213-.132.132-.079.192-.119.141-.088.218-.131a2.174 2.174 0 0 0 .19-.119 2.123 2.123 0 0 1 .246-.148c.075-.04.148-.08.216-.119s.139-.085.215-.136l.235-.155q.114-.074.236-.159t.237-.168l.241-.178.244-.18c.076-.055.161-.121.256-.2s.18-.146.253-.208l.249-.211c.1-.082.191-.157.282-.225s.172-.134.258-.2.175-.143.249-.2.165-.124.268-.2l.253-.177a2.735 2.735 0 0 1 .283-.179l.269-.148c.081-.045.166-.088.251-.13s.172-.083.256-.122.174-.077.267-.114.188-.072.276-.1.166-.054.25-.083l.132-.047.134-.048c.092-.032.184-.061.275-.088s.17-.053.253-.082l.29-.1c.102-.035.182-.06.263-.09l.3-.107.316-.116q.151-.058.3-.113c.1-.037.213-.074.331-.112s.226-.072.345-.113l.36-.117q.175-.057.367-.113t.355-.106q.17-.053.354-.115c.13-.044.254-.083.375-.116s.221-.062.332-.1.223-.073.336-.113.241-.083.372-.127.239-.082.339-.12.214-.081.321-.118.2-.073.311-.115.235-.089.366-.135.229-.086.317-.125.206-.09.322-.136l.353-.141.349-.139.314-.126.317-.122q.166-.067.318-.136t.359-.148l.341-.132.3-.12c.1-.04.206-.084.318-.127l.358-.135c.127-.047.237-.085.333-.117s.192-.066.3-.107l.35-.133.352-.132c.117-.044.224-.082.323-.115l.318-.106c.118-.04.224-.079.318-.115l.275-.11c.09-.037.183-.073.281-.111l.266-.1a2.2 2.2 0 0 0 .21-.091c.077-.038.155-.074.233-.106l.206-.087q.082-.034.173-.083l.182-.1c.055-.031.107-.062.16-.094s.107-.062.157-.089a1.072 1.072 0 0 0 .113-.07c.052-.036.1-.069.148-.1s.07-.044.1-.068c.048-.036.1-.069.143-.1s.071-.046.106-.071.087-.059.13-.083c.123-.082.15-.1.169-.117a.764.764 0 0 1 .136-.09c.123-.079.123-.079.168-.11a.859.859 0 0 1 .133-.076l.166-.087c.141-.067.141-.067.189-.085a.794.794 0 0 1 .118-.033.464.464 0 0 1 .145-.049l.138-.051a.782.782 0 0 1-.1-.126 1.466 1.466 0 0 1-.136-.163c-.024-.034-.054-.073-.089-.118l-.107-.139q-.062-.08-.117-.167t-.113-.172q-.073-.107-.137-.211l-.141-.227c-.052-.085-.1-.164-.144-.24L64.1 56.9q-.088-.152-.183-.326t-.179-.325q-.085-.153-.178-.316l-.2-.344q-.1-.181-.2-.37t-.21-.358q-.123-.194-.228-.391t-.215-.382c-.077-.132-.157-.266-.239-.4s-.164-.265-.251-.4-.172-.261-.247-.379-.157-.253-.253-.412-.18-.291-.266-.417l-.264-.387q-.132-.193-.28-.4t-.284-.391q-.141-.187-.291-.392t-.323-.45l-.3-.423-.289-.412-.321-.46-.33-.477q-.173-.251-.331-.486t-.33-.477q-.178-.248-.35-.48t-.341-.456q-.168-.221-.377-.476t-.373-.433q-.167-.18-.357-.38t-.4-.4q-.213-.2-.409-.391l-.4-.389q-.21-.2-.425-.392t-.441-.387q-.225-.193-.419-.356t-.4-.334q-.207-.169-.43-.338t-.428-.313q-.207-.145-.439-.3t-.437-.273q-.209-.124-.441-.256t-.476-.261l-.475-.249q-.223-.116-.478-.24t-.512-.235l-.522-.225c-.175-.074-.331-.143-.47-.206s-.281-.127-.45-.2-.345-.139-.529-.207l-.532-.2q-.248-.092-.511-.184l-.508-.179-.5-.18q-.259-.094-.55-.206t-.487-.175q-.216-.07-.477-.165t-.531-.184q-.277-.091-.522-.161t-.491-.131l-.52-.125q-.263-.062-.544-.107t-.537-.078q-.251-.031-.52-.053t-.511-.028q-.256.008-.502.008h-3.624c-.182 0-.346 0-.491.013s-.288.023-.424.039-.269.035-.4.06-.27.054-.395.083-.246.063-.362.1a3.51 3.51 0 0 0-.342.123q-.184.077-.343.151t-.334.165q-.174.089-.337.188t-.331.211q-.169.115-.331.229t-.323.248c-.109.089-.214.182-.313.276l-.319.3c-.107.1-.2.188-.305.3l-.321.335a3.924 3.924 0 0 0-.271.312q-.133.174-.276.353t-.246.336l-.241.358q-.124.184-.241.364t-.216.356q-.109.2-.2.361t-.181.338l-.18.358c-.056.113-.113.23-.17.351s-.105.237-.15.351-.086.227-.121.333-.071.218-.106.336-.068.236-.1.36-.059.25-.085.367a3.571 3.571 0 0 0-.058.358 3.3 3.3 0 0 0-.022.386v1.332q0 .244.007.491c0 .163.012.329.024.5s.024.342.039.516.034.367.056.574.043.409.068.609.056.406.093.62.071.43.1.634.068.408.114.627.093.434.139.635.1.407.154.622.113.422.166.615.11.381.176.577l.2.6c.066.2.133.383.2.562s.14.372.218.574.159.406.242.612l.232.575c.071.175.162.382.271.625s.206.462.283.645.164.389.259.619.2.465.309.716.226.5.335.749l.3.661.289.646q.155.349.327.714t.319.666q.146.3.31.627t.321.631q.155.3.3.572t.3.553q.146.275.283.505t.276.471q.131.229.276.457t.289.433q.148.21.272.38t.255.338q.13.169.259.327t.259.3q.13.146.261.282t.255.261q.128.128.232.239l.225.24c.082.087.157.164.224.232s.137.142.206.215l.187.2q.084.09.174.18l.165.166.136.136c.045.044.087.084.124.117s.06.051.088.072zM65.4 58.812v-.027.024zm0-.053l-.012-.031.012.057zm-.017-.054a.033.033 0 0 0 0 .008l.006.015zM37.9 71.594l.007.007zm.065.13v.032-.02zm.008.153a.132.132 0 0 1-.048.009h.027zm27.788-13.416a.221.221 0 0 1 .027.04c-.006-.012-.013-.023-.02-.033z" class="cls-1"/>
            <path id="패스_1258" d="M27.479 18.822a5.414 5.414 0 0 1-.845-.4 1.715 1.715 0 0 0-.282-.139 1.9 1.9 0 0 0-.37-.092 3.428 3.428 0 0 0-.459-.046h-.536a4.023 4.023 0 0 0-.5.035q-.3.038-.63.109c-.232.05-.478.109-.734.176s-.538.148-.827.234q-.4.119-.77.272c-.274.112-.487.2-.64.269s-.269.124-.392.19q-.216.116-.476.259c-.151.083-.3.171-.431.26l-.456.307q-.2.133-.41.3c-.145.111-.282.222-.415.335s-.273.235-.41.358l-.419.382q-.182.166-.382.366c-.138.138-.271.274-.4.405s-.251.269-.375.409-.238.277-.355.424-.224.285-.323.421-.2.276-.294.418-.19.289-.282.439c-.1.171-.2.332-.3.487-.081.128-.164.267-.248.42s-.175.318-.252.465-.15.295-.224.452l-.218.462c-.053.112-.114.254-.182.427s-.133.343-.188.5-.1.29-.144.427-.093.3-.141.462c-.043.145-.078.279-.1.4-.03.139-.058.28-.086.43q-.037.195-.066.426c-.017.139-.031.35-.04.626-.01.3-.014.517-.014.661v.5a3.693 3.693 0 0 0 .024.387c.013.112.037.252.072.42.038.184.075.354.113.512s.074.308.112.454.075.271.121.412c.053.16.1.309.152.448s.09.249.139.369.1.223.152.329.155.285.289.512a6.32 6.32 0 0 0 .4.6q.226.3.471.571t.5.509a6.185 6.185 0 0 0 1.036.79c.2.123.394.232.569.325s.383.2.586.295.4.184.583.263.373.15.557.215.374.124.57.179a4.772 4.772 0 0 0 .556.119c.2.031.384.05.548.059q.282.014.581.014c.2 0 .409 0 .622-.014a5.012 5.012 0 0 0 .543-.053c.192-.03.386-.065.585-.106s.41-.084.611-.127c.186-.039.36-.08.52-.122s.344-.093.506-.14.305-.093.458-.146.318-.112.483-.174q.219-.082.432-.182c.163-.077.325-.155.481-.232s.287-.149.418-.224.282-.169.42-.256.259-.169.383-.256l.4-.282.389-.271c.133-.093.271-.188.412-.284q.171-.117.323-.244t.316-.285q.174-.169.345-.349c.11-.116.215-.231.316-.349s.207-.243.31-.37.2-.248.3-.384.191-.258.275-.378.153-.228.233-.358.164-.273.238-.4.145-.259.211-.386l.211-.407q.092-.18.181-.383c.07-.161.138-.312.2-.451.05-.11.1-.23.147-.361s.092-.262.128-.387.076-.281.12-.472a4.534 4.534 0 0 0 .088-.515c.022-.185.034-.335.037-.44q.006-.2.006-.451c0-.148-.006-.3-.019-.465a3.786 3.786 0 0 0-.063-.454q-.058-.291-.125-.6-.062-.283-.156-.608c-.065-.224-.134-.447-.208-.668s-.159-.463-.25-.709l-.284-.767c-.096-.257-.187-.491-.279-.723s-.19-.473-.291-.719-.2-.454-.3-.664-.214-.421-.334-.634-.25-.433-.385-.651-.263-.407-.4-.592-.264-.348-.382-.485a2.794 2.794 0 0 0-.286-.291L28.7 20a1.07 1.07 0 0 1-.282-1.254 1.068 1.068 0 0 1-.939.076zm2.612-.452l.189.161a4.889 4.889 0 0 1 .515.519q.24.278.493.625t.487.724c.152.244.3.488.432.729s.271.5.394.747.238.51.352.784c.106.257.206.505.3.744s.2.5.3.767l.288.777c.095.257.188.521.271.77s.161.5.234.752.138.506.19.741q.072.328.135.641a5.9 5.9 0 0 1 .1.707q.025.322.025.629c0 .186 0 .356-.007.516q-.009.264-.05.619a6.64 6.64 0 0 1-.128.75c-.052.228-.1.427-.153.6s-.107.343-.171.518-.136.352-.21.516q-.089.194-.188.419c-.077.175-.156.343-.238.5s-.148.287-.222.427-.159.3-.246.448-.176.3-.269.455-.2.324-.306.47-.2.288-.317.437-.234.307-.351.451-.233.283-.35.418-.252.286-.388.427-.266.274-.4.405-.292.274-.44.4-.312.247-.482.364c-.138.094-.27.185-.4.276l-.387.269-.392.274q-.229.162-.472.316c-.159.1-.321.2-.492.3s-.354.2-.544.292q-.258.127-.52.25-.293.138-.593.25c-.182.068-.36.132-.531.191s-.372.124-.566.18-.362.1-.553.153-.406.1-.621.146-.418.088-.631.131-.455.088-.68.123a7.161 7.161 0 0 1-.778.077q-.37.016-.717.016c-.234 0-.462-.005-.689-.016a7.665 7.665 0 0 1-.766-.081 6.914 6.914 0 0 1-.806-.173c-.241-.067-.476-.141-.706-.222s-.449-.166-.672-.26-.45-.2-.684-.308-.445-.219-.658-.331-.442-.244-.68-.388a8.324 8.324 0 0 1-1.393-1.062q-.315-.3-.621-.636t-.586-.711a8.461 8.461 0 0 1-.539-.8c-.153-.261-.268-.465-.348-.62s-.159-.325-.229-.5-.125-.318-.181-.479-.106-.309-.164-.483-.114-.366-.16-.542-.084-.331-.123-.5-.084-.367-.126-.572c-.046-.222-.079-.419-.1-.59a5.769 5.769 0 0 1-.04-.61q-.005-.289-.005-.537c0-.172.005-.414.016-.731.011-.335.029-.606.056-.82.025-.2.054-.387.087-.559s.063-.325.1-.489.086-.356.143-.548q.077-.261.151-.5c.052-.165.109-.335.17-.5s.133-.365.213-.565.163-.4.238-.556l.215-.456c.086-.183.174-.36.264-.533s.179-.335.276-.51.209-.366.313-.53c.09-.142.184-.293.283-.456q.164-.267.333-.519c.113-.167.227-.33.342-.486s.244-.327.378-.493.28-.343.427-.509.282-.312.425-.463.284-.295.434-.445.3-.3.45-.432l.427-.39c.156-.141.31-.275.46-.4s.323-.268.5-.4.345-.258.509-.369.309-.21.477-.322q.28-.185.583-.352c.18-.1.346-.19.5-.272q.259-.138.539-.261.258-.113.69-.29.47-.193.969-.342c.309-.092.606-.177.894-.253s.566-.142.832-.2.547-.106.808-.139a6.136 6.136 0 0 1 .758-.06q.3 0 .576.005a5.521 5.521 0 0 1 .756.072 3.988 3.988 0 0 1 .807.21 3.857 3.857 0 0 1 .636.316 3.833 3.833 0 0 0 .5.228 1.07 1.07 0 0 1 .6 1.388 1.134 1.134 0 0 1 1.229.151z" class="cls-1"/>
            <path id="패스_1259" d="M50.392 41.517a1.07 1.07 0 1 1-1.2-1.772 2.22 2.22 0 0 0 .37-.293 3.7 3.7 0 0 0 .244-.311q.145-.208.328-.452c.108-.144.2-.275.283-.392s.172-.255.263-.395.18-.285.272-.444l.333-.569c.115-.194.237-.405.367-.638s.277-.485.423-.732l.338-.572.348-.6c.148-.255.261-.464.339-.609s.161-.3.238-.45.159-.306.247-.479.173-.342.254-.506.158-.322.231-.478l.245-.511.25-.524.253-.542q.141-.3.287-.583c.085-.163.179-.35.284-.565s.207-.417.29-.583l.276-.55.307-.613q.153-.306.294-.6t.316-.653c.108-.222.213-.443.313-.66l.28-.616q.128-.281.292-.631t.318-.691q.166-.369.326-.711t.282-.61q.137-.3.326-.685c.123-.25.237-.481.342-.69s.2-.4.291-.6l.3-.633.3-.627q.142-.291.286-.578t.283-.559c.092-.18.177-.349.254-.505s.166-.333.249-.49.152-.3.231-.456.168-.339.247-.494c.088-.171.208-.384.363-.641s.294-.485.433-.7.269-.417.394-.6l.337-.505c.1-.144.185-.278.262-.4s.143-.235.22-.373.134-.253.181-.36a.42.42 0 0 0 .034-.122l.027-.221a1.07 1.07 0 0 1 2.124.26l-.027.221a2.564 2.564 0 0 1-.2.733q-.111.249-.262.522c-.1.176-.193.339-.29.492-.088.137-.184.284-.288.438l-.334.5c-.118.177-.242.366-.371.569s-.26.413-.4.647-.233.4-.3.519c-.072.142-.149.3-.231.461s-.172.344-.255.5-.151.293-.228.449-.17.341-.265.527l-.278.549c-.092.183-.185.37-.276.556l-.3.618-.3.627c-.1.2-.2.41-.305.626s-.216.434-.337.68-.218.449-.3.629-.185.4-.291.629-.206.446-.313.684-.221.486-.331.719-.2.429-.281.608l-.283.622q-.162.352-.335.706t-.31.642c-.1.206-.2.416-.31.633l-.308.614-.276.551c-.082.162-.176.352-.281.565q-.167.343-.31.615-.123.235-.243.493l-.248.553q-.127.269-.259.543l-.24.5q-.117.246-.245.506t-.266.53l-.258.5c-.08.153-.163.311-.25.471s-.208.379-.363.653-.275.481-.363.63-.2.345-.344.582-.271.463-.4.69c-.137.244-.267.47-.389.676l-.328.56c-.109.187-.217.362-.324.528s-.2.306-.3.448-.208.294-.331.458c-.109.145-.2.277-.286.394a5.8 5.8 0 0 1-.382.487 3.981 3.981 0 0 1-.78.661z" class="cls-1"/>
            <path id="패스_1260" d="M52.03 8.4q-.08.247-.193.563l-.243.679c-.092.258-.189.518-.29.784s-.185.475-.253.636-.138.316-.214.479-.146.313-.216.459l-.24.5q-.137.285-.265.542c-.08.163-.173.355-.28.58s-.23.471-.35.7-.25.478-.394.744-.263.489-.375.7-.266.5-.439.81l-.481.867-.446.809-.476.87q-.25.457-.472.879l-.477.908q-.252.476-.528.992t-.532.988l-.541 1q-.282.52-.548 1.031l-.558 1.065q-.28.532-.522 1.024-.251.509-.527 1.062-.285.57-.574 1.091-.273.489-.528.966l-.568 1.063q-.31.576-.555 1.022t-.476.887q-.24.459-.491.95t-.5.947q-.238.442-.525.949l-.521.918q-.229.4-.469.858c-.168.32-.319.6-.451.84s-.272.5-.432.8-.3.569-.427.816-.252.5-.372.744-.252.509-.384.767-.274.528-.413.778l-.377.682-.371.68-.363.664-.358.651c-.125.227-.237.434-.335.616s-.207.383-.313.575-.193.358-.279.525-.172.34-.258.519-.18.373-.267.549l-.26.533-.257.519-.331.661q-.2.405-.4.805-.207.42-.4.781c-.127.239-.244.452-.35.637l-.287.5c-.087.153-.177.312-.271.482a1.953 1.953 0 0 0-.135.441 1.089 1.089 0 1 1-2.129-.464 3.772 3.772 0 0 1 .359-1.035q.145-.262.284-.5l.287-.5c.1-.166.2-.359.318-.577s.239-.461.369-.723l.409-.821.328-.655q.122-.244.25-.506l.259-.53.262-.538q.141-.292.282-.567c.094-.184.2-.376.307-.578s.2-.373.3-.559.216-.4.345-.635l.355-.646.362-.662.376-.688.379-.686q.19-.342.376-.709t.371-.742q.186-.378.385-.769t.449-.858c.163-.3.31-.576.443-.819s.271-.5.434-.808.338-.629.5-.919l.519-.915q.276-.488.5-.911t.474-.9q.256-.5.5-.971t.5-.924q.241-.439.547-1.008l.567-1.054q.263-.492.544-1 .265-.477.529-1.007.273-.547.521-1.05.256-.52.549-1.076l.555-1.059q.274-.526.564-1.061l.541-1q.253-.468.527-.98T44 19.9l.474-.9q.232-.441.49-.913l.476-.871.45-.817.482-.869q.249-.446.413-.762.176-.337.391-.733.206-.38.374-.706c.11-.212.216-.426.318-.638q.165-.348.294-.609t.255-.524l.237-.494c.067-.139.135-.284.206-.437s.129-.282.184-.411.131-.321.224-.563.186-.5.274-.741l.243-.679.173-.5c.052-.161.107-.323.162-.483.049-.144.093-.283.131-.414l.04-.129a1.259 1.259 0 0 1 .055-.135c.03-.075.03-.075.241-.33.275-.256.275-.256 1.14-.22.594.46.594.46.657.732.035.492.035.492.016.516l-.08.389a1.086 1.086 0 0 1-.177.407q-.059.166-.113.334z" class="cls-1"/>
            <path id="패스_1261" d="M84.322 59.875a5.912 5.912 0 0 1 .278-.551c.072-.124.144-.254.218-.4s.162-.312.262-.515c.091-.184.182-.391.273-.623.1-.253.182-.46.246-.626l.189-.482c.068-.173.167-.406.3-.7l.368-.825q.192-.43.378-.782l.3-.564.13-.243a1.07 1.07 0 0 1 1.887 1.009l-.13.243-.3.555q-.151.285-.315.653l-.368.825c-.121.27-.209.476-.263.615l-.186.474c-.065.169-.149.382-.25.636q-.162.426-.339.786c-.109.221-.205.411-.289.569s-.173.32-.257.466a3.793 3.793 0 0 0-.177.352 4.58 4.58 0 0 1-.3.56 2.3 2.3 0 0 1-.6.638 1.435 1.435 0 0 1-1.5.152.982.982 0 0 0-.208-.071 2.345 2.345 0 0 0-.314-.051q-.215-.019-.5-.035t-.522-.026l-.5-.022-.522-.022-.595-.021q-.352-.01-.69-.028t-.75-.051c-.287-.023-.576-.057-.864-.1s-.572-.092-.863-.149-.576-.119-.839-.184-.457-.113-.613-.154c-.126-.033-.322-.077-.584-.132s-.47-.1-.6-.12-.316-.051-.571-.083-.535-.065-.808-.094-.538-.056-.8-.08l-.767-.069c-.251-.022-.506-.04-.771-.058s-.5-.031-.73-.041-.435-.018-.635-.022-.411-.006-.617-.006h-2.18q-.237 0-.5-.005c-.12 0-.343.009-.654.035a1.07 1.07 0 1 1-.181-2.132c.379-.032.666-.047.878-.043h2.633c.219 0 .438 0 .661.006s.451.013.687.024.5.025.777.043.546.039.81.061.521.046.786.071.544.053.824.083.567.063.851.1.515.07.679.1.376.072.66.131.523.113.691.157c.142.037.335.085.581.146.23.057.475.111.739.162s.516.1.767.133.483.064.722.084q.381.031.688.047c.208.011.422.02.644.026l.61.021.538.022.494.022q.241.01.55.028c.212.012.4.025.572.04a4.5 4.5 0 0 1 .609.1l.125.031q.025-.045.047-.096z" class="cls-1"/>
            <path id="패스_1262" d="M36.925 70.749a1.07 1.07 0 0 1 2.041.642 1.784 1.784 0 0 0-.1.482c.013.193.028.359.046.5.023.172.044.352.063.542.017.173.036.361.058.56.024.218.047.466.068.744s.038.5.05.683l.048.719c.021.31.04.551.054.726s.028.365.039.534l.033.554.033.6c.011.2.021.383.033.567l.037.581.043.629c.014.206.03.442.045.693l.037.644.036.644c.014.244.027.457.039.634s.022.339.037.516.028.383.04.588l.032.562c.01.173.02.342.032.511l.037.521.055.7c.023.282.041.573.055.837s.03.486.048.707.034.425.052.613.036.351.06.518.049.343.073.5.052.32.084.5.061.338.093.495.061.291.1.436.075.3.11.421a.211.211 0 0 0 .03.064.432.432 0 0 0 .094.094 1.543 1.543 0 0 0 .246.151c.153.076.292.143.417.2s.29.14.47.229l.583.29c.219.109.445.222.673.339q.319.162.666.319l.749.339q.409.184.824.4c.27.139.476.248.623.33l.393.221q.186.1.386.211l.21.112a1.07 1.07 0 1 1-1.007 1.888l-.21-.112c-.146-.078-.287-.155-.426-.232l-.393-.22c-.12-.067-.306-.166-.554-.293s-.486-.242-.726-.35l-.751-.34c-.259-.117-.509-.237-.753-.361q-.336-.171-.654-.329l-.585-.29c-.169-.084-.315-.155-.436-.213s-.285-.137-.452-.22a3.671 3.671 0 0 1-.592-.366 2.574 2.574 0 0 1-.543-.561 2.368 2.368 0 0 1-.344-.725c-.041-.15-.083-.309-.125-.48s-.084-.357-.118-.531-.069-.353-.1-.542-.064-.371-.091-.54-.053-.347-.079-.537-.051-.4-.07-.613-.037-.415-.054-.644-.036-.485-.051-.755c-.014-.25-.031-.514-.052-.788l-.055-.707c-.014-.184-.028-.375-.039-.545l-.033-.529-.032-.562c-.011-.191-.023-.372-.036-.541-.015-.188-.028-.373-.039-.552l-.04-.645-.036-.647-.037-.639c-.014-.241-.029-.464-.044-.671l-.043-.628c-.015-.211-.028-.417-.039-.6s-.023-.38-.033-.577l-.033-.6c-.01-.2-.022-.379-.032-.539s-.021-.319-.035-.492-.034-.434-.056-.75-.039-.561-.049-.733-.027-.384-.048-.652-.04-.483-.062-.679-.042-.4-.06-.578-.035-.325-.055-.476c-.025-.187-.044-.4-.06-.633a3.474 3.474 0 0 1 .187-1.273z" class="cls-1"/>
        </g>
    </g>
</svg>
