<svg xmlns="http://www.w3.org/2000/svg" width="73.663" height="90.36" viewBox="0 0 73.663 90.36">
    <defs>
        <style>
            .cls-1{fill:#184c5f}
        </style>
    </defs>
    <g id="noun_Wait_1503616" transform="translate(-13 -5)">
        <g id="그룹_1747">
            <path id="패스_1215" d="M28.5 73.745L75 75.159v-.487a1.073 1.073 0 0 0-.009-.137 1.68 1.68 0 0 1-.014-.218 1.514 1.514 0 0 0-.011-.168l-.022-.221q-.013-.116-.025-.246a1.584 1.584 0 0 0-.033-.209 2.239 2.239 0 0 1-.046-.321c-.007-.09-.017-.176-.032-.261-.017-.1-.03-.221-.039-.357-.007-.114-.019-.225-.036-.335s-.036-.255-.052-.4l-.047-.425q-.023-.2-.06-.4c-.028-.153-.05-.322-.066-.508-.015-.167-.039-.337-.071-.509-.037-.193-.063-.378-.079-.554q-.023-.239-.072-.543t-.092-.623q-.038-.292-.1-.623-.065-.346-.113-.69t-.1-.714q-.052-.375-.1-.683t-.115-.755q-.062-.435-.122-.824t-.122-.79q-.062-.4-.137-.861t-.149-.9q-.076-.444-.14-.886t-.156-1.041q-.09-.6-.176-1.111t-.174-1.1q-.088-.58-.161-1.081t-.188-1.159q-.113-.658-.211-1.128t-.213-1.083q-.114-.6-.25-1.23t-.273-1.18q-.138-.55-.288-1.128t-.288-1.146q-.136-.561-.257-1.021t-.276-1.067q-.153-.6-.275-1.063t-.259-.945q-.135-.48-.271-.886t-.32-.875q-.188-.474-.323-.795t-.337-.686q-.211-.385-.445-.782t-.48-.775q-.246-.379-.465-.67t-.513-.652q-.3-.359-.591-.694t-.62-.684q-.318-.34-.656-.644t-.655-.57q-.305-.258-.626-.5t-.7-.5q-.381-.258-.661-.431t-.641-.37q-.357-.2-.669-.342t-.672-.275q-.371-.135-.66-.234t-.7-.208q-.416-.113-.714-.173l-.749-.15a5.741 5.741 0 0 0-.757-.107Q55.98 32 55.6 32h-1.5q-.437 0-.782.011l-.724.024q-.362.011-.738.048t-.767.088q-.383.049-.69.1t-.721.136q-.423.088-.747.161t-.721.172q-.392.1-.692.195l-.647.211q-.328.11-.631.233l-.649.265c-.224.092-.431.178-.62.259s-.385.174-.6.28-.434.219-.655.336-.453.242-.7.375-.449.255-.634.375-.4.269-.65.443-.489.353-.728.534-.482.375-.735.589a9 9 0 0 0-.689.642q-.323.335-.669.721t-.644.733q-.291.343-.636.81t-.607.853q-.262.387-.535.81t-.539.836q-.261.408-.517.843t-.481.833l-.476.85q-.252.45-.462.836-.211.386-.484.921t-.485.971q-.21.434-.434.921t-.412.91q-.186.421-.421.995t-.381.989q-.15.425-.35 1t-.36 1.06q-.159.481-.307 1.015t-.275 1.011q-.124.469-.237.976t-.225 1q-.108.486-.21 1.008t-.189.985q-.086.461-.172.961t-.161.962q-.076.466-.167.959t-.147.881q-.061.409-.152.879t-.153.819q-.061.35-.094.713-.036.379-.076.7t-.074.625c-.023.2-.038.4-.045.6s-.012.392-.012.586v5.036c0 .108 0 .2.011.272l.023.251c.007.079.015.145.023.2a2.723 2.723 0 0 0 .452-.063zm46.573 1.938a.369.369 0 0 0 .08.075.371.371 0 0 1-.081-.09zm.058.146l-.005-.03v.047-.02a.253.253 0 0 1-.028-.114v.034l.007.043a.36.36 0 0 0 .024.039zm.031.044l-.011-.015zm-.008.052a.26.26 0 0 0 .032.048.693.693 0 0 1-.041-.061zm.277-.384h-.276a.352.352 0 0 1 .168.037zm.26-.008a.288.288 0 0 0-.04-.064.37.37 0 0 1 .041.06zm-.025 0a.259.259 0 0 0-.061-.164l.015.016a.364.364 0 0 1 .029.037.373.373 0 0 1 .015.11zm-47.05-1.163l-.068.005h.034z" class="cls-1"/>
            <path id="패스_1216" d="M54.7 27.084a1.359 1.359 0 0 1 1.108 2.481 7.508 7.508 0 0 1-1.028.389c-.246.067-.482.12-.716.16a6.2 6.2 0 0 1-.728.076 4.625 4.625 0 0 1-.885-.043 4.015 4.015 0 0 1-1.028-.292 7.891 7.891 0 0 1-.752-.366c-.2-.112-.41-.235-.624-.366s-.459-.287-.693-.447-.457-.317-.694-.49l-.7-.508q-.357-.262-.758-.566t-.8-.619q-.417-.334-.811-.714t-.719-.753q-.328-.375-.632-.792c-.2-.272-.382-.541-.553-.813s-.323-.541-.47-.821-.283-.571-.4-.859-.237-.594-.327-.883-.165-.567-.233-.865-.122-.607-.162-.924-.064-.605-.079-.9S42 17.595 42 17.3a5.709 5.709 0 0 1 .1-1.059 6.975 6.975 0 0 1 .237-.921 7.262 7.262 0 0 1 .341-.842c.127-.267.27-.533.427-.8s.311-.506.479-.753.333-.48.51-.719q.282-.383.6-.758c.209-.243.428-.483.652-.718q.357-.376.763-.735.382-.339.612-.528c.159-.131.385-.306.684-.529s.587-.434.888-.647.635-.435.967-.641.564-.349.748-.457.435-.244.752-.411.643-.327.964-.475.663-.289 1-.415q.484-.178.916-.315c.3-.093.593-.177.892-.251s.622-.142.934-.192.622-.086.931-.108.589-.03.884-.03a8.317 8.317 0 0 1 .953.055 6.68 6.68 0 0 1 .977.189c.29.08.581.175.879.285a9.587 9.587 0 0 1 .9.392q.422.211.811.438c.26.151.519.312.772.48s.528.362.785.56.485.384.7.572.437.387.639.583.409.413.581.616a6.764 6.764 0 0 1 .513.683 7.279 7.279 0 0 1 .429.746 8.3 8.3 0 0 1 .351.811 8.733 8.733 0 0 1 .277.869q.113.432.189.895c.05.307.088.623.113.952.023.3.038.6.047.873s.016.541.02.806.007.532.007.8 0 .541-.015.8-.031.527-.059.778-.06.483-.1.717-.079.441-.124.658c-.042.2-.085.393-.13.591-.048.213-.1.426-.16.639s-.112.395-.167.573q-.089.3-.2.594t-.21.558c-.069.175-.138.349-.21.525s-.163.383-.255.577-.173.36-.265.543c-.1.2-.2.393-.317.587s-.244.4-.39.608a6.91 6.91 0 0 1-.5.631c-.168.19-.348.378-.536.559s-.4.373-.61.543-.4.315-.6.463-.388.284-.581.418-.417.279-.637.41-.451.257-.667.361-.442.205-.655.287a7.869 7.869 0 0 1-.756.244l-.358.1a1.359 1.359 0 1 1-.716-2.621l.358-.1c.2-.054.362-.107.5-.159s.282-.116.438-.193.306-.157.466-.253.327-.2.479-.308c.169-.117.339-.24.514-.37s.332-.251.5-.386c.149-.121.291-.248.434-.387s.273-.274.4-.412a4.191 4.191 0 0 0 .3-.381c.1-.149.195-.291.27-.42s.16-.286.235-.436q.125-.25.241-.494c.071-.149.135-.3.192-.434q.1-.246.2-.5t.181-.481c.054-.152.1-.3.152-.462s.1-.333.148-.51.089-.34.127-.51c.042-.189.084-.379.123-.562s.071-.356.1-.54.056-.37.078-.568.036-.388.045-.59q.013-.328.013-.69c0-.251 0-.5-.006-.758s-.009-.5-.018-.753-.022-.5-.041-.762q-.029-.373-.085-.716t-.136-.649a6.038 6.038 0 0 0-.192-.6 5.612 5.612 0 0 0-.237-.549 4.562 4.562 0 0 0-.269-.468 4.063 4.063 0 0 0-.31-.412c-.116-.137-.251-.279-.407-.43s-.335-.316-.521-.475-.377-.317-.587-.479-.409-.3-.621-.443-.427-.275-.642-.4-.43-.241-.657-.355a6.838 6.838 0 0 0-.639-.279c-.221-.082-.438-.153-.647-.21a3.935 3.935 0 0 0-.572-.111 5.582 5.582 0 0 0-.638-.037c-.234 0-.467.008-.7.023s-.452.042-.685.08-.47.086-.71.146-.488.129-.728.205-.513.17-.8.273-.542.212-.808.335-.555.264-.835.412-.5.269-.643.35-.383.231-.686.419-.565.363-.83.55q-.421.3-.831.606c-.267.2-.464.352-.587.453s-.3.256-.535.462c-.214.189-.413.381-.6.578s-.381.408-.558.614-.329.4-.477.6-.307.424-.449.633-.267.406-.392.617c-.115.193-.218.384-.309.576a4.57 4.57 0 0 0-.216.532 4.274 4.274 0 0 0-.144.563 2.992 2.992 0 0 0-.051.556q0 .378.017.738c.011.227.031.459.06.691s.068.451.117.664.11.442.177.654.141.412.236.635.2.445.311.661.238.434.366.641.279.427.442.649.319.418.484.608.353.385.558.583.411.378.626.55c.234.188.478.378.733.57s.5.378.728.543l.688.5q.325.236.629.444c.194.132.382.254.572.369s.368.221.538.315a5.223 5.223 0 0 0 .495.24 1.325 1.325 0 0 0 .338.1 1.947 1.947 0 0 0 .375.02 3.5 3.5 0 0 0 .408-.042c.139-.024.291-.058.45-.1a5.241 5.241 0 0 0 .651-.244z" class="cls-1"/>
            <path id="패스_1217" d="M39.7 37.1a1.359 1.359 0 1 1 1.02 2.519 9.292 9.292 0 0 1-1.014.362 5.522 5.522 0 0 1-.763.148c-.24.029-.522.048-.853.06q-.427.014-.774.031c-.2.01-.437.032-.709.068a6.064 6.064 0 0 0-.785.158q-.446.117-.921.286c-.333.119-.608.222-.828.313s-.406.171-.579.253-.38.182-.588.285-.435.218-.683.347-.464.246-.654.352-.4.231-.646.376-.492.3-.74.458-.5.319-.735.478-.46.307-.653.441-.423.294-.689.482q-.372.264-.622.467-.282.229-.606.5t-.611.526q-.307.274-.573.523c-.17.159-.338.324-.5.489s-.347.367-.535.575-.335.379-.456.527-.275.343-.437.551-.309.4-.45.6-.294.417-.456.66-.305.46-.423.645-.237.39-.38.649-.289.529-.414.766-.249.478-.366.709l-.395.779c-.142.279-.271.531-.394.776l-.4.8-.421.835q-.2.387-.341.7c-.1.22-.217.467-.345.744s-.252.54-.37.79-.246.511-.383.789-.259.519-.366.724-.218.412-.341.639-.241.445-.349.639l-.3.546-.28.5c-.078.14-.174.33-.286.569s-.207.456-.279.638-.14.378-.2.567a2.194 2.194 0 0 0-.085.368l-.032.27a1.359 1.359 0 0 1-2.7-.317l.032-.271a4.845 4.845 0 0 1 .188-.854c.08-.255.168-.506.266-.758s.213-.509.348-.8.26-.536.368-.729c.1-.174.192-.347.286-.515l.3-.539c.1-.185.214-.387.333-.61s.228-.423.323-.606.209-.408.339-.671.253-.517.365-.751.234-.5.359-.765.243-.526.346-.748q.165-.356.38-.781l.417-.829.4-.8.4-.789c.139-.272.268-.528.39-.77s.254-.5.387-.75.282-.527.441-.815.32-.564.463-.79q.2-.312.46-.7c.177-.265.347-.51.509-.736s.331-.449.508-.677.332-.423.475-.6.335-.4.547-.633.405-.442.6-.644.393-.395.594-.583.4-.37.621-.567.453-.4.684-.589.431-.356.626-.515q.325-.264.765-.576.414-.294.723-.506t.688-.464q.382-.254.781-.507t.8-.495q.4-.239.717-.417c.214-.12.455-.25.728-.392s.508-.261.727-.369.435-.214.634-.308c.219-.1.459-.209.715-.313s.573-.225.945-.357c.388-.138.768-.256 1.137-.353a8.732 8.732 0 0 1 1.13-.226q.507-.067.925-.087c.248-.012.522-.023.817-.033.257-.009.465-.023.615-.041a2.8 2.8 0 0 0 .388-.075c.118-.03.36-.118.7-.256z" class="cls-1"/>
            <path id="패스_1218" d="M65.47 38.778a1.359 1.359 0 0 1-.223-2.708c.56-.046.95-.069 1.2-.069q.31 0 .653.005a8.179 8.179 0 0 1 .85.06q.419.049.873.13c.314.056.648.131 1.008.225a9.688 9.688 0 0 1 1.121.373 11.362 11.362 0 0 1 1.082.5q.512.271.839.474c.216.133.487.313.817.542s.593.418.789.569c.178.138.354.276.53.417s.351.286.511.424l.487.418c.181.156.355.31.527.469s.312.292.46.434.3.3.463.46.293.3.43.434.307.313.472.488l.464.491.447.476c.146.157.3.323.461.505s.32.369.466.549.293.371.442.573.286.4.417.6.277.439.428.7.275.494.382.7.23.464.345.726.224.524.321.784.186.523.281.822.177.564.242.792.134.491.2.764.118.5.17.74.1.472.151.727l.134.667c.04.198.085.394.131.6q.064.278.206.8t.281.949q.144.443.31.877c.12.314.236.623.351.93l.32.862.3.818c.105.287.2.547.276.787s.143.441.207.648c.07.225.132.455.189.692s.106.476.159.754.1.563.131.83.057.505.071.735l.018.292a1.359 1.359 0 1 1-2.712.165l-.017-.287q-.016-.251-.056-.569t-.1-.66c-.046-.24-.09-.452-.132-.631s-.09-.349-.141-.515c-.06-.192-.125-.4-.193-.6s-.15-.438-.246-.7l-.3-.814-.318-.856q-.167-.448-.343-.908-.19-.5-.355-1.005c-.111-.339-.218-.7-.32-1.078s-.18-.676-.231-.9-.1-.434-.145-.656l-.139-.688c-.05-.249-.095-.466-.14-.676s-.1-.446-.159-.692-.111-.448-.168-.648-.128-.433-.215-.7-.166-.5-.242-.707-.162-.412-.259-.632-.186-.407-.276-.582-.2-.376-.325-.6-.238-.4-.34-.559-.219-.324-.337-.486-.244-.324-.363-.471-.249-.3-.383-.451-.286-.317-.417-.457l-.436-.464-.471-.5q-.218-.232-.412-.426c-.142-.142-.291-.292-.449-.453-.142-.146-.279-.281-.405-.4l-.421-.4c-.144-.137-.3-.268-.456-.405l-.484-.415c-.14-.12-.287-.243-.44-.365s-.328-.26-.5-.39c-.15-.116-.375-.279-.671-.484s-.527-.359-.7-.464-.39-.229-.682-.383a8.642 8.642 0 0 0-.822-.383 6.955 6.955 0 0 0-.8-.267q-.433-.114-.79-.177c-.251-.045-.49-.08-.719-.107a5.507 5.507 0 0 0-.571-.041h-.612c-.154-.009-.488.011-.977.052z" class="cls-1"/>
            <path id="패스_1219" d="M27.859 88.356c-.055-.225-.1-.441-.149-.652s-.086-.43-.13-.675l-.133-.738c-.05-.281-.089-.533-.115-.752-.025-.2-.052-.424-.079-.661s-.057-.495-.085-.761l-.087-.85c-.031-.315-.061-.645-.09-.994s-.054-.68-.081-1.024-.054-.714-.079-1.091-.047-.763-.066-1.155-.028-.778-.028-1.131v-.962c0-.317 0-.609.008-.882s.016-.522.03-.74.033-.456.059-.73c.027-.292.058-.544.093-.76a2.557 2.557 0 0 1 .81-1.4 1.359 1.359 0 0 1 1.922 1.922c-.065.065-.074.075-.056-.038-.021.136-.042.315-.062.529q-.035.375-.053.651c-.011.178-.02.388-.025.624s-.007.525-.007.824v.959c0 .309.008.644.025 1q.027.56.063 1.106t.076 1.057l.081 1.017c.027.334.056.647.085.943l.086.84c.027.251.053.492.081.729s.052.446.077.645c.02.17.051.373.093.6l.132.734c.04.224.079.426.115.6s.081.368.13.568c.06.247.108.481.143.7a2.6 2.6 0 0 1-.078 1.159 1.982 1.982 0 0 1-1.065 1.248 4.171 4.171 0 0 1-.811.281 6.4 6.4 0 0 1-.758.133c-.211.025-.419.049-.63.072s-.446.042-.682.056q-.327.019-.677.032t-.68.014h-.9a1.359 1.359 0 1 1 0-2.717h.9q.265 0 .578-.012c.217-.008.425-.018.62-.029s.375-.027.55-.045l.6-.069c.094-.011.185-.025.275-.042q-.01-.065-.026-.133zM29.6 74.282l.008-.047-.006.04z" class="cls-1"/>
            <path id="패스_1220" d="M74.157 91.659c.234.086.44.159.613.218l.545.179q.243.078.595.178c.233.066.452.125.652.175.244.06.483.126.71.2l.315.1a1.359 1.359 0 1 1-.787 2.6l-.321-.1c-.185-.057-.374-.109-.574-.159q-.351-.088-.739-.2c-.261-.074-.489-.143-.688-.207l-.569-.187c-.2-.069-.435-.151-.695-.246q-.425-.158-.809-.34a1.963 1.963 0 0 1-1.136-1.414 3.059 3.059 0 0 1-.023-1.007 4.016 4.016 0 0 0 .037-.459q.01-.321.01-.658v-1.296c0-.23 0-.49-.005-.785s-.008-.59-.017-.907-.019-.569-.028-.741l-.028-.56-.026-.551-.032-.606c-.012-.221-.022-.414-.034-.606q-.02-.311-.035-.646l-.031-.662-.032-.664c-.01-.218-.017-.443-.02-.681s0-.451 0-.679v-2-1.046c0-.324.009-.612.016-.864s.016-.511.027-.786a3.425 3.425 0 0 1 .536-1.588 1.359 1.359 0 0 1 2.338 1.385 1.774 1.774 0 0 0-.159.32q-.016.388-.026.745c-.007.236-.011.508-.015.814s0 .652 0 1.02v2.642c0 .209.009.4.018.594l.031.651c.011.232.023.465.032.681s.019.4.032.591c.013.2.025.419.036.638l.032.612.027.557.028.551c.01.194.02.458.03.8s.016.659.018.96.005.571.005.812v1.293q0 .377-.011.739c-.005.182-.016.354-.033.518z" class="cls-1"/>
        </g>
    </g>
</svg>
