<svg xmlns="http://www.w3.org/2000/svg" width="51.844" height="94.558" viewBox="0 0 51.844 94.558">
    <defs>
        <style>
            .cls-1{fill:#184c5f}
        </style>
    </defs>
    <g id="noun_stand_1503614" transform="translate(-20 -3)">
        <g id="그룹_1755">
            <path id="패스_1263" d="M63.477 77.9v-.325q0-.078-.006-.145c-.006-.062-.009-.133-.009-.216V77c0-.058 0-.127-.009-.2s-.013-.174-.017-.255l-.015-.275-.015-.3q-.007-.139-.024-.3t-.026-.351c0-.109-.012-.221-.021-.334s-.023-.238-.039-.37-.03-.27-.041-.4l-.029-.377q-.015-.189-.039-.4c-.017-.149-.03-.292-.04-.428l-.032-.434-.032-.46c-.01-.148-.022-.308-.037-.477s-.027-.337-.033-.486-.017-.3-.032-.49l-.047-.586c-.017-.204-.03-.4-.04-.586s-.023-.37-.039-.57-.03-.4-.039-.576-.023-.358-.038-.55l-.046-.6c-.016-.209-.03-.4-.04-.578s-.022-.356-.038-.547l-.048-.563q-.022-.275-.04-.593t-.039-.588l-.048-.6q-.025-.319-.047-.629l-.047-.61q-.024-.304-.047-.653-.023-.346-.04-.7t-.039-.637q-.022-.291-.047-.686t-.047-.714l-.046-.668-.048-.685-.046-.69q-.024-.354-.048-.668l-.047-.658-.048-.667q-.022-.32-.046-.633t-.057-.663q-.032-.353-.062-.707t-.055-.662q-.025-.3-.063-.7l-.072-.715q-.032-.321-.069-.665t-.083-.675q-.048-.342-.088-.708t-.071-.64q-.032-.277-.086-.669t-.095-.728q-.04-.326-.087-.646t-.109-.639l-.127-.651q-.062-.322-.131-.619l-.149-.626q-.077-.32-.153-.592-.078-.28-.172-.593t-.187-.607q-.093-.293-.2-.6t-.22-.583q-.109-.281-.227-.576t-.235-.565q-.117-.27-.241-.532t-.273-.568q-.148-.3-.273-.539t-.263-.484q-.139-.246-.293-.5t-.3-.488q-.142-.231-.3-.472t-.325-.482q-.172-.246-.329-.463t-.32-.414q-.169-.205-.357-.421t-.388-.43q-.2-.214-.384-.392t-.393-.362q-.2-.179-.4-.327t-.414-.3q-.21-.149-.459-.317t-.424-.278q-.173-.109-.42-.242t-.473-.246l-.455-.224q-.222-.109-.423-.2t-.47-.189q-.269-.1-.508-.18c-.159-.052-.318-.1-.477-.14l-.511-.139q-.259-.071-.5-.117l-.489-.1a2.881 2.881 0 0 0-.485-.052L47.2 30h-.458q-.233 0-.45.008l-.462.016a4.235 4.235 0 0 0-.438.039q-.218.033-.46.072t-.454.092q-.225.056-.428.118t-.437.148q-.228.083-.447.185t-.408.2q-.179.091-.408.231t-.417.267q-.185.125-.367.264t-.366.3q-.19.162-.4.333t-.345.307q-.158.155-.366.35t-.414.4q-.209.2-.393.4l-.392.42q-.2.212-.369.408t-.362.425q-.187.221-.38.468t-.353.478q-.162.235-.332.512t-.328.559q-.16.284-.316.6t-.3.593q-.138.26-.31.618t-.311.676q-.14.32-.273.64t-.265.66q-.134.344-.267.7l-.245.651q-.109.292-.241.691t-.227.7l-.22.7q-.126.4-.227.742t-.2.718q-.1.378-.189.693t-.179.693l-.195.8q-.101.415-.188.785-.087.37-.183.8t-.172.805q-.076.385-.155.8t-.158.879q-.078.464-.14.888t-.126.905q-.064.481-.118.945t-.109.961q-.054.5-.094.9t-.094.934q-.054.527-.086.973t-.054.873q-.023.427-.054.919t-.05.886q-.017.4-.017.8v3.312q0 .422.01.837l.017.747q.008.332.014.726t.015.81l.015.77q.007.354.032.722.025.382.039.753t.032.663q.017.295.047.679t.054.682q.025.3.048.607t.046.609q.024.3.056.551c.022.174.04.334.055.48s.028.3.038.442.023.274.039.4.03.259.041.37.02.208.032.309.023.191.037.276.029.161.044.224l.047.2q.02.086.041.149l.044.13a.427.427 0 0 0 .08.122 1.172 1.172 0 0 1 .106.076zm.245.229h-.032l.021.005z" class="cls-1"/>
            <path id="패스_1264" d="M50.052 5.291c-.188-.053-.356-.093-.5-.119s-.307-.048-.472-.063-.349-.025-.534-.029-.424-.007-.675-.007-.5 0-.754.007c-.231 0-.458.017-.683.038s-.491.05-.758.084-.518.071-.767.113-.475.084-.691.131-.448.1-.684.162-.44.12-.638.184-.387.136-.58.218a5.946 5.946 0 0 0-.566.278q-.288.16-.59.366a4.74 4.74 0 0 0-.516.406q-.253.23-.52.52t-.5.575q-.236.29-.459.576c-.143.184-.28.37-.411.559s-.254.372-.373.563-.24.391-.356.595-.227.411-.34.635-.217.449-.312.666-.167.4-.212.516-.114.315-.2.583-.154.466-.191.593l-.18.635c-.08.28-.145.535-.205.783s-.117.5-.17.766c-.05.246-.087.475-.111.685s-.042.445-.051.678-.014.48-.012.719a3.623 3.623 0 0 0 .05.582 5.658 5.658 0 0 0 .13.59c.054.2.112.378.176.55s.132.349.2.506.134.3.207.442l.25.48q.111.211.238.414t.263.389q.141.191.315.392c.116.133.231.255.343.364s.233.215.358.315.267.2.414.3.306.2.448.283.3.177.456.266.3.167.466.248.345.169.516.25q.234.111.483.209t.512.187c.173.058.334.107.486.149l.507.139c.171.046.344.091.523.135s.332.08.487.112.3.055.457.076.316.034.492.042.367.013.537.013a4.042 4.042 0 0 0 .454-.026 4.872 4.872 0 0 0 .491-.084q.278-.063.516-.131t.488-.149c.165-.054.326-.108.485-.164s.3-.107.441-.159.288-.111.424-.165.27-.112.4-.167.235-.108.345-.164.215-.113.322-.174l.368-.213c.11-.064.24-.146.387-.243s.281-.2.428-.315a3.888 3.888 0 0 0 .328-.288c.086-.085.173-.18.259-.283s.2-.24.3-.37.188-.249.281-.385.186-.274.276-.415.158-.257.227-.386.144-.274.21-.411.128-.278.188-.423.13-.32.2-.493.126-.332.182-.491.115-.337.174-.517c.063-.2.125-.387.186-.568s.107-.33.154-.487.087-.3.125-.446.072-.293.1-.431.052-.265.07-.388.039-.269.056-.412.031-.289.043-.435.024-.312.034-.472q.014-.215.014-.426t-.016-.424a1.97 1.97 0 0 0-.057-.34c-.04-.155-.087-.319-.141-.488s-.117-.348-.181-.517l-.216-.54-.2-.527c-.072-.184-.145-.373-.216-.563-.078-.207-.147-.406-.205-.594s-.111-.363-.161-.544-.1-.363-.142-.53-.078-.3-.112-.428c-.029-.107-.069-.231-.12-.373a2.474 2.474 0 0 0-.13-.306c-.048-.092-.117-.207-.2-.337-.1-.153-.2-.294-.286-.419s-.192-.268-.293-.407q-.135-.185-.285-.361c-.1-.121-.2-.232-.3-.334a1.585 1.585 0 0 0-.2-.182l-.169-.124a1.04 1.04 0 0 1-.421-.772l-.208-.058zm3.19.57c.124.17.227.313.327.455s.208.3.322.472c.124.189.228.362.312.522a4.529 4.529 0 0 1 .246.57c.068.191.125.367.17.535.037.139.077.29.12.46.038.151.08.309.128.477s.094.326.145.489.1.307.166.478.137.361.2.533.142.364.213.548l.207.546c.076.2.148.407.217.618s.127.416.177.614a4.082 4.082 0 0 1 .116.706q.022.3.022.58t-.018.563q-.017.256-.036.5c-.014.172-.03.343-.051.517s-.042.327-.065.479-.055.33-.091.5-.076.344-.122.525-.1.356-.148.528-.109.356-.173.548c-.059.174-.118.355-.179.546s-.128.387-.19.565-.133.37-.209.564-.144.364-.213.529-.152.355-.236.531-.167.337-.255.5-.2.347-.3.516-.21.323-.318.478-.231.327-.353.483-.232.292-.348.43-.253.287-.377.41a5.8 5.8 0 0 1-.5.44q-.287.23-.572.42c-.179.119-.341.221-.49.307l-.379.219c-.137.078-.274.153-.41.221s-.289.143-.449.213-.3.128-.455.191-.3.12-.464.181-.325.12-.492.178-.343.118-.523.177-.372.117-.56.171-.4.108-.626.159a6.9 6.9 0 0 1-.7.119 6.048 6.048 0 0 1-.681.039c-.2 0-.409 0-.623-.014-.232-.01-.456-.029-.667-.057s-.407-.061-.6-.1-.371-.081-.564-.13-.377-.1-.561-.145l-.521-.143q-.277-.076-.587-.18t-.612-.224q-.31-.122-.6-.261-.275-.13-.553-.268-.294-.146-.564-.3c-.171-.1-.337-.194-.5-.289s-.344-.211-.526-.332-.382-.264-.563-.408-.344-.289-.5-.444-.31-.315-.463-.491-.292-.349-.42-.523-.246-.348-.356-.525-.212-.354-.309-.538l-.261-.5q-.144-.281-.27-.576c-.082-.192-.163-.4-.241-.61s-.159-.464-.227-.711a7.738 7.738 0 0 1-.178-.8 5.728 5.728 0 0 1-.08-.918q0-.412.014-.823c.012-.281.033-.556.063-.827s.078-.565.14-.869c.058-.287.121-.568.188-.845s.141-.557.224-.852l.185-.655c.044-.155.119-.388.217-.678s.174-.509.23-.656.14-.354.25-.609.23-.51.361-.771.261-.5.395-.737.264-.45.4-.665.282-.439.431-.651.308-.43.473-.643.321-.408.489-.614.368-.436.58-.666.435-.455.651-.65a6.776 6.776 0 0 1 .738-.581q.377-.257.747-.463a7.965 7.965 0 0 1 .759-.373q.371-.157.741-.278t.764-.221q.389-.1.755-.179c.248-.054.511-.1.785-.149s.557-.088.847-.124.561-.066.819-.09q.412-.04.836-.047Q47.474 3 47.87 3t.718.007q.344.008.669.037t.647.086q.319.057.688.162c.246.069.478.145.695.227s.419.168.6.257c.135.066.26.124.373.171a3.733 3.733 0 0 0 .5.126 1.045 1.045 0 0 1 .481 1.787z" class="cls-1"/>
            <path id="패스_1265" d="M30.805 59.88v-.033.011zm-.287-.117c-.124-.1-.261-.219-.415-.352s-.3-.266-.419-.383-.226-.224-.358-.359-.273-.284-.424-.448-.3-.329-.453-.5-.3-.351-.468-.545-.324-.388-.49-.589-.315-.38-.478-.569-.344-.393-.533-.6-.336-.371-.443-.485l-.307-.333-.425-.442q-.28-.29-.587-.6t-.62-.626q-.324-.323-.6-.609t-.578-.6q-.283-.3-.549-.572t-.521-.536q-.261-.27-.486-.526a6.36 6.36 0 0 1-.446-.567c-.128-.184-.237-.357-.33-.523a4.686 4.686 0 0 1-.249-.517 5.9 5.9 0 0 1-.2-.607 3.463 3.463 0 0 1-.139-.788 4.187 4.187 0 0 1 .034-.712 2.737 2.737 0 0 1 .223-.806 3.315 3.315 0 0 1 .369-.608 4.459 4.459 0 0 1 .41-.475q.18-.18.411-.386t.481-.416l.57-.48.505-.423c.127-.106.254-.209.383-.312s.272-.211.421-.32.283-.207.416-.3.279-.2.431-.3l.415-.282c.142-.1.282-.194.418-.283s.3-.2.472-.3.324-.194.491-.291l.45-.262.486-.283c.176-.1.331-.194.465-.275s.313-.186.515-.3.372-.218.543-.321.35-.213.54-.332l.508-.321c.147-.094.341-.217.542-.34s.386-.239.576-.359.383-.243.58-.371l.6-.392.583-.379.536-.344.573-.367.52-.33q.23-.145.473-.287c.157-.092.31-.18.46-.265l.557-.313c.224-.125.431-.239.62-.342s.378-.2.544-.289c.15-.077.309-.161.48-.253s.3-.165.422-.241a4.3 4.3 0 0 1 .814-.366 1.012 1.012 0 0 1 1.292.642 1.042 1.042 0 0 1-.63 1.318 2.624 2.624 0 0 0-.428.182c-.159.1-.334.2-.523.3s-.353.188-.518.273c-.147.075-.311.162-.493.262s-.388.213-.606.335l-.545.307c-.142.08-.286.163-.432.249s-.285.17-.419.254l-.513.326q-.293.186-.561.359l-.544.349q-.262.168-.561.364l-.611.4q-.307.2-.6.385c-.2.123-.393.247-.6.372s-.359.222-.5.316-.334.213-.532.337-.388.241-.565.347-.373.223-.576.341-.356.208-.485.285-.306.183-.494.292l-.477.277-.458.268q-.234.136-.457.271c-.141.086-.272.169-.4.253s-.258.173-.394.267l-.431.293c-.139.093-.268.183-.387.268s-.254.183-.394.286-.253.188-.361.274-.23.185-.343.279l-.5.42-.569.479c-.156.131-.3.255-.434.375s-.236.216-.329.308a2.442 2.442 0 0 0-.222.259 1.256 1.256 0 0 0-.141.227.7.7 0 0 0-.045.19 2.1 2.1 0 0 0-.019.352 1.409 1.409 0 0 0 .056.3 3.932 3.932 0 0 0 .125.385 2.573 2.573 0 0 0 .136.281c.057.1.131.218.221.349a4.3 4.3 0 0 0 .3.382q.193.219.422.457t.513.528q.278.284.573.6t.553.575q.271.277.585.591t.639.645l.6.613.435.452.317.336q.178.189.475.52t.558.633q.264.305.514.612c.159.194.316.383.469.564s.306.358.446.519.281.316.417.464.265.283.382.4l.326.327c.095.094.2.187.326.3s.269.23.383.324q.193.16.369.319a2.134 2.134 0 0 1 .492.65 1.742 1.742 0 0 1 .162 1.014q-.033.241-.083.5a3.37 3.37 0 0 0-.049.368l-.039.528c-.014.2-.031.412-.052.636s-.049.446-.08.632l-.04.24a1.019 1.019 0 0 1-1.172.849 1.035 1.035 0 0 1-.833-1.2l.04-.24c.022-.134.043-.3.06-.483q.028-.308.047-.585.02-.294.041-.55a5.475 5.475 0 0 1 .08-.6q.024-.127.043-.245-.13-.112-.271-.229z" class="cls-1"/>
            <path id="패스_1266" d="M56.458 34.9a1.05 1.05 0 0 1-.291-1.436 1 1 0 0 1 1.408-.3 2.287 2.287 0 0 0 .328.195c.148.045.314.1.5.16s.387.134.59.21.383.145.526.2.323.138.568.246.452.2.612.283l.426.206c.138.067.285.141.441.22l.445.228c.147.075.3.154.458.237l.436.229q.21.109.453.229t.488.245c.159.081.32.166.485.255s.32.175.481.264.314.177.462.262.294.17.441.257.3.176.446.268l.6.372c.256.159.447.28.577.364s.259.169.394.259.34.233.572.4.442.332.628.485.357.3.536.457.346.312.507.467.3.3.437.439.268.3.383.442a5.093 5.093 0 0 1 .36.523 4.929 4.929 0 0 1 .306.59q.117.273.2.526a4.21 4.21 0 0 1 .139.6 3.63 3.63 0 0 1 .04.741 3.207 3.207 0 0 1-.13.781c-.05.167-.1.34-.156.516s-.106.356-.163.554l-.148.52q-.067.239-.159.515c-.06.18-.125.364-.193.548s-.146.384-.226.574-.17.392-.268.6-.2.405-.3.607-.194.38-.289.572-.2.4-.3.619-.206.43-.3.636-.179.4-.26.588-.163.393-.244.6-.155.395-.221.573-.126.345-.181.507l-.18.527c-.061.178-.125.358-.186.528s-.133.362-.2.533l-.191.48c-.067.17-.136.335-.205.492l-.2.45c-.065.145-.131.279-.2.419s-.15.3-.244.471-.191.35-.286.512l-.242.408-.226.381-.227.384a.813.813 0 0 0-.075.17.517.517 0 0 0-.023.138q-.006.228-.017.49-.01.243-.016.546c0 .206-.007.378-.009.519s0 .3 0 .489V62.101a1.017 1.017 0 1 1-2.033.022v-.269-.585-.522c0-.142.005-.319.01-.53s.01-.411.018-.588.012-.317.016-.462a2.636 2.636 0 0 1 .119-.71 2.91 2.91 0 0 1 .268-.606l.23-.389.231-.388q.105-.176.234-.4.12-.2.244-.436c.085-.159.156-.3.212-.409s.12-.248.179-.376.12-.263.183-.408.119-.278.178-.426l.192-.484c.06-.149.117-.3.174-.46s.119-.334.178-.506l.177-.517c.058-.17.129-.37.2-.565s.151-.4.236-.614.173-.43.259-.636.186-.434.291-.66.207-.44.318-.67.213-.436.313-.636l.3-.6c.1-.2.184-.365.272-.55s.161-.347.229-.509.131-.321.191-.484.118-.328.171-.486.095-.294.131-.424l.148-.521c.059-.208.118-.407.173-.591s.1-.343.153-.508a1.1 1.1 0 0 0 .043-.269 1.526 1.526 0 0 0-.015-.31 2.133 2.133 0 0 0-.068-.3c-.032-.1-.073-.211-.122-.327a2.829 2.829 0 0 0-.174-.334 3.029 3.029 0 0 0-.211-.308c-.078-.1-.167-.2-.265-.305s-.236-.242-.369-.371-.286-.268-.443-.407-.32-.277-.479-.408-.336-.267-.54-.416-.372-.268-.493-.348l-.378-.248c-.117-.076-.3-.192-.545-.344l-.588-.363q-.212-.129-.42-.252t-.42-.245q-.21-.121-.439-.248c-.153-.085-.305-.169-.457-.251s-.3-.159-.443-.233-.3-.154-.468-.235-.332-.166-.483-.245l-.452-.238c-.148-.078-.292-.153-.434-.225l-.44-.225c-.147-.075-.284-.143-.405-.2l-.432-.209c-.137-.067-.32-.152-.544-.251s-.407-.178-.525-.227-.266-.106-.456-.176-.363-.132-.527-.187-.318-.1-.442-.141a3.309 3.309 0 0 1-.878-.452z" class="cls-1"/>
            <path id="패스_1267" d="M33.893 77.87a.035.035 0 0 0-.008-.013v.006zm-1.922.707c-.047-.17-.072-.265-.086-.341-.021-.042-.021-.042.023-.5.114-.373.114-.373.876-.741.66.12.66.12.82.3a1.055 1.055 0 0 1 .181.25 1.661 1.661 0 0 1 .083.2 3.054 3.054 0 0 1 .159.7q.028.268.046.511t.026.571q.008.306.012.7t0 .822v1.167q0 .281.008.55 0 .262.012.576l.014.622.016.634q.009.331.016.675t.012.666q0 .305.012.612.009.322.013.651t.008.6v5.729q0 .2.011.455.013.29.017.514c0 .211 0 .211.008.431A1.68 1.68 0 0 1 33.9 96a2.076 2.076 0 0 1-.675.561 3.221 3.221 0 0 1-.7.26q-.321.082-.608.129l-.53.089c-.177.03-.343.062-.5.094a2.046 2.046 0 0 0-.308.09l-.2.08a1.01 1.01 0 0 1-1.314-.594 1.044 1.044 0 0 1 .582-1.341l.2-.08a4.033 4.033 0 0 1 .616-.184q.278-.06.588-.112l.533-.089q.2-.034.445-.1a1.57 1.57 0 0 0 .2-.063v-.206q0-.194-.015-.459-.013-.3-.013-.549v-5.159-.532q0-.275-.008-.6 0-.313-.012-.619-.009-.323-.013-.644t-.011-.644l-.016-.667-.016-.639-.014-.621-.012-.589q0-.269-.009-.56t0-.536v-.659-.8q0-.379-.011-.667-.007-.275-.021-.473c-.01-.134-.022-.277-.038-.424a1.062 1.062 0 0 1-.049-.115z" class="cls-1"/>
            <path id="패스_1268" d="M61.525 93.787c-.035-.175-.062-.348-.081-.515a4.915 4.915 0 0 1-.03-.554V92.2q0-.308.008-.582c.005-.181.014-.375.025-.58s.022-.415.036-.628l.044-.7.047-.772c.016-.259.028-.5.039-.757l.036-.812q.019-.389.023-.782V84.1v-.492V82.561v-.5c0-.191-.005-.36-.008-.5q-.006-.238-.006-.484v-.655c0-.284-.005-.538-.008-.757l-.008-.613-.008-.51c-.003-.151-.007-.291-.015-.449q-.014-.279-.014-.521a1.764 1.764 0 0 1 .62-1.272 1 1 0 0 1 1.438.016 1.052 1.052 0 0 1-.015 1.466 1.968 1.968 0 0 0 0 .209q.013.27.017.516 0 .231.008.517t.008.616c0 .221.005.475.008.765s0 .513 0 .671 0 .29.005.435.006.328.009.524 0 .373 0 .528v4.049q0 .435-.025.866-.02.4-.036.8c-.011.269-.025.536-.041.8l-.047.775-.044.7-.035.6c-.011.2-.018.37-.023.533s-.007.334-.007.519v.518a2.822 2.822 0 0 0 .017.32q.018.161.052.332c.034.17.063.346.086.525a1.83 1.83 0 0 1-.146 1.012 1.586 1.586 0 0 1-.785.791c-.121.056-.249.116-.381.18s-.274.139-.434.227-.32.179-.451.255l-.41.238-.41.237q-.213.123-.411.234t-.453.246l-.237.125A1.007 1.007 0 0 1 58.114 97a1.047 1.047 0 0 1 .435-1.4l.237-.125q.225-.119.406-.221l.391-.223.407-.235.407-.237c.146-.085.309-.177.495-.28s.36-.193.519-.271l.142-.069q-.013-.077-.028-.152zm2.1-16.175v-.044.015z" class="cls-1"/>
        </g>
    </g>
</svg>
