<svg xmlns="http://www.w3.org/2000/svg" width="745.408" height="253.104" viewBox="0 0 745.408 253.104">
    <defs>
        <style>
            .cls-1{isolation:isolate}.cls-2{fill:#dc4f0f}
        </style>
    </defs>
    <g id="그룹_1808" transform="translate(-74.682 -186.455)">
        <g id="muggl" class="cls-1" transform="translate(74.682 186.455)">
            <g id="그룹_1807" class="cls-1">
                <path id="패스_1281" d="M288.5 336.457c0 7.457 14.172 7.21 14.172 15.911 0 6.713-5.717 8.454-16.905 8.454h-34.56c-11.187 0-14.421-2.238-14.421-8.454 0-7.208 11.189-8.454 11.688-15.414v-60.668c0-16.905-5.472-30.083-19.145-30.083-9.946 0-17.156 5.969-21.134 14.421.249 2.735.5 5.47.5 8.205v68.125c.5 6.96 11.686 8.205 11.686 15.414 0 6.216-3.232 8.454-14.421 8.454H171.4c-11.189 0-14.421-2.238-14.421-8.454 0-7.457 11.686-8.454 11.686-15.911v-60.171c0-16.905-5.47-30.083-19.145-30.083-9.695 0-16.657 5.472-20.635 13.677v76.577c0 7.457 11.684 8.454 11.684 15.911 0 6.216-3.232 8.454-14.419 8.454H91.587c-11.189 0-16.905-1.741-16.905-8.454 0-8.7 14.17-8.454 14.17-15.911v-84.284c0-5.224-9.695-5.969-9.695-13.677 0-11.187 29.089-23.121 38.537-23.121 7.708 0 11.189 6.465 11.189 14.172v6.96c9.2-10.938 22.873-19.889 43.261-19.889 11.933 0 25.608 7.459 32.321 25.608 8.951-13.424 23.869-25.608 47.488-25.608 16.659 0 36.548 14.67 36.548 52.212z" class="cls-2" transform="translate(-74.682 -155.454)"/>
                <path id="패스_1282" d="M234.927 305.379c0 16.905 7.211 30.083 25.361 30.083 11.435 0 19.392-6.713 23.867-16.161v-67.128c0-5.224-9.7-5.969-9.7-13.677 0-11.187 29.091-23.121 38.539-23.121 7.708 0 10.94 6.465 11.187 14.172v107.158c0 7.457 14.172 7.457 14.172 16.659 0 6.711-5.719 7.208-16.907 8.452l-29.586 3.232c-4.973.5-7.708-3.727-7.708-8.7v-12.185c-9.2 11.439-23.121 20.886-44.007 20.886-22.873 0-45.25-17.156-45.25-52.212v-60.664c0-5.224-9.7-5.969-9.7-13.677 0-11.187 29.091-23.121 38.539-23.121 7.708 0 11.187 6.465 11.187 14.172z" class="cls-2" transform="translate(43.793 -155.454)"/>
                <path id="패스_1283" d="M325.334 215.974c18.151 0 33.315 4.227 44.256 11.686a22.921 22.921 0 0 0 11.189-1.743c11.187-4.971 13.176-10.938 18.4-7.954 4.722 2.735 2.733 9.448-.5 14.67A44.286 44.286 0 0 1 386 247.054a40.743 40.743 0 0 1 3.483 16.657c0 27.845-23.123 46-64.147 46a111.6 111.6 0 0 1-27.1-2.984 7 7 0 0 0-4.225 6.216c0 7.459 29.337 8.2 56.934 9.2 34.055 1.239 53.455 9.941 53.455 37.289 0 35.307-41.272 48.482-77.82 48.482-35.056 0-69.617-6.216-69.617-38.04 0-12.432 10.443-21.381 22.378-25.858-10.194-3.976-17.156-10.443-17.156-21.878 0-10.443 4.724-19.891 14.67-25.608-10.194-7.956-15.167-19.147-15.167-32.82-.004-27.847 24.858-47.736 63.646-47.736zm-18.151 133.513c-7.708 5.472-9.448 11.686-9.448 18.9 0 13.178 7.459 19.891 27.1 19.891 28.343 0 39.283-8.951 39.283-19.891 0-12.432-16.16-16.161-35.553-17.4zm18.151-59.423c14.916 0 27.348-7.954 27.348-26.354 0-16.657-12.432-27.35-27.348-27.35-14.421 0-26.6 10.693-26.6 27.35-.005 18.4 12.178 26.354 26.6 26.354z" class="cls-2" transform="translate(120.718 -154.811)"/>
                <path id="패스_1284" d="M397.333 215.974c18.151 0 33.315 4.227 44.256 11.686a22.921 22.921 0 0 0 11.189-1.743c11.189-4.971 13.178-10.938 18.4-7.954 4.724 2.735 2.735 9.448-.5 14.67A44.311 44.311 0 0 1 458 247.054a40.775 40.775 0 0 1 3.481 16.657c0 27.845-23.121 46-64.147 46a111.594 111.594 0 0 1-27.1-2.984 7 7 0 0 0-4.227 6.216c0 7.459 29.337 8.2 56.936 9.2 34.057 1.239 53.457 9.941 53.457 37.289 0 35.307-41.274 48.482-77.82 48.482-35.058 0-69.619-6.216-69.619-38.04 0-12.432 10.445-21.381 22.38-25.858-10.194-3.976-17.158-10.443-17.158-21.878 0-10.443 4.726-19.891 14.67-25.608-10.192-7.956-15.167-19.147-15.167-32.82-.003-27.847 24.861-47.736 63.647-47.736zm-18.149 133.513c-7.708 5.472-9.448 11.686-9.448 18.9 0 13.178 7.457 19.891 27.1 19.891 28.341 0 39.283-8.951 39.283-19.891 0-12.432-16.161-16.161-35.555-17.4zm18.149-59.423c14.918 0 27.35-7.954 27.35-26.354 0-16.657-12.432-27.35-27.35-27.35-14.421 0-26.6 10.693-26.6 27.35-.003 18.4 12.178 26.354 26.6 26.354z" class="cls-2" transform="translate(197.9 -154.811)"/>
                <path id="패스_1285" d="M455.641 367.458c0 7.457 14.17 7.21 14.17 15.911 0 6.713-5.717 8.454-16.907 8.454h-34.559c-11.189 0-16.907-1.741-16.907-8.454 0-8.454 13.427-8.454 14.172-15.414v-144.7c0-5.223-9.695-5.967-9.695-13.677 0-11.187 29.089-23.121 38.535-23.121 7.71 0 11.191 6.465 11.191 14.172z" class="cls-2" transform="translate(275.596 -186.455)"/>
            </g>
        </g>
    </g>
</svg>
