<svg xmlns="http://www.w3.org/2000/svg" width="16" height="16" viewBox="0 0 16 16">
    <path fill="#707070" d="M7.969 3A7.74 7.74 0 0 0 0 10.5a7.238 7.238 0 0 0 1.828 4.782 3.179 3.179 0 0 1-.753 2.865.505.505 0 0 0 .331.853 5.006 5.006 0 0 0 3.58-1.542A8.35 8.35 0 0 0 7.969 18 7.8 7.8 0 0 0 16 10.5 7.8 7.8 0 0 0 7.969 3zm0 .993c3.911 0 7.1 2.922 7.1 6.507s-3.188 6.507-7.1 6.507a7.458 7.458 0 0 1-2.93-.6.449.449 0 0 0-.519.127 4.188 4.188 0 0 1-2.1 1.332 4.287 4.287 0 0 0 .28-2.974.509.509 0 0 0-.114-.212A6.222 6.222 0 0 1 .931 10.5a6.8 6.8 0 0 1 7.038-6.507zM5.257 9.411a1.09 1.09 0 0 0 0 2.176 1.09 1.09 0 0 0 0-2.176zm2.72 0A1.09 1.09 0 1 0 9 10.5a1.057 1.057 0 0 0-1.023-1.089zm2.766 0a1.09 1.09 0 1 0 1.02 1.088 1.057 1.057 0 0 0-1.02-1.088z" transform="translate(0 -2.999)"/>
</svg>
