<svg xmlns="http://www.w3.org/2000/svg" width="16" height="16" viewBox="0 0 16 16">
    <path fill="#0066d6" d="M8 0C5.827 0 5.555.01 4.7.048A5.9 5.9 0 0 0 2.76.42a3.918 3.918 0 0 0-1.417.923A3.9 3.9 0 0 0 .42 2.76 5.882 5.882 0 0 0 .048 4.7C.008 5.555 0 5.827 0 8s.01 2.445.048 3.3a5.9 5.9 0 0 0 .372 1.94 3.923 3.923 0 0 0 .923 1.417 3.912 3.912 0 0 0 1.417.923 5.906 5.906 0 0 0 1.942.372c.853.04 1.125.048 3.3.048s2.445-.01 3.3-.048a5.92 5.92 0 0 0 1.942-.372 4.088 4.088 0 0 0 2.34-2.34 5.9 5.9 0 0 0 .372-1.942c.04-.853.048-1.125.048-3.3s-.01-2.445-.048-3.3a5.916 5.916 0 0 0-.376-1.938 3.926 3.926 0 0 0-.923-1.417A3.9 3.9 0 0 0 13.24.42 5.885 5.885 0 0 0 11.3.048C10.445.008 10.173 0 8 0zm0 1.44c2.135 0 2.39.011 3.233.047a4.408 4.408 0 0 1 1.485.277 2.633 2.633 0 0 1 1.519 1.518 4.417 4.417 0 0 1 .275 1.485c.038.844.047 1.1.047 3.233s-.01 2.39-.049 3.233a4.5 4.5 0 0 1-.281 1.485 2.54 2.54 0 0 1-.6.921 2.5 2.5 0 0 1-.92.6 4.449 4.449 0 0 1-1.49.275c-.849.038-1.1.047-3.239.047s-2.391-.01-3.239-.049a4.536 4.536 0 0 1-1.491-.281 2.477 2.477 0 0 1-.919-.6 2.429 2.429 0 0 1-.6-.92 4.54 4.54 0 0 1-.28-1.49c-.03-.84-.041-1.1-.041-3.229s.011-2.391.041-3.241a4.535 4.535 0 0 1 .28-1.489 2.371 2.371 0 0 1 .6-.921 2.366 2.366 0 0 1 .919-.6 4.428 4.428 0 0 1 1.481-.281c.85-.03 1.1-.04 3.239-.04l.03.02zm0 2.452A4.108 4.108 0 1 0 12.108 8 4.108 4.108 0 0 0 8 3.892zm0 6.775A2.667 2.667 0 1 1 10.667 8 2.666 2.666 0 0 1 8 10.667zm5.231-6.937a.96.96 0 1 1-.96-.959.961.961 0 0 1 .96.959z"/>
</svg>
