<svg xmlns="http://www.w3.org/2000/svg" width="48" height="32" viewBox="0 0 48 32">
    <defs>
        <clipPath id="clip-path">
            <path id="Frame" fill="none" d="M0 0H48V32H0z" transform="translate(3508 7058)"/>
        </clipPath>
        <style>
            .cls-3{fill:#989898}
        </style>
    </defs>
    <g id="Glyph" transform="translate(-3508 -7058)">
        <g id="마스크_그룹_3" clip-path="url(#clip-path)">
            <g id="noun_stand_1503614" transform="translate(3516.459 7056.985)">
                <g id="그룹_1630">
                    <path id="패스_1085" d="M21.482 26.363v-.11-.049-.144-.069c0-.026 0-.059-.006-.086s0-.059-.005-.093l-.005-.1q0-.047-.008-.1t-.009-.119c0-.037 0-.075-.007-.113s-.008-.081-.013-.125l-.014-.134-.01-.127q-.005-.064-.013-.136c-.006-.05-.01-.1-.013-.145l-.011-.147-.011-.156c0-.05-.008-.1-.012-.162s-.009-.114-.011-.164-.006-.1-.011-.166l-.016-.2c-.006-.071-.01-.136-.014-.2l-.013-.193-.013-.195c-.003-.06-.008-.121-.013-.186l-.016-.2c-.006-.068-.01-.135-.014-.2s-.007-.12-.013-.185l-.016-.191-.014-.2-.013-.2-.016-.2-.016-.213-.016-.206-.016-.221q-.008-.117-.014-.238t-.013-.216l-.016-.232q-.009-.132-.024-.242l-.016-.226-.016-.232-.016-.233-.016-.226-.016-.223-.016-.226q-.007-.108-.016-.214t-.019-.225l-.021-.239-.019-.224-.021-.235-.024-.242-.023-.225q-.012-.116-.028-.23-.016-.116-.03-.239t-.024-.216q-.011-.094-.029-.226t-.032-.246q-.013-.11-.029-.218t-.037-.216l-.043-.22q-.021-.107-.044-.209l-.05-.212q-.025-.107-.052-.2t-.058-.2l-.063-.205q-.031-.099-.069-.2l-.073-.2q-.036-.1-.077-.2-.04-.1-.079-.191t-.082-.18l-.093-.192-.092-.182q-.042-.082-.089-.164-.047-.083-.1-.17l-.1-.165-.1-.16q-.052-.082-.11-.163l-.111-.157q-.053-.074-.108-.14-.057-.069-.121-.142t-.131-.145q-.067-.072-.13-.133t-.133-.122q-.069-.061-.136-.111l-.14-.1-.155-.107-.143-.094q-.059-.038-.142-.082-.084-.046-.16-.083l-.154-.076q-.075-.037-.143-.066t-.159-.064q-.091-.035-.172-.061c-.054-.017-.108-.033-.161-.047l-.173-.047q-.088-.024-.168-.04l-.165-.033a.975.975 0 0 0-.164-.018h-.475l-.156.006a1.433 1.433 0 0 0-.148.013l-.156.024q-.079.013-.154.031t-.145.04q-.069.021-.148.05t-.151.063q-.075.035-.138.067t-.138.078q-.078.048-.141.09t-.124.089q-.062.048-.124.1l-.135.113q-.067.054-.117.1l-.124.118-.14.135q-.071.069-.133.136l-.133.142q-.067.072-.125.138l-.123.144q-.063.075-.129.158t-.12.162q-.055.08-.112.173t-.112.191l-.107.2q-.053.1-.1.2-.047.088-.1.209t-.105.229l-.092.216q-.045.108-.09.223l-.09.236-.083.22q-.037.1-.082.234t-.077.236l-.075.236q-.043.135-.077.251t-.068.243l-.064.234q-.029.1-.061.235l-.074.279-.064.266q-.03.125-.062.269-.033.143-.058.272t-.053.271q-.027.14-.053.3t-.047.3l-.043.306q-.022.162-.04.32l-.037.325q-.019.168-.032.3l-.032.316q-.019.179-.029.329-.011.152-.018.3t-.018.311q-.011.165-.017.3t-.006.271v1.404l.006.253v.246q0 .134.005.274 0 .141.005.26t.011.244q.008.129.013.255t.011.224l.016.23.018.231.016.205.016.206q.008.1.019.187l.019.162c.005.049.01.1.013.15s.008.093.013.136l.014.125.011.1.013.093.015.076.016.068q.007.029.014.05l.015.044a.145.145 0 0 0 .027.041.4.4 0 0 1 .036.026zm.083.077h-.011.007z" class="cls-3"/>
                    <path id="패스_1086" d="M16.938 1.791c-.064-.018-.121-.031-.17-.04s-.1-.016-.16-.021-.118-.009-.181-.01h-.483c-.078 0-.155.006-.231.013s-.166.017-.256.028-.175.024-.26.038-.161.029-.234.044-.152.034-.232.055-.149.04-.216.062-.131.046-.2.074a2.012 2.012 0 0 0-.192.094q-.1.054-.2.124a1.6 1.6 0 0 0-.175.137q-.085.078-.176.176t-.169.195l-.155.195c-.048.062-.095.125-.139.189s-.086.126-.126.191l-.121.2c-.04.068-.077.139-.115.215s-.074.152-.106.225-.057.134-.072.175-.039.107-.069.2l-.065.2c-.013.042-.034.12-.061.215s-.049.181-.07.265-.04.171-.058.259-.029.161-.038.232-.014.151-.017.229 0 .162 0 .243a1.226 1.226 0 0 0 .017.2 1.915 1.915 0 0 0 .044.2c.018.066.038.128.059.186s.045.118.068.171.046.1.07.15l.085.162q.038.071.08.14t.089.131q.048.065.107.133c.039.045.078.086.116.123s.079.073.121.107.09.069.14.1.1.067.151.1l.154.09q.075.043.158.084l.175.085q.079.038.163.071t.173.063c.059.02.113.036.164.05l.172.047.177.046q.086.022.165.038c.049.01.1.019.155.026s.107.012.166.014.124 0 .182 0a1.368 1.368 0 0 0 .158-.01 1.649 1.649 0 0 0 .166-.028q.094-.021.175-.044t.165-.05l.164-.056.149-.054.143-.056.134-.056c.041-.018.08-.037.117-.056s.073-.038.109-.059l.125-.072c.037-.022.081-.049.131-.082s.095-.067.145-.107a1.315 1.315 0 0 0 .111-.1c.029-.029.059-.061.088-.1s.067-.081.1-.125l.1-.13c.036-.046.063-.093.093-.141s.053-.087.077-.131.049-.093.071-.139.043-.094.064-.143.044-.108.067-.167.043-.112.061-.166l.059-.175.063-.192c.021-.061.036-.112.052-.165s.029-.1.042-.151.024-.1.034-.146.018-.09.024-.131l.019-.139c.006-.048.011-.1.014-.147l.012-.16c.004-.054 0-.1 0-.144s0-.094-.005-.144a.667.667 0 0 0-.019-.115c-.013-.053-.029-.108-.048-.165s-.04-.118-.061-.175l-.07-.184-.071-.172c-.025-.062-.049-.126-.073-.19s-.05-.137-.069-.2l-.055-.184c-.018-.061-.034-.123-.048-.179l-.038-.145c-.012-.045-.023-.078-.04-.126a.837.837 0 0 0-.044-.1c-.016-.031-.04-.07-.069-.114s-.067-.1-.1-.142l-.1-.138q-.046-.063-.1-.122l-.1-.113a.536.536 0 0 0-.069-.061l-.057-.042a.352.352 0 0 1-.142-.261zm1.08.193l.111.154c.034.049.07.1.109.16s.077.122.105.177a1.533 1.533 0 0 1 .083.193c.023.065.042.124.058.181l.041.156.043.161c.016.061.032.11.049.165s.034.1.056.162.046.122.069.18l.072.185.07.185c.026.068.05.138.073.209s.043.141.06.208a1.381 1.381 0 0 1 .039.239q.007.1.007.2t-.006.191l-.012.17c0 .058-.01.116-.017.175s-.014.111-.022.162-.019.112-.031.17-.026.116-.041.178-.032.12-.05.179-.037.12-.059.185l-.061.185-.064.191c-.021.06-.045.125-.071.191l-.072.179c-.023.056-.051.12-.08.18s-.057.114-.086.169-.066.117-.1.175-.071.109-.108.162-.078.111-.119.163-.078.1-.118.146-.085.1-.127.139a1.964 1.964 0 0 1-.169.149q-.1.078-.194.142c-.061.04-.116.075-.166.1l-.128.074c-.046.027-.093.052-.139.075s-.1.048-.152.072l-.154.065-.157.061-.167.06-.177.06q-.094.031-.19.058c-.066.019-.136.037-.212.054a2.334 2.334 0 0 1-.237.04 2.047 2.047 0 0 1-.231.013h-.211c-.073 0-.154-.01-.226-.019s-.138-.02-.2-.034-.126-.027-.191-.044l-.19-.049-.176-.048q-.094-.026-.2-.061t-.207-.076q-.1-.041-.2-.088l-.192-.093q-.1-.049-.191-.1l-.168-.1c-.057-.034-.117-.072-.178-.112s-.129-.089-.19-.138-.116-.1-.17-.15-.1-.107-.157-.166-.1-.118-.142-.177-.083-.118-.12-.178-.072-.12-.1-.182l-.088-.17q-.049-.1-.091-.2c-.028-.065-.055-.134-.082-.206s-.054-.157-.077-.24a2.619 2.619 0 0 1-.06-.272A1.938 1.938 0 0 1 11.506 6v-.279c0-.1.011-.188.021-.28s.026-.191.047-.294.041-.192.064-.286.048-.188.076-.288l.063-.222c.015-.052.04-.131.074-.229s.059-.172.078-.222.047-.12.085-.206.078-.173.122-.261.088-.171.134-.25.089-.152.135-.225.1-.148.146-.22.1-.145.16-.218.109-.138.166-.208.125-.148.2-.225.147-.154.22-.22a2.293 2.293 0 0 1 .25-.2q.128-.087.253-.157a2.7 2.7 0 0 1 .257-.126q.125-.053.251-.094t.258-.075q.132-.034.256-.061c.084-.018.173-.035.266-.051s.188-.03.287-.042l.277-.031c.087-.009.187-.014.283-.016h.51q.116 0 .226.012t.219.029q.108.019.233.055c.083.023.162.049.235.077s.142.057.2.087c.046.022.088.042.126.058a1.263 1.263 0 0 0 .17.043.354.354 0 0 1 .163.6z" class="cls-3"/>
                    <path id="패스_1087" d="M10.425 20.264v-.011.011zm-.1-.04l-.141-.119c-.054-.047-.1-.09-.142-.13l-.121-.121c-.045-.046-.092-.1-.143-.151s-.1-.111-.153-.171l-.158-.184-.166-.2q-.079-.1-.162-.193t-.18-.2q-.1-.106-.15-.164l-.1-.11-.144-.15-.2-.2-.21-.212-.2-.206-.2-.2q-.1-.1-.186-.193l-.176-.182q-.088-.092-.165-.178a2.152 2.152 0 0 1-.151-.192c-.043-.062-.08-.121-.112-.177a1.586 1.586 0 0 1-.084-.175 2 2 0 0 1-.068-.206 1.172 1.172 0 0 1-.045-.264 1.417 1.417 0 0 1 .012-.241.926.926 0 0 1 .075-.273 1.122 1.122 0 0 1 .125-.206 1.509 1.509 0 0 1 .139-.161q.061-.061.139-.131t.163-.141l.193-.162.171-.143.13-.106c.044-.035.092-.071.142-.108l.141-.1.146-.1.14-.1.141-.1q.075-.05.16-.1l.166-.1.149-.094.165-.1.157-.093.174-.1.184-.109.183-.112.172-.109c.054-.035.116-.073.184-.115l.195-.121.2-.126.2-.133.2-.128.181-.116.194-.124.176-.112.16-.1.156-.09.189-.106.21-.116.184-.1.163-.086c.053-.029.1-.056.143-.082a1.456 1.456 0 0 1 .276-.124.342.342 0 0 1 .437.217.353.353 0 0 1-.213.446.888.888 0 0 0-.145.062c-.054.033-.113.067-.177.1l-.175.092c-.05.025-.105.055-.167.089l-.205.113-.185.1-.146.084-.142.086-.174.11-.19.122-.184.118-.19.123-.207.135-.2.13-.2.126-.171.107-.18.114-.191.118-.2.115-.164.1-.167.1-.161.094-.155.091-.155.092c-.048.029-.092.057-.134.086l-.133.09-.146.1-.131.091-.133.1-.122.093-.116.095-.17.142-.193.162c-.053.044-.1.086-.147.127l-.111.1a.826.826 0 0 0-.075.088.425.425 0 0 0-.048.077.236.236 0 0 0-.015.064.711.711 0 0 0-.006.119.477.477 0 0 0 .019.1 1.331 1.331 0 0 0 .042.13.871.871 0 0 0 .046.1c.019.034.044.074.075.118a1.453 1.453 0 0 0 .1.129q.065.074.143.155l.173.179q.094.1.194.2t.187.195l.2.2.216.218.2.207.147.153.107.114q.06.064.161.176t.189.214q.089.1.174.207l.159.191.151.176.141.157c.046.05.09.1.129.136l.11.111c.03.029.067.063.11.1l.129.11q.065.054.125.108a.722.722 0 0 1 .166.22.59.59 0 0 1 .055.343q-.011.082-.028.17a1.14 1.14 0 0 0-.017.125l-.013.179c0 .068-.01.139-.017.215s-.017.151-.027.214l-.014.081a.345.345 0 0 1-.4.287.35.35 0 0 1-.282-.4l.014-.081c.008-.045.014-.1.02-.163s.012-.135.016-.2l.014-.186a1.853 1.853 0 0 1 .027-.2l.015-.083z" class="cls-3"/>
                    <path id="패스_1088" d="M19.106 11.812a.355.355 0 0 1-.1-.486.34.34 0 0 1 .476-.1.774.774 0 0 0 .111.066l.17.054c.064.021.131.045.2.071s.13.049.178.069l.192.083c.084.037.153.069.207.1l.144.07.149.075.151.077.155.08.148.078.153.078.165.083.164.086.163.089.156.089.149.087.151.091.2.126.2.123.133.088c.051.034.115.079.194.136s.15.112.213.164.121.1.181.155.117.106.172.158.1.1.148.149.091.1.13.149a1.723 1.723 0 0 1 .122.177 1.668 1.668 0 0 1 .1.2q.039.092.066.178a1.425 1.425 0 0 1 .047.2 1.228 1.228 0 0 1 .014.251 1.085 1.085 0 0 1-.044.264l-.053.175-.055.188-.05.176q-.023.081-.054.174c-.02.061-.042.123-.065.185s-.049.13-.076.194-.058.132-.091.2l-.1.206-.1.194-.1.209q-.053.11-.1.215c-.032.068-.061.134-.088.2l-.082.2c-.027.067-.052.134-.075.194s-.043.117-.061.171l-.061.178-.063.179c-.021.058-.045.122-.068.18l-.065.162-.069.167c-.023.054-.046.1-.068.152s-.044.094-.067.142-.051.1-.082.159-.065.119-.1.173l-.082.138-.077.129-.077.13a.275.275 0 0 0-.025.058.175.175 0 0 0-.008.047q0 .077-.006.166t-.006.185v.622a.344.344 0 1 1-.688.007v-.091-.2-.177-.18c0-.072 0-.139.006-.2s0-.107.005-.156a.892.892 0 0 1 .04-.24.985.985 0 0 1 .091-.205l.078-.132.078-.131.079-.134q.041-.069.083-.148l.072-.138.06-.127.062-.138.06-.144.065-.164c.02-.05.04-.1.059-.156l.06-.171.06-.175q.031-.092.068-.191t.08-.208c.029-.073.058-.146.088-.215s.063-.147.1-.223l.108-.227.106-.215.1-.2c.032-.062.062-.124.092-.186s.055-.118.078-.172.044-.109.065-.164.04-.111.058-.164.032-.1.044-.144l.05-.176.059-.2.052-.172a.373.373 0 0 0 .015-.091.516.516 0 0 0-.005-.105.722.722 0 0 0-.023-.1c-.011-.034-.025-.071-.041-.111a.958.958 0 0 0-.059-.113 1.025 1.025 0 0 0-.071-.1c-.026-.033-.057-.068-.09-.1l-.125-.126c-.045-.044-.1-.091-.15-.138s-.108-.094-.162-.138-.114-.09-.183-.141-.126-.091-.167-.118l-.128-.084-.184-.116-.2-.123-.142-.085-.142-.083L21.6 13l-.155-.085-.15-.079-.158-.08-.164-.083-.153-.08-.147-.076-.149-.076-.137-.069-.146-.071c-.046-.023-.108-.051-.184-.085l-.178-.077-.154-.06c-.064-.024-.123-.045-.178-.063l-.15-.048a1.12 1.12 0 0 1-.291-.156z" class="cls-3"/>
                    <path id="패스_1089" d="M11.47 26.353zm-.65.239c-.016-.058-.024-.09-.029-.115s-.007-.014.008-.168c.038-.126.038-.126.3-.251.224.041.224.041.278.1a.357.357 0 0 1 .061.085.562.562 0 0 1 .028.066 1.033 1.033 0 0 1 .054.238q.01.091.016.173t.009.193v1.502c0 .1 0 .1.005.214q0 .112.005.228t0 .225V31.802q0 .086.006.174v.146a.568.568 0 0 1-.124.361.7.7 0 0 1-.228.19 1.09 1.09 0 0 1-.237.088q-.109.028-.206.044l-.179.03c-.06.01-.116.021-.168.032a.692.692 0 0 0-.1.031l-.069.027a.342.342 0 0 1-.445-.2.353.353 0 0 1 .2-.454l.069-.027a1.365 1.365 0 0 1 .209-.062q.094-.02.2-.038l.18-.03q.068-.011.15-.032a.531.531 0 0 0 .067-.021v-.07q0-.066-.005-.155t0-.186V29.9v-.18-.2-.209-.218-.218q0-.118-.005-.226c0-.11 0-.11-.006-.216v-.21-.2-.19-.404-.271-.226q0-.093-.007-.16c0-.045-.008-.094-.013-.144a.36.36 0 0 1-.024-.036z" class="cls-3"/>
                    <path id="패스_1090" d="M20.821 31.739c-.012-.059-.021-.118-.027-.174a1.664 1.664 0 0 1-.01-.188V31.2 31c0-.061 0-.127.008-.2s.008-.14.012-.213l.015-.236.016-.261c.005-.087.01-.17.013-.256l.012-.275c.004-.094.007-.176.008-.265v-.834-.166-.354-.169-.17-.164-.221-.256-.207-.173c0-.052 0-.1-.005-.152s0-.122 0-.176a.6.6 0 0 1 .21-.431.339.339 0 0 1 .487.005.356.356 0 0 1-.005.5.666.666 0 0 0 0 .071q0 .092.006.175t0 .175v2.569q0 .142-.008.293l-.012.269c0 .091-.008.182-.014.27l-.016.262-.015.238-.012.2c-.004.063-.006.125-.008.18s0 .113 0 .176v.175a.955.955 0 0 0 .006.108q.006.054.018.112c.012.057.021.117.029.178a.619.619 0 0 1-.049.343.537.537 0 0 1-.266.268l-.129.061c-.043.021-.093.047-.147.077l-.153.086-.139.081-.139.08-.139.079-.153.083-.08.042a.341.341 0 0 1-.464-.15.354.354 0 0 1 .147-.473l.08-.042.137-.075.132-.076.138-.08.138-.08.167-.095c.064-.035.122-.065.176-.092l.048-.023q-.008-.027-.013-.052zm.711-5.474v-.015.005z" class="cls-3"/>
                </g>
            </g>
        </g>
    </g>
</svg>
