<svg xmlns="http://www.w3.org/2000/svg" width="48" height="32" viewBox="0 0 48 32">
    <defs>
        <clipPath id="clip-path">
            <path id="Frame" fill="none" d="M0 0H48V32H0z" transform="translate(3508 7058)"/>
        </clipPath>
        <style>
            .cls-3{fill:#184c5f}
        </style>
    </defs>
    <g id="Glyph" transform="translate(-3508 -7058)">
        <g id="마스크_그룹_2" clip-path="url(#clip-path)">
            <g id="noun_People_in_motion_1562042" transform="translate(3508.121 7049.758)">
                <g id="그룹_1629">
                    <path id="패스_1067" d="M15.33 33l.005.025v.008-.007A.175.175 0 0 1 15.33 33zm.006 0zm.113-.181h-.078l.005.02v.016a.262.262 0 0 0 .012.046.352.352 0 0 1 .062-.083zm0 0h.012l.03-.006c-.015-.006-.027-.008-.041.005zm-.084-.026a.632.632 0 0 1-.009-.067v-.045-.296-.346-.04-.061a.172.172 0 0 0 0-.025v-.045-.049-.047-.044c0-.025 0-.02-.007-.048s0-.031-.009-.061 0-.022-.01-.056l-.013-.068-.014-.071-.02-.092c-.01-.049-.009-.047-.017-.093l-.018-.1-.016-.1-.015-.116c0-.037-.008-.074-.011-.11s0-.079 0-.122v-.11-.1-.1-.106c0-.048 0-.048.007-.1q0-.061.012-.113l.013-.1c.007-.054.007-.054.015-.1l.017-.1c.009-.053.01-.049.02-.1l.018-.084.022-.1.023-.092.021-.087c.007-.031.016-.066.026-.1s.016-.062.02-.083l.021-.1c.012-.054.011-.053.02-.1l.017-.1c.006-.033.01-.062.013-.091a.709.709 0 0 0 .006-.077v-.119-.111-.116-.114-.116-.124-.132-.117-.128-.235-.1-.112-.383-.079-.088-.07-.065c0-.029 0-.043-.006-.085v-.047c0-.038 0-.038-.006-.072s0-.032 0-.056v-.113-.05-.034-.047V25.86H14.873l-.062.005h-.051l-.055.006-.063.006-.049.005-.072.008-.057.007-.077.01-.069.008-.066.009-.089.015-.082.012-.1.016c-.029 0-.053.009-.075.013l-.1.019-.1.019-.1.021-.115.024-.1.021-.094.023c-.039.011-.08.021-.123.031l-.11.027-.119.03-.116.03-.128.033-.11.027-.119.029-.136.032-.116.027-.129.029-.133.027-.116.023-.133.025-.127.024-.131.024-.133.025-.134.025-.121.021-.125.022-.129.022-.125.022-.125.018-.124.018-.118.016-.118.015-.116.016-.108.015-.1.016-.11.02c-.031.005-.06.011-.082.016l-.1.025-.089.026c-.029.009-.054.018-.078.028l-.081.034q-.036.015-.069.034l-.076.042c-.019.01-.04.024-.064.04l-.075.052c-.017.012-.038.027-.064.048l-.068.055-.074.065-.062.056-.06.06-.08.083-.058.06c-.017.018-.053.059-.08.086s-.045.047-.064.069-.051.057-.079.084l-.078.08-.073.076-.065.069-.07.076-.064.071q-.029.032-.051.059l-.052.065-.045.06-.049.07a.382.382 0 0 0-.028.046l-.035.068-.037.074c-.01.02-.02.041-.028.061l-.029.073c-.008.02-.015.04-.023.066l-.023.07-.017.061.023.096-.013.066a.273.273 0 0 0-.005.042v.472c0 .033 0 .033.005.061s0 .019 0 .034l.007.042.008.04c0 .015 0 .015.011.038s.005.018.012.036a.329.329 0 0 0 .014.032l.019.039.023.041.025.057a.428.428 0 0 0 .025.038l.043.06q.016.022.034.043l.041.046.065.071q.024.029.05.055l.062.062.068.066.067.064.071.067.078.071.075.067.084.071.084.071.088.07.094.074.087.068.092.071.09.068.093.066.109.075.1.069.108.074.1.068.112.07q.058.037.108.065l.12.069.1.057.111.059c.039.02.075.039.111.055l.113.053.118.054q.058.026.116.049l.117.046.129.047c.048.017.089.031.123.041l.131.04c.043.014.088.026.137.038l.148.036.135.031.128.028.14.029.144.026.139.024.143.025.137.025.162.029.139.026.139.025.149.026.154.025.153.023.148.02.156.019.153.017.156.016.15.015.126.012.12.009.127.008.1.006h.915a.2.2 0 0 1 .027-.006zm.21-6.935zm.06 0h-.011c-.021 0-.023 0 0 0zm0 0h.021-.018zm-.024-.014l.045.011zm.034.013h.022-.017zm-.055-.009a.165.165 0 0 0 .055.009zm-.087-.1l.01.015zm.034.048v.006l-.015-.018zm-.017-.021l-.012-.021.007.012zm-.009-.022l-.002.001zm0 0l.007.021-.009-.023zm-.008-.027v.014a.1.1 0 0 0-.003-.016zm.009.039v.007-.009zm0 .01zm-.08 7.214v-.005zm-.01-.024v.008zm.194-.241zm.165.111c-.005-.012-.007-.014 0-.009l-.006-.014a.107.107 0 0 1 .001.023zm0 0zm-.022-.047a.128.128 0 0 1 .008.018V32.8zm0 0zm.115-7.133v.006zm-.237-.187l.04.006a.088.088 0 0 0-.047-.012zm.017 0h.005c.025-.006.022-.006-.012-.009zm-.066 0zm.12 7.461v.005c-.008.003-.008.003-.008-.009zm0 0l-.007-.017.008.021z" class="cls-3" transform="rotate(90 11.728 29.246)"/>
                    <path id="패스_1068" d="M31.828 33.585a.141.141 0 0 1 .035-.028l.011-.006-.025.01zm.124-7.712l-.119.015-.067.008-.1.012-.077.01-.109.017-.11.018-.1.017-.14.025-.13.02-.124.018-.128.02-.151.024-.153.024-.151.024-.188.028-.173.026-.181.025-.173.021-.156.018-.187.024-.183.024-.2.027-.209.028-.218.026-.2.024-.219.028-.24.034-.229.036-.24.041-.244.044-.23.043-.253.049-.246.051-.258.058-.265.059-.274.063-.26.058-.243.056c-.081.018-.163.038-.246.058l-.233.061-.234.065-.225.065-.209.066-.235.079-.217.076-.2.076c-.077.03-.146.059-.208.085l-.2.09-.176.081-.185.088c-.068.033-.13.064-.183.092l-.16.086-.161.093c-.061.035-.1.063-.145.088s-.079.053-.119.083-.081.061-.126.1a1.369 1.369 0 0 0-.105.092c-.03.029-.059.058-.089.091a.635.635 0 0 0-.067.084l-.076.116a.772.772 0 0 0-.05.09c-.015.031-.029.064-.043.1s-.025.066-.035.1-.018.062-.024.093a.4.4 0 0 0-.009.075.512.512 0 0 0 0 .074c0 .044 0 .044.009.1s0 .048.009.1a.822.822 0 0 0 .016.089l.024.1c.008.029.019.061.031.093s.029.071.047.107.034.068.052.1.037.063.063.1.049.075.078.113.06.081.095.124l.1.125c.031.04.067.076.107.118s.079.081.117.117.082.077.136.125.106.093.153.131l.14.114.158.126q.084.067.168.13c.056.043.107.08.153.112l.161.112c.061.043.115.079.168.112l.158.1.171.1.175.1.171.1.191.1q.106.059.194.1c.058.03.116.059.175.087s.126.059.2.091l.218.093.2.078c.059.022.126.045.2.069l.236.077.222.07.226.068L26 33l.219.06q.105.03.235.064l.239.061.213.054.223.053.246.054c.086.018.169.035.249.05s.16.03.245.044l.255.041q.121.02.255.038l.268.036.244.029.222.024.244.023.227.018.2.013.2.011.193.008.169.006h.303l.135-.007.143-.009.138-.009.118-.007.116-.008.111-.011.1-.012.1-.012c.023 0 .044-.006.07-.011l.073-.014.054-.012q.014-.005.145-7.702zm.4-.054zm.251-.2a.467.467 0 0 1-.025.085.474.474 0 0 0 .022-.083zm-.022.081a.44.44 0 0 0 .026-.088c-.014.038-.024.066-.035.088zm-.229-.08l-.018-.014h.018zm-.077.169l.038.007h-.017c.007 0 .007 0 0 0h-.063v-.043c.026.053.03.047.041.039zm-.139-.093l-.026-.087.013.017c.001.021.006.045.012.074z" class="cls-3" transform="rotate(90 26.836 29.649)"/>
                    <path id="패스_1069" d="M42.3 18.962l-.041-.012h-.121l-.065.006h-.276l-.055.005-.08.009-.084.01-.094.01c-.031 0-.063.007-.1.013l-.115.017-.119.018-.114.019-.142.025-.137.024-.147.027-.162.028-.155.027-.167.029-.18.03-.164.026-.2.03-.2.028-.183.026-.174.024-.194.029q-.09.014-.188.032l-.2.04-.192.042-.19.045c-.063.015-.129.032-.2.052l-.2.057-.2.057-.2.059-.21.063-.2.059-.2.06-.2.058-.2.056-.207.058-.2.06-.18.061q-.088.03-.18.066l-.173.07c-.054.023-.108.047-.162.073s-.107.052-.159.08-.106.059-.158.089-.091.054-.128.079l-.135.09q-.075.05-.137.1l-.123.095q-.057.044-.116.1l-.119.108-.111.107-.1.1c-.033.033-.066.073-.1.109s-.057.069-.086.106-.058.073-.088.114-.053.071-.077.106l-.067.1c-.019.029-.038.059-.055.09l-.052.1-.047.091a.776.776 0 0 0-.036.082l-.033.094c-.009.028-.017.056-.024.085s-.014.059-.02.092l-.017.1a.9.9 0 0 0-.01.09.714.714 0 0 0 0 .087c0 .033 0 .068.007.107 0 .057 0 .057.007.112l.008.119c0 .036.006.072.011.106l.021.127c.006.038.014.078.023.119l.03.129.032.126c.012.044.025.086.041.135s.029.09.042.125l.046.122q.025.065.053.129l.057.13.049.106.053.11.054.111.049.093.054.1.058.1c.019.032.038.06.054.085s.039.056.066.091.045.059.064.081.047.051.077.083.061.061.09.088.059.052.089.076.064.049.1.074l.116.079c.041.027.083.052.129.079s.086.049.132.073.089.046.14.07.1.046.147.066l.141.055c.042.015.092.033.152.052s.107.034.151.046l.156.041c.058.014.112.026.165.036l.171.031.159.027.166.024.182.022.193.017.2.015.2.014.2.012.221.007.232.005h.429l.217-.005.2-.008.2-.013.2-.016.2-.015.2-.015.183-.014.172-.015.194-.018.194-.016.19-.015.2-.015.2-.015.184-.014.193-.015.2-.016.2-.017.2-.017.192-.016.176-.015.2-.018.172-.015.165-.016.159-.015c.045 0 .092-.011.142-.018l.128-.019c.029 0 .063-.011.1-.019s.071-.016.1-.025.056-.016.082-.026a.457.457 0 0 0 .059-.025l.055-.03a.364.364 0 0 0 .038-.025l.033-.026.03-.028a.139.139 0 0 0 .015-.02s-.418-2.275-1.241-6.85zm.005 0l-.01-.016v.013zm.045.021a.155.155 0 0 1-.041-.038.216.216 0 0 0 .044.033zm.011 0a.518.518 0 0 0 .085.02c-.037-.01-.064-.018-.085-.026zm-.071-.08l.009.019zm-.031-.067a.15.15 0 0 0 .005.03v.011a.08.08 0 0 1-.008-.048zm.019.067a.021.021 0 0 0 0-.006zm.028.064l.016.016-.023-.027zm0 0a.191.191 0 0 1-.013-.025.2.2 0 0 0 .012.02zm.023.028a.016.016 0 0 0 0-.008zm-.031-.046zm.05.06a.088.088 0 0 0 .017.015l-.033-.034zm.154.038l.046-.026-.075-.149v.178zM42.338 19a.322.322 0 0 1-.054-.132.317.317 0 0 0 .054.13zm.279-.259v-.006.009zm0 .016zm-.092-.11a.515.515 0 0 0-.082-.019c.034.01.061.017.082.025zm-.013-.005c-.015-.007-.015-.007.006 0l-.016-.007z" class="cls-3" transform="rotate(90 38.342 22.538)"/>
                    <path id="패스_1070" d="M9.081 19.128L9.1 19.1l-.019.021zm-.018.014a.386.386 0 0 1 .327-.272l.082-.052c.038-.024.076-.046.11-.064l.108-.058q.057-.029.113-.054l.109-.048c.043-.018.084-.036.127-.052s.085-.031.133-.046l.117-.037c.048-.015.094-.029.138-.04l.117-.03.122-.03c.045-.011.09-.02.129-.027l.1-.021.124-.029.141-.031c.051-.011.1-.021.156-.028l.1-.017c.037-.007.074-.012.1-.014s.084-.006.144-.007H12.158l.1.006.089.006.1.007.12.014.1.015.105.017.1.02.113.023.088.019.1.022.084.02.127.03q.083.021.16.043l.144.044c.055.017.109.036.162.057s.094.039.144.061a1.639 1.639 0 0 1 .322.194c.044.033.077.06.107.084l.065.056c.028.025.054.05.076.073l.06.061c.032.032.068.074.111.128s.084.109.124.169.069.106.095.153l.054.1.065.146c.027.063.046.114.061.157s.03.087.04.124l.029.1.032.114c.015.056.015.056.029.117l.011.049.011.051.025.12c.013.062.011.059.02.111l.017.11c.009.058.008.059.016.121l.011.106c0 .049.007.095.007.138v.437c0 .059-.006.088-.01.125l-.013.109c-.007.053-.012.082-.023.133l-.023.1c-.011.044-.02.08-.033.12l-.039.123c-.014.043-.034.093-.052.132l-.051.113c-.02.04-.041.081-.067.125l-.059.1a1.31 1.31 0 0 1-.094.137c-.027.035-.053.068-.081.1l-.087.1-.086.094q-.048.051-.1.1l-.093.088c-.036.033-.073.065-.11.094l-.084.069c-.037.032-.077.063-.117.093l-.108.079-.112.077c-.047.031-.093.061-.136.087s-.09.053-.135.078l-.126.069q-.074.04-.144.074l-.136.064c-.055.025-.115.048-.175.068l-.145.049c-.048.016-.1.03-.161.045s-.11.025-.165.036-.115.021-.175.03-.118.017-.174.023l-.174.018c-.064.005-.127.009-.192.011s-.12 0-.178 0h-.171l-.164-.006-.151-.006q-.083 0-.172-.009c-.06 0-.111-.01-.155-.015l-.146-.021q-.087-.015-.16-.034l-.122-.033c-.05-.014-.1-.028-.138-.044s-.081-.031-.121-.049-.087-.04-.127-.062l-.1-.056c-.042-.025-.083-.051-.125-.081s-.066-.049-.1-.076l-.1-.081c-.038-.03-.066-.061-.1-.095s-.067-.07-.1-.106l-.076-.09q-.048-.056-.092-.113c-.028-.036-.056-.075-.088-.12l-.074-.111q-.037-.056-.074-.118l-.067-.116c-.02-.036-.043-.078-.065-.122s-.043-.089-.063-.135-.036-.088-.053-.137l-.037-.113c-.018-.057-.027-.091-.04-.141s-.022-.094-.03-.132l-.024-.125-.022-.127q-.012-.072-.02-.148l-.012-.128-.011-.126c-.006-.065-.005-.066-.01-.136q0-.068-.006-.136v-.127-.157-.122-.135-.238-.112c0-.057 0-.095.007-.14s0-.059.01-.109.009-.077.015-.116.019-.113.035-.181.029-.119.044-.164a1.64 1.64 0 0 1 .062-.153q.038-.082.078-.151c.025-.043.049-.081.069-.112l.057-.084.014-.019a.84.84 0 0 1 .064-.061zm.364.948c-.01.044-.017.078-.021.108l-.011.079c0 .038 0 .038-.008.088V21.298c0 .038 0 .077.005.11 0 .061 0 .061.009.123s.005.062.01.119l.011.116c0 .035.008.067.013.1l.02.113.021.109c.008.037.012.059.021.093l.025.089.03.092c.009.027.02.055.032.082l.04.086.051.1c.018.036.034.06.053.092s.037.061.056.089l.062.092.065.089.068.084.074.088q.027.032.058.063l.063.06.067.057.068.052c.02.014.041.028.06.039l.089.05.067.033c.026.012.053.023.08.032l.082.026.109.03c.028.007.062.014.1.02l.118.017.12.012c.049 0 .1.006.144.008l.153.006.163.006h.305c.049 0 .1 0 .147-.008l.155-.016.147-.019c.051-.008.1-.016.143-.025l.137-.03c.041-.01.077-.02.106-.029l.132-.045c.042-.014.079-.029.111-.043l.12-.056c.036-.017.073-.036.11-.057l.127-.07c.035-.019.069-.039.1-.061s.071-.044.1-.066l.1-.071.093-.068q.041-.03.075-.059l.105-.087c.024-.019.047-.038.069-.058l.08-.075q.038-.036.071-.072l.079-.086.061-.069.067-.084a.53.53 0 0 0 .039-.057l.053-.089.035-.065.04-.089c.014-.033.019-.044.026-.066l.03-.094.018-.064.019-.084c.006-.028.01-.053.012-.073 0-.039 0-.039.01-.089 0-.025.005-.052.007-.079v-.193-.107-.092-.049l-.011-.1-.013-.095-.014-.09-.017-.093-.019-.095-.011-.049-.009-.042-.024-.094-.024-.087-.03-.1-.025-.078c-.01-.029-.025-.067-.045-.115s-.036-.083-.042-.1l-.038-.072c-.011-.02-.03-.051-.057-.091s-.055-.078-.082-.112-.049-.059-.059-.069l-.062-.063-.031-.03-.056-.048-.079-.062a.889.889 0 0 0-.174-.105l-.114-.048c-.033-.013-.068-.025-.107-.037l-.133-.04-.132-.036-.115-.027-.086-.02-.08-.017-.1-.021-.1-.021-.084-.016-.083-.013-.1-.015-.07-.009-.1-.006-.1-.007h-.62L11.543 19l-.115.019c-.042.006-.081.013-.123.022l-.123.027-.126.029-.129.027-.1.02-.111.027-.118.031c-.03.007-.061.017-.092.026l-.123.039-.1.033-.1.039-.1.042-.076.036-.091.049-.08.047-.081.052c-.022.014-.043.029-.066.047l-.043.034c-.016.013-.022.025-.033.037v.025a.406.406 0 0 1-.173.274c.006.03-.003.062-.013.108z" class="cls-3" transform="rotate(90 12 21.333)"/>
                    <path id="패스_1071" d="M10.539 36.1zm-.01-.016l.093-.061.079-.055.089-.064.089-.061.094-.066.092-.065.114-.08.092-.064.095-.07.092-.066.081-.057.078-.056.074-.053.065-.048.07-.052.087-.066.109-.082.083-.065.09-.069.056-.045.08-.066.031-.024a.371.371 0 0 1 .534.084.411.411 0 0 1-.08.558l-.023.017-.064.053c-.031.026-.061.05-.094.075l-.065.05-.1.081-.1.076-.095.072-.066.05-.083.061-.07.051-.081.058-.085.06-.077.056-.1.074c-.036.026-.074.053-.113.078l-.094.066-.1.07-.1.072-.085.059-.067.048c-.031.023-.068.049-.112.078l-.11.072-.094.056a.554.554 0 0 1-.234.073c-.04 0-.079.005-.124.005H10.339l-.086.007-.1.006-.117.007-.114.006H8.382l-.145.008-.169.008-.144.008-.161.011-.151.009-.157.009-.15.009-.169.012L7.007 37l-.155.012-.134.01-.119.011-.135.011-.1.009-.107.01-.1.009-.071.007c-.037.005-.075.009-.112.01s-.07 0-.109 0h-.194a.463.463 0 0 1-.359-.2.594.594 0 0 1-.1-.374.39.39 0 0 1 .388-.395.377.377 0 0 1 .3.172h.087l.1-.01.1-.01.1-.01.125-.011.116-.01.135-.012.136-.01.156-.012.148-.009.15-.01.171-.011.143-.008.154-.009.153-.011q.081-.006.17-.009l.148-.007.159-.009.149-.005H9.896l.1-.005.123-.007h.079l.094-.008h.199a.115.115 0 0 0 .038-.019z" class="cls-3" transform="rotate(90 9.091 35.879)"/>
                    <path id="패스_1072" d="M18.088 35.751a.418.418 0 0 0-.06-.119.535.535 0 0 1 .064.111zm-.1.606l-.052.053a.835.835 0 0 1-.132.111 1.084 1.084 0 0 1-.118.069.97.97 0 0 1-.129.054 1.294 1.294 0 0 1-.131.037c-.045.01-.093.019-.139.025l-.138.02-.118.014-.065.008-.09.012-.1.011-.095.009-.106.01-.1.007-.108.009-.129.011-.135.009-.128.007-.133.008c-.052 0-.106.005-.158 0h-.296l-.14-.007-.148-.004-.15-.006h-.156l-.159-.009-.158-.01-.159-.013-.142-.013-.152-.014-.129-.01-.124-.005-.113-.005-.114-.005h-.278a.866.866 0 0 1-.277-.059.478.478 0 0 1-.252-.564.365.365 0 0 1 .457-.311.5.5 0 0 0 .08.023H13.568l.115.005.118.005.121.005q.075 0 .157.011l.149.014.15.014.139.011.156.01.148.008h.156l.149.006.141.006.139.007h.389l.141-.008.126-.007.12-.008.122-.01.113-.01.107-.008.088-.008.095-.009.092-.01.072-.009.092-.012.1-.012.137-.02c.034 0 .064-.01.091-.016a.688.688 0 0 0 .07-.02l.022-.008a.787.787 0 0 1 .109-.294c.024-.038.052-.081.085-.128s.046-.069.06-.091l.057-.09.051-.082.052-.09.066-.119c.02-.035.037-.067.053-.1l.051-.1.051-.1.039-.084c.01-.023.033-.074.051-.109s.02-.044.04-.088l.029-.07.046-.123c.017-.047.032-.09.044-.132s.018-.065.025-.1l.014-.066a.368.368 0 0 1 .452-.323.474.474 0 0 1 .261.557l-.013.06c-.013.061-.029.124-.048.187s-.039.123-.064.19l-.052.139c-.016.041-.033.082-.048.115-.024.055-.024.055-.053.116q-.021.042-.035.076c-.015.035-.033.074-.054.116l-.058.117-.059.116-.068.125-.067.119-.064.11q-.032.054-.069.11l-.051.08-.082.124a.559.559 0 0 1-.15.434zm-.5-.112l-.01-.014z" class="cls-3" transform="rotate(90 15.878 35.152)"/>
                    <path id="패스_1073" d="M11.68 22.366l.013-.025a.2.2 0 0 0 .011-.023.072.072 0 0 0 0-.015s0-.007 0 0a.253.253 0 0 0 .048.111h.006s-.032-.021-.078-.048zm-.156-.571a.377.377 0 0 1 .531-.168 1.445 1.445 0 0 1 .175.115.81.81 0 0 1 .128.134.631.631 0 0 1 .117.279.932.932 0 0 1 .01.167.942.942 0 0 1-.027.2.989.989 0 0 1-.081.216c-.026.051-.055.105-.087.16a1.505 1.505 0 0 1-.1.15l-.062.081c-.028.036-.055.07-.085.105l-.088.1-.08.081q-.053.055-.1.1t-.1.09l-.1.083-.1.084-.113.094-.139.107-.142.1c-.05.034-.1.067-.145.1s-.108.068-.173.1-.121.067-.176.095-.113.054-.176.081-.124.052-.19.077-.133.049-.2.07-.131.041-.208.063-.15.039-.226.057l-.2.046q-.108.026-.235.049t-.245.041q-.12.018-.261.035l-.244.028-.253.023q-.147.012-.259.018l-.238.012q-.134.005-.271 0h-.243l-.226-.007-.23-.009q-.125 0-.238-.012c-.081-.006-.167-.015-.259-.029l-.241-.039c-.081-.014-.163-.03-.25-.05l-.227-.053-.228-.058q-.121-.032-.232-.064t-.228-.07c-.077-.025-.156-.051-.233-.078l-.223-.079q-.109-.039-.216-.083t-.214-.09c-.074-.032-.144-.065-.205-.094l-.188-.094c-.06-.031-.119-.062-.181-.1s-.117-.067-.171-.1l-.158-.1-.149-.1-.146-.1-.125-.088-.108-.078-.1-.071c-.035-.026-.067-.051-.092-.072s-.061-.052-.088-.077l-.082-.068c-.039-.037-.072-.071-.107-.109a.887.887 0 0 1-.1-.148.425.425 0 0 1 .1-.574.358.358 0 0 1 .347-.074 1.353 1.353 0 0 1 .131.038l.054.016.047.011a.417.417 0 0 1 .3.429l.021.015.111.08.106.075.13.087.138.088.149.091c.05.03.1.06.147.086l.157.084.172.084q.082.04.18.083t.2.082c.062.025.125.049.191.073l.211.074.215.071q.107.034.209.064l.215.059.214.055.218.055c.073.016.144.03.21.042l.228.036q.107.016.2.022c.067 0 .139.008.216.011l.229.009.218.007h.464l.23-.011q.1-.005.24-.016l.233-.021.236-.027q.131-.016.239-.032t.219-.037c.073-.014.139-.028.2-.043l.206-.047c.066-.015.131-.032.193-.048s.124-.036.178-.054.106-.036.16-.057.111-.044.164-.067.1-.042.133-.061.089-.047.142-.077.1-.057.138-.083l.122-.081.124-.088.113-.087.1-.079.1-.087.1-.086.072-.063c.022-.02.046-.044.075-.073l.079-.079.052-.056c.015-.016.035-.043.056-.07l.056-.074c0-.007.02-.03.042-.068s.035-.06.049-.088a.438.438 0 0 1-.148-.567zm-8.967.619z" class="cls-3" transform="rotate(90 7.151 23.273)"/>
                    <path id="패스_1074" d="M18.721 26.957l-.033-.089c-.011-.029-.028-.065-.043-.1s-.036-.075-.058-.117l-.07-.128-.081-.138-.09-.148c-.03-.048-.065-.1-.1-.158s-.075-.111-.109-.16-.061-.085-.1-.139-.092-.114-.134-.164-.082-.1-.123-.142-.091-.1-.148-.159-.108-.112-.158-.16-.1-.1-.151-.145-.1-.095-.162-.144-.112-.094-.164-.136l-.176-.138-.181-.138-.189-.143-.175-.132-.2-.143-.191-.136-.178-.122c-.063-.043-.126-.085-.188-.125l-.186-.122-.16-.106c-.058-.037-.116-.075-.173-.114l-.143-.1-.136-.093-.133-.091-.121-.081-.1-.062-.106-.069-.085-.056-.074-.047-.102-.061-.087-.057-.034-.022a.422.422 0 0 1-.127-.558.367.367 0 0 1 .523-.136l.031.02.1.063.089.058.084.053.1.063.084.055.114.074.126.084.138.094.129.088.144.1c.052.036.1.07.16.105l.169.111.178.116c.068.044.135.089.2.134l.187.129.2.143.2.145.188.141.184.139.19.145.183.144c.06.048.122.1.185.153s.128.111.187.166.113.107.165.158.114.113.176.179.117.124.164.177.1.108.142.164.093.113.145.178.1.132.137.184.073.105.115.168l.116.178c.036.056.068.109.1.163s.063.106.089.153l.084.154c.029.054.052.1.073.146s.042.092.063.142.035.089.05.133.033.109.05.181a1.027 1.027 0 0 1 .028.257.65.65 0 0 1-.131.362.365.365 0 0 1-.534.073.424.424 0 0 1-.1-.51c-.022-.041-.03-.066-.036-.084z" class="cls-3" transform="rotate(90 16.606 24.727)"/>
                    <path id="패스_1075" d="M28.958 21.128c0-.027-.007-.065-.013-.112a.378.378 0 0 1 .318-.426.366.366 0 0 1 .37.191l-.006.041c0 .03 0 .03-.008.076v.048a.372.372 0 0 1-.406.338.366.366 0 0 1-.25-.142v-.009a.063.063 0 0 0 0 .013s-.004-.008-.005-.018zm-.077-.262v-.043l.011-.1.012-.084.018-.109.015-.088c.008-.048 0-.061 0-.109q0-.046-.009-.1t-.015-.094q-.012-.059-.027-.122l-.025-.095-.021-.065-.026-.076c0-.015-.011-.032-.019-.05s-.025-.058-.045-.1-.037-.078-.05-.1l-.041-.077c-.009-.017-.021-.036-.038-.063l-.054-.086-.047-.073-.052-.077-.048-.066-.059-.089-.039-.048-.066-.073-.056-.049-.037-.035-.1-.086-.083-.068-.051-.035c-.029-.018-.058-.038-.09-.06-.015-.011-.027-.019-.043-.028l-.062-.036-.065-.035-.082-.041c-.022-.011-.043-.02-.066-.029l-.083-.032-.082-.029c-.021-.007-.048-.015-.082-.023l-.093-.022-.089-.017-.1-.015-.1-.013-.087-.008h-.176l-.111.009-.109.009-.107.012-.107.015-.113.021-.1.023-.095.025c-.033.01-.067.021-.1.034l-.1.037-.092.041-.092.045-.1.056-.1.057-.1.065-.1.065L25 18.8l-.106.076-.109.079-.108.078-.106.078-.11.084-.094.071-.1.076-.093.074-.088.072-.073.062-.08.073-.06.057c-.011.012-.033.038-.063.077l-.064.086c-.008.011-.018.031-.022.038s-.018.043-.033.084a.716.716 0 0 0-.026.084l-.013.07a.35.35 0 0 0 0 .039v.067l.006.1c0 .053 0 .053.009.1 0 .03.007.064.012.1l.014.1c.005.035.011.065.019.1l.022.1.029.112.032.115q.013.046.033.106c.013.04.028.081.042.119l.045.117.045.108c.015.035.032.072.046.1l.05.106.048.1.051.1c.011.021.025.043.043.07l.062.1c.014.022.03.045.05.071l.056.072.068.079.087.1c.021.024.043.047.065.068l.1.094c.029.028.057.054.087.08l.1.082.107.087.1.077.109.076.115.076.1.063.1.054.1.055.086.045.1.046c.022.01.046.021.073.031l.1.038.08.028.1.028.091.023.091.016q.049.008.1.013a.53.53 0 0 0 .077 0l.111-.008.11-.009q.052 0 .11-.012c.036-.005.07-.011.1-.018l.11-.027.114-.033.1-.033.124-.046c.04-.015.073-.029.1-.041l.1-.047q.046-.022.092-.05l.1-.06.086-.057c.023-.016.046-.033.072-.054l.072-.059.064-.058q.025-.024.049-.051l.066-.076.055-.068.051-.071.054-.081.05-.079.05-.084.045-.078.043-.079.053-.1.038-.07.036-.072.037-.08.04-.095.038-.1.04-.114.049-.138.051-.138c.012-.029.022-.055.031-.082l.027-.078a.386.386 0 0 1-.089-.268zm.8.051c.007.057.013.1.016.143a.893.893 0 0 1 0 .158.7.7 0 0 1-.036.167l-.032.094c-.016.048-.028.078-.043.113s-.025.067-.041.111l-.047.133-.038.109c-.012.036-.029.08-.052.137s-.041.1-.058.134l-.039.084-.044.089c-.018.035-.036.069-.054.1l-.043.079-.05.091-.054.095-.058.1-.06.1-.064.1c-.025.036-.05.071-.077.106l-.078.1-.071.082c-.032.036-.064.071-.1.106s-.058.053-.091.081l-.094.077c-.031.025-.072.056-.112.084l-.1.068q-.059.038-.124.076c-.047.028-.094.053-.14.076l-.117.056c-.04.018-.086.038-.143.059l-.138.051c-.047.017-.093.032-.133.044l-.136.039-.141.035c-.041.01-.1.02-.155.028s-.1.013-.151.017l-.113.009-.125.009a1.248 1.248 0 0 1-.182 0q-.078-.007-.151-.018c-.047-.007-.09-.015-.13-.024s-.083-.019-.127-.031l-.129-.036c-.038-.011-.078-.026-.119-.041l-.106-.04q-.065-.025-.125-.053l-.1-.047-.116-.06-.106-.057-.113-.063q-.066-.038-.135-.083l-.128-.085-.123-.086c-.041-.03-.084-.062-.131-.1l-.123-.1-.1-.09q-.058-.05-.116-.107l-.1-.094c-.035-.035-.069-.07-.1-.109l-.084-.094-.087-.1c-.026-.031-.048-.06-.073-.093s-.061-.082-.088-.124l-.058-.09c-.027-.041-.052-.081-.075-.123l-.06-.114-.06-.121-.048-.1-.058-.128c-.02-.045-.036-.084-.053-.128l-.052-.134q-.027-.073-.051-.145l-.044-.138-.033-.12c-.014-.049-.026-.1-.037-.141s-.021-.093-.029-.136-.017-.089-.022-.126-.014-.088-.019-.13-.011-.087-.014-.127l-.01-.121c-.005-.063 0-.055-.006-.1s0-.087 0-.137a1.105 1.105 0 0 1 .012-.136c.006-.042.014-.085.023-.124A1.416 1.416 0 0 1 23 19.7c.023-.062.042-.11.062-.154a1.242 1.242 0 0 1 .07-.123c.024-.037.057-.082.1-.137a1.638 1.638 0 0 1 .123-.145q.041-.042.087-.084l.09-.082c.033-.029.065-.056.1-.081l.09-.074.106-.084.1-.079.1-.072.112-.085.121-.09.1-.074.111-.081.112-.08.115-.08.114-.074.118-.074.122-.071.13-.069.108-.053.12-.054c.047-.02.094-.038.139-.053l.144-.047.119-.032c.039-.01.083-.02.134-.03l.148-.027.124-.017.127-.014.122-.011.113-.009q.068-.005.138-.006h.14l.124.012.118.015.118.018.119.023.121.029c.047.012.089.024.128.036l.11.038.1.039c.038.015.076.032.113.05l.09.044.1.051.079.046c.031.018.064.039.094.061l.057.038q.046.03.094.065c.033.025.074.057.125.1l.1.086q.043.037.082.077c.024.024.049.05.077.081l.065.072c.029.032.056.066.08.1l.062.081c.025.032.047.064.066.09l.059.087c.024.035.046.07.063.1l.052.084.061.1.042.078c.021.038.044.085.071.144s.043.1.057.128.028.071.038.1l.024.072q.017.048.032.1l.034.127c.014.053.025.106.035.158s.02.112.025.166.009.089.011.129c0 .058 0 .058.006.114a.834.834 0 0 1-.011.178l-.019.11c0 .021-.008.041-.011.066v.033a.387.387 0 0 1 .027.137z" class="cls-3" transform="rotate(90 26.303 20.849)"/>
                    <path id="패스_1076" d="M38.51 12.981l.011-.039q.018-.066.04-.131l.032-.1.029-.1c.014-.05.017-.066.019-.077s0-.031 0-.039a.366.366 0 0 0 0-.045c0-.037 0-.037-.006-.086s0-.041-.006-.08a.448.448 0 0 0-.006-.045l-.019-.094a.433.433 0 0 0-.013-.052l-.025-.075-.027-.07c-.011-.027-.022-.051-.034-.074l-.033-.06-.046-.073-.047-.068-.051-.066-.055-.063-.06-.063-.074-.077-.061-.062-.078-.067-.057-.055-.074-.069-.073-.066-.067-.058-.07-.058-.066-.051-.072-.053-.07-.048-.067-.041-.076-.042-.081-.041-.087-.04-.08-.033-.1-.038-.1-.032-.087-.026-.09-.021-.087-.015-.086-.009H36.342l-.107.008-.127.011-.108.012-.1.012-.121.019-.127.021-.117.023-.131.029-.12.029-.119.036-.126.044c-.041.015-.082.031-.122.048l-.124.054-.119.057c-.038.019-.073.039-.1.057l-.116.072c-.039.025-.076.05-.112.076s-.068.05-.1.077l-.1.083c-.031.026-.061.056-.092.086l-.1.1c-.029.031-.056.061-.077.086l-.093.116c-.03.037-.054.07-.073.1s-.039.059-.058.091l-.067.116c-.023.041-.039.074-.055.108s-.025.057-.035.086l-.037.11c-.012.036-.023.08-.034.125s-.019.079-.025.114l-.021.124c-.007.043-.01.08-.013.122a.778.778 0 0 0 0 .1c0 .043 0 .088.007.136s.007.095.01.139.008.083.013.126.011.08.02.127.019.092.027.125l.03.114c.009.034.024.079.038.12s.026.075.043.117l.052.125.048.109c.016.035.038.076.059.115l.064.114c.021.036.043.07.064.1s.035.054.06.089.05.07.075.1l.083.108c.024.03.048.059.072.085l.089.095q.036.039.075.076t.084.077c.029.026.054.046.079.066l.081.062q.044.033.081.058c.025.017.052.034.084.052l.087.051.084.046c.035.018.067.033.094.044l.11.047.106.042.125.044.124.04.13.037.147.037c.038.009.078.017.124.024l.131.02a.621.621 0 0 0 .088 0l.118-.006.131-.011c.036 0 .071-.007.1-.012a.634.634 0 0 0 .085-.019q.06-.017.1-.033a.838.838 0 0 0 .079-.033q.041-.019.085-.045c.031-.018.064-.039.1-.063s.06-.042.093-.069.06-.048.092-.077.059-.053.087-.081l.1-.1.1-.1c.028-.03.057-.062.087-.1s.056-.066.084-.1l.087-.108.085-.109c.025-.032.048-.064.069-.095l.068-.1.063-.1q.036-.056.06-.1l.053-.092q.025-.044.045-.083l.064-.127.064-.128.047-.092.048-.093.056-.113.045-.092a.4.4 0 0 1 .161-.436zm.535.729l-.038.073-.044.09L38.9 14l-.056.108-.038.074-.064.127-.067.131-.058.108-.06.105-.075.123-.074.113-.074.111c-.029.043-.061.086-.092.127l-.095.122-.09.112c-.032.04-.066.081-.1.12s-.071.081-.1.117l-.106.113-.109.111c-.04.04-.082.079-.124.115s-.084.072-.119.1-.091.071-.14.1-.093.061-.138.088-.1.053-.14.075a1.558 1.558 0 0 1-.145.061c-.046.016-.1.032-.149.048a1.343 1.343 0 0 1-.18.04q-.074.011-.152.017l-.133.011c-.047 0-.1.006-.155.008a1.349 1.349 0 0 1-.2-.01l-.157-.023c-.051-.008-.117-.021-.172-.034l-.162-.04q-.093-.024-.165-.046l-.143-.047-.137-.048q-.07-.026-.142-.056l-.119-.051c-.04-.017-.082-.038-.134-.063s-.083-.044-.116-.063l-.1-.058q-.06-.036-.115-.072c-.037-.025-.075-.052-.114-.081l-.1-.074c-.027-.019-.07-.057-.111-.093l-.11-.1c-.034-.031-.066-.065-.1-.1l-.094-.1c-.039-.043-.077-.087-.113-.133l-.09-.117-.09-.123c-.029-.041-.061-.089-.083-.123l-.076-.123c-.028-.046-.054-.093-.079-.139s-.052-.1-.078-.152-.044-.1-.062-.139-.039-.093-.059-.142-.043-.11-.061-.165l-.046-.148c-.015-.048-.026-.093-.038-.144s-.024-.106-.036-.168-.022-.125-.029-.182-.012-.1-.016-.156l-.011-.152-.008-.152a1.571 1.571 0 0 1 0-.2c0-.061.011-.12.02-.18s.016-.1.026-.154.022-.109.037-.165.029-.109.045-.163.031-.1.048-.143.04-.105.063-.153.049-.1.08-.158.054-.1.08-.14.057-.092.086-.135.065-.09.1-.14l.1-.128c.035-.042.072-.083.115-.129l.109-.111c.041-.041.082-.08.126-.119s.085-.072.13-.108.092-.071.136-.1.091-.063.142-.1l.132-.081c.047-.028.1-.055.152-.083s.1-.048.145-.069l.145-.063c.052-.022.1-.042.155-.06s.1-.037.151-.053l.15-.045c.05-.015.1-.026.149-.037l.144-.032.143-.028.135-.022.139-.021.126-.015.135-.012.127-.011.1-.008q.075-.007.15-.007c.049 0 .1 0 .136.005s.085.008.128.014.088.014.136.024l.123.029.119.035.135.046.107.041.112.046.106.049.109.055.095.052c.031.018.064.038.1.063l.1.067.086.063c.03.022.061.047.091.071l.08.066.08.07.085.078.073.068.076.073.067.065q.043.041.083.083l.069.071.077.081c.026.028.052.058.081.092s.051.064.078.1.046.064.071.1.031.048.063.1q.032.054.062.113t.057.125c.018.042.033.082.045.119l.029.087a1.177 1.177 0 0 1 .036.138l.021.1a1.251 1.251 0 0 1 .018.127c0 .053 0 .053.008.1s0 .051.006.092a1.157 1.157 0 0 1 0 .141q0 .063-.015.126a1.541 1.541 0 0 1-.038.159l-.04.137-.032.1q-.016.048-.029.1l-.02.076-.009.044a.393.393 0 0 1-.1.189.561.561 0 0 1-.042.235z" class="cls-3" transform="rotate(90 36 13.091)"/>
                    <path id="패스_1077" d="M26.626 37.573l-.064.006-.111.009-.089.006-.084.006-.1.006c-.039 0-.079 0-.125.006h-1.819l-.141.008-.166.012-.159.011-.148.011-.16.014-.154.013-.144.016-.081.01-.08.01-.145.019c-.055.008-.112.015-.165.02l-.159.016-.141.011-.127.009-.129.009-.117.008q-.065.005-.134.007H21.55c-.042 0-.093 0-.154-.009l-.166-.015-.131-.016-.082-.009-.1-.011a.5.5 0 0 1-.394-.286.357.357 0 0 1 .19-.489.422.422 0 0 1 .434.059l.065.008.109.013.142.013.118.007h.373l.117-.008.128-.009.13-.009.126-.01.144-.014.133-.016.162-.022.161-.02.173-.019.154-.013.162-.014.162-.012.157-.011.169-.012.169-.009h1.916l.088-.006.086-.006.1-.007h.052v-.049c0-.046 0-.046.008-.086s0-.045.005-.089 0-.041 0-.08v-.188-.122a.386.386 0 0 1 .41-.356.381.381 0 0 1 .384.38v.389c0 .05 0 .05-.006.1s0 .051-.009.1 0 .045-.008.089-.007.068-.011.1a.255.255 0 0 0 0 .037.53.53 0 0 1-.041.23.446.446 0 0 1-.534.248s-.005.005-.015.006zm.185-.723c.021 0 .041.009.06.014l-.045-.009z" class="cls-3" transform="rotate(90 23.878 36.849)"/>
                    <path id="패스_1078" d="M28.636 37.522a.426.426 0 0 1-.529-.091.443.443 0 0 1-.1-.227.371.371 0 0 1 .32-.424.409.409 0 0 1 .139 0h.017a1.143 1.143 0 0 1 .163-.03l.146-.013.124-.009.111-.006H29.926l.117-.007.126-.009.128-.009.134-.01.129-.009.135-.01.139-.01.136-.01.122-.009.132-.009.13-.01.121-.009.12-.009.111-.008.109-.008.1-.008.092-.006.088-.006.093-.007.079-.005.118-.009.124-.011.1-.011.076-.011.071-.012.069-.013q0-.039.007-.078l.015-.107.013-.087.012-.1.012-.1.014-.1q.008-.053.019-.1c.007-.033.017-.07.027-.106l.029-.1.027-.086a.708.708 0 0 1 .066-.151l.02-.033a.4.4 0 0 1 .53-.139.359.359 0 0 1 .147.5l-.016.027-.012.039-.013.043c-.011.034-.011.034-.023.079l-.017.064-.01.054-.012.087-.012.094-.006.048-.007.054-.015.1-.012.086a.3.3 0 0 0 0 .046v.194a.436.436 0 0 1-.226.362.7.7 0 0 1-.188.072l-.111.022-.083.02-.086.016-.087.015c-.038.007-.079.013-.116.017l-.122.013-.143.012-.117.009-.077.005-.1.007-.09.006-.089.006-.108.008-.107.008-.106.007-.128.01-.115.008-.135.01-.127.009-.126.009-.138.01-.136.01-.136.01-.127.009-.136.01-.129.009-.124.009-.134.008H28.97l-.121.009-.116.01h-.031zm4.38-1.084z" class="cls-3" transform="rotate(90 30.909 36.364)"/>
                    <path id="패스_1079" d="M37.5 30.4l-.063.013-.081.02-.084.023q-.062.02-.133.039l-.1.028-.07.019-.094.027-.1.027-.1.024-.118.028-.118.028-.124.026-.131.026-.134.026c-.053.011-.107.02-.162.028s-.113.014-.175.02l-.16.013-.164.014-.186.016-.185.014-.17.01q-.1.006-.205.008H32.851a.925.925 0 0 0-.094 0l-.109.01a.538.538 0 0 1-.358-.109.433.433 0 0 1-.117-.564.355.355 0 0 1 .482-.148h.043a1.541 1.541 0 0 1 .164 0H34.625c.063 0 .123 0 .184-.008l.164-.009.17-.013.187-.016.17-.02.161-.013c.05 0 .1-.009.137-.015s.083-.013.123-.021l.143-.027.125-.025.1-.021.124-.029.1-.024.1-.025.085-.022.084-.024.076-.021.106-.029.11-.032.119-.033.085-.021.093-.02a.933.933 0 0 1 .116-.016.6.6 0 0 1 .179.012.682.682 0 0 1 .144.049.873.873 0 0 1 .111.021.471.471 0 0 1 .284.218 1.2 1.2 0 0 1 .066.128l.031.07.044.09.05.1.052.1c.018.035.03.052.05.083l.059.091c.015.022.03.043.047.063l.055.069.047.054.044.046.033.032a.437.437 0 0 1 .03.577.35.35 0 0 1-.526.033l-.033-.032c-.027-.027-.052-.052-.079-.082l-.068-.078-.066-.082c-.028-.036-.056-.073-.086-.117l-.066-.1c-.03-.047-.058-.092-.082-.136l-.064-.12-.056-.111-.045-.092-.012-.027a.62.62 0 0 1-.106-.039zm.24.055z" class="cls-3" transform="rotate(90 35.516 30.546)"/>
                    <path id="패스_1080" d="M43.122 29.236h-.007zm.036.058c-.045.011-.089.02-.132.027l-.107.016-.139.019-.127.016-.079.01-.108.014-.108.012-.111.013-.119.014-.128.014-.136.014-.143.012-.15.013-.14.012-.146.013-.153.013-.151.013-.159.014-.16.014-.164.014-.168.015-.178.016-.152.014-.161.014-.163.014-.148.014-.119.01-.121.011-.111.009-.1.009-.089.008-.1.011-.092.012a.881.881 0 0 1-.165.012c-.284-.01-.418-.243-.441-.5a.441.441 0 0 1 .358-.495.364.364 0 0 1 .264.076l.113-.012.094-.008.1-.009.115-.01.117-.01.123-.011.146-.013.163-.014.159-.014.16-.014.176-.016.172-.015.158-.014.164-.014.156-.014.152-.013.153-.013.144-.013.142-.012.152-.013.137-.012.122-.012.122-.013.118-.014.114-.014.108-.012.088-.011.095-.012.12-.016.127-.018.1-.015.059-.012.082-.023a.629.629 0 0 1 .178-.026.5.5 0 0 1 .278.086l.1.07a1.081 1.081 0 0 1 .127.113q.046.047.084.092l.082.1.077.1.074.1.073.1.081.123.059.1.062.1.06.1.028.048a.489.489 0 0 1-.115.626.373.373 0 0 1-.553-.131l-.028-.048-.048-.081-.057-.091-.063-.1c-.016-.025-.034-.054-.054-.082l-.073-.106-.061-.086-.068-.09c-.017-.023-.033-.043-.047-.059l-.053-.058-.013-.013z" class="cls-3" transform="rotate(90 41.334 29.334)"/>
                    <path id="패스_1081" d="M26.045 29.45l-.062.066c-.027.029-.059.059-.094.091s-.071.062-.107.091l-.1.079-.073.056-.084.062-.083.057-.091.06-.085.054-.114.069-.107.062-.105.061c-.044.026-.089.051-.129.072l-.127.071-.131.072-.116.064-.138.075-.118.062-.127.069-.13.07-.127.068-.146.077-.145.074-.134.069-.151.075-.143.065c-.054.024-.1.044-.138.059l-.11.044c-.049.02-.1.037-.131.049s-.081.028-.116.038-.087.026-.129.036-.08.018-.118.024-.092.013-.156.018l-.134.008a1 1 0 0 1-.189-.011.642.642 0 0 1-.245-.09.6.6 0 0 1-.182-.178.952.952 0 0 1-.08-.142c-.017-.038-.033-.078-.05-.123l-.042-.118c-.018-.048-.031-.087-.039-.111l-.027-.077-.028-.08-.028-.078-.034-.094-.034-.09-.043-.119-.037-.111-.034-.1-.049-.134-.043-.122-.045-.127c-.01-.031-.023-.066-.039-.106s-.035-.1-.051-.142l-.045-.125-.046-.127-.046-.128c-.013-.037-.026-.069-.039-.1l-.044-.111c-.015-.038-.03-.071-.043-.1l-.048-.107-.048-.108q-.018-.041-.04-.084l-.052-.1-.044-.084-.042-.09-.053-.091-.042-.071-.059-.1-.075-.127-.061-.1c-.02-.032-.037-.056-.052-.078s-.023-.032-.036-.047l-.049-.058-.068-.077s-.019-.018-.048-.042a.35.35 0 0 1-.028-.521.419.419 0 0 1 .561-.026 1.168 1.168 0 0 1 .133.127l.061.069.064.075q.038.044.074.1l.068.1c.023.035.051.08.078.126l.074.126.058.1.049.083.049.084.06.106.051.1.049.095q.033.063.061.126l.046.1.047.1c.018.038.036.081.057.132l.044.111c.016.039.032.081.048.126l.047.13.043.12.05.139.044.124.046.128.041.115.045.127.045.123c.018.049.033.092.043.125l.034.1.034.094.04.106.03.083.035.1.028.08.029.084.034.1.042.118.015.038h.05c.037 0 .063-.006.077-.008l.062-.013c.021-.005.045-.012.076-.022l.089-.029c.025-.008.055-.02.093-.035l.114-.045.1-.044.129-.059.123-.061.146-.075.133-.067.136-.072.133-.071.121-.065.129-.07.128-.067.119-.064.126-.069.12-.066.136-.076.111-.062.106-.061.106-.061.089-.053.075-.048.074-.049.074-.051.062-.045.064-.049.083-.067.082-.069c.022-.019.039-.036.048-.045l.056-.06.029-.032.025-.052a.6.6 0 0 1 .207-.144l.037-.015a.409.409 0 0 1 .523.19.358.358 0 0 1-.192.48z" class="cls-3" transform="rotate(90 22.909 29.091)"/>
                    <path id="패스_1082" d="M27.146 22.286a.383.383 0 0 1-.357-.406v-.045a.464.464 0 0 1 .226-.383.6.6 0 0 1 .177-.072.963.963 0 0 1 .151-.023l.094-.008.076-.006.1-.007h.367l.151.011c.057.005.111.011.158.018s.105.015.164.026.124.022.188.035l.182.04.2.049c.072.018.145.038.215.059l.2.059.216.067.218.07.2.068.2.067.2.07.188.067.168.06.182.065.171.066.151.065q.078.035.149.071a1.626 1.626 0 0 1 .157.09c.043.028.088.06.133.094s.091.071.124.1.07.066.11.107.072.078.1.115.064.078.1.121.056.078.078.111.047.073.076.122.051.093.071.135.036.077.052.115a1.315 1.315 0 0 1 .054.148 1.076 1.076 0 0 1 .039.183c.006.045.01.089.014.137s0 .084.006.123 0 .091 0 .14v.123q0 .067-.008.131c0 .044-.008.09-.015.136l-.015.114q-.008.06-.019.123l-.021.12c-.011.061-.011.056-.024.118q-.016.071-.036.137c-.012.039-.028.089-.05.152a1.471 1.471 0 0 1-.1.214 1.262 1.262 0 0 1-.09.144c-.022.03-.05.065-.086.106a1.367 1.367 0 0 1-.122.126 1.01 1.01 0 0 1-.134.1.774.774 0 0 1-.167.076c-.036.011-.083.024-.142.039a.376.376 0 0 1-.455-.284.388.388 0 0 1 .276-.469l.1-.027a.177.177 0 0 0 .029-.022.613.613 0 0 0 .052-.054l.053-.065c.012-.016.015-.024.033-.055a.672.672 0 0 0 .043-.1c.018-.051.031-.09.039-.118l.019-.071.02-.1.018-.1c.006-.034.011-.067.014-.094l.015-.119q.007-.048.01-.092t.006-.1v-.1-.1-.1c0-.028-.006-.063-.01-.1a.293.293 0 0 0-.011-.051.543.543 0 0 0-.017-.048c-.013-.029-.026-.059-.042-.091l-.04-.077c-.014-.026-.037-.061-.053-.085l-.055-.078c-.022-.03-.042-.055-.063-.08s-.046-.052-.073-.081-.049-.05-.071-.069-.04-.034-.07-.057-.065-.048-.093-.066a.873.873 0 0 0-.084-.048l-.117-.056-.132-.057-.148-.057-.167-.06-.178-.063-.182-.065-.192-.066-.2-.068-.193-.064-.216-.069-.206-.064-.188-.055-.194-.053-.182-.044-.169-.037c-.054-.011-.107-.021-.162-.03l-.143-.022c-.037-.005-.077-.01-.121-.014l-.124-.009H27.653l-.081.005-.076.006h-.026a.372.372 0 0 1-.324.16z" class="cls-3" transform="rotate(90 29.697 23.758)"/>
                    <path id="패스_1083" d="M28.158 18.626zm.195-.148l.058-.052.062-.056.07-.065c.029-.027.06-.055.1-.087l.095-.079.117-.092.107-.078.122-.085.124-.084.136-.091.142-.094.154-.1.151-.1.166-.11.168-.113.17-.115.169-.119.174-.126.169-.127c.054-.041.1-.081.158-.127s.108-.092.158-.137l.158-.146.165-.157.172-.166.149-.15.159-.167.16-.174.165-.177.187-.2.173-.176.168-.169.161-.159.162-.157.156-.15c.055-.052.11-.1.165-.151l.148-.128.131-.112.129-.109q.066-.055.113-.1l.1-.094.091-.088c.028-.028.058-.06.086-.091l.071-.079.065-.076.059-.071.062-.077.052-.066c.021-.027.049-.06.086-.1s.071-.079.107-.114a.486.486 0 0 0 .035-.05.421.421 0 0 1 .559-.13.373.373 0 0 1 .138.528 1.043 1.043 0 0 1-.143.183c-.021.021-.044.046-.069.074l-.059.07-.06.076-.06.074-.07.083-.073.086c-.026.03-.055.063-.085.1s-.067.072-.106.112-.075.074-.112.109l-.113.1q-.059.053-.135.117l-.129.108-.125.106-.141.123c-.047.041-.094.085-.142.13l-.155.149c-.049.046-.1.095-.154.149l-.157.155-.163.164-.171.174c-.053.055-.111.115-.174.183l-.162.174-.166.18-.168.177q-.076.079-.167.167l-.174.168-.171.164-.167.16q-.088.079-.182.157c-.064.053-.125.1-.184.147s-.118.09-.185.139l-.18.129-.185.13-.173.117-.171.115-.173.115-.156.1-.143.093-.148.1-.126.084-.127.085-.1.069-.1.071-.086.067-.084.071-.066.06-.079.074-.065.058-.068.061-.092.079c-.045.037-.089.071-.128.1a1.185 1.185 0 0 1-.122.075.8.8 0 0 1-.154.064.791.791 0 0 1-.179.035.422.422 0 0 1-.47-.47l.006-.043a.4.4 0 0 1 .453-.336l.048.008z" class="cls-3" transform="rotate(90 31.636 16)"/>
                    <path id="패스_1084" d="M44.746 13.9l-.064-.062c-.019-.018-.038-.035-.06-.053l-.074-.06-.073-.055-.077-.053-.091-.056-.1-.059q-.044-.025-.1-.052t-.114-.053l-.132-.057c-.039-.017-.082-.034-.133-.054s-.1-.037-.153-.056-.106-.035-.165-.052l-.175-.05c-.054-.015-.119-.03-.195-.047l-.212-.046q-.086-.018-.193-.036t-.224-.034c-.075-.01-.147-.019-.219-.026s-.138-.014-.21-.019-.143-.01-.228-.013l-.224-.007h-.2c-.073 0-.149 0-.22.007l-.233.014-.216.015-.217.018c-.075.007-.138.015-.19.024s-.118.022-.184.037l-.205.047c-.066.016-.127.032-.18.048s-.113.035-.165.053l-.175.065c-.058.022-.113.044-.168.068l-.17.073-.169.077-.17.082-.168.072-.168.08-.19.088-.158.07-.169.072-.161.067-.156.065-.164.067q-.093.038-.165.065l-.128.049-.148.059-.126.051-.117.049-.115.051-.105.05-.1.048-.109.058-.087.048-.086.05-.091.053-.076.046-.081.05-.078.051-.071.047-.079.066-.1.077-.09.079c-.023.021-.043.04-.056.054a.574.574 0 0 0-.038.044l-.006.012-.021.042a.378.378 0 0 1-.513.165.389.389 0 0 1-.163-.52l.019-.037a.8.8 0 0 1 .084-.136 1.32 1.32 0 0 1 .086-.1c.031-.033.065-.066.105-.1l.1-.089c.04-.034.083-.069.134-.108l.113-.081.083-.056.094-.061.085-.053.093-.056.086-.05.1-.057q.054-.031.113-.062l.108-.057.11-.056.129-.061.13-.058.119-.05.145-.059.142-.057.149-.057c.038-.014.084-.032.141-.056l.161-.066.154-.064.163-.068.151-.064.159-.07.171-.079.164-.078.16-.078.176-.085.186-.085.183-.079q.09-.039.19-.077l.2-.072c.065-.022.131-.044.2-.064s.138-.039.216-.058l.219-.05q.115-.026.219-.044c.074-.013.158-.023.252-.032l.224-.019.226-.016.245-.015c.079 0 .162-.007.251-.008h.229l.233.008c.092 0 .178.009.254.015s.156.013.231.021l.243.029c.084.011.165.024.245.037s.157.028.226.043l.216.047c.086.019.162.037.23.055l.189.054c.069.02.136.041.2.063s.126.044.182.066.111.044.159.065l.133.058q.076.033.149.069c.049.025.1.049.134.071l.115.066c.04.024.079.047.121.074l.1.068q.05.035.107.08l.093.076q.045.038.09.079l.084.081c.031.031.066.07.106.117s.082.1.115.142a1.458 1.458 0 0 1 .1.153.69.69 0 0 1 .082.212.625.625 0 0 1 0 .259.4.4 0 0 1-.579.3.693.693 0 0 1-.218-.176.39.39 0 0 1-.078-.388c-.035-.036-.056-.059-.068-.069z" class="cls-3" transform="rotate(90 40.121 13.818)"/>
                </g>
            </g>
        </g>
    </g>
</svg>
