<svg xmlns="http://www.w3.org/2000/svg" width="30.009" height="36" viewBox="0 0 30.009 36">
    <path fill="#184c5f" d="M35.878 6.075c-.291.047-.6.094-.928.131a55.263 55.263 0 0 1-5.681.487 34.5 34.5 0 0 1-7.332-1.143 35.907 35.907 0 0 0-7.556-1.05c-5.269 0-7.059 1.134-7.247 1.256l-.384.272V39.15a1.338 1.338 0 0 0 1.15 1.341 1.312 1.312 0 0 0 1.472-1.3V24.712a.762.762 0 0 1 .6-.741 22.749 22.749 0 0 1 4.406-.366c2.456 0 4.753.938 7.181 1.453a33.053 33.053 0 0 0 7.819 1.078 44.447 44.447 0 0 0 6.731-.619.755.755 0 0 0 .647-.741V6.816a.763.763 0 0 0-.878-.741z" transform="translate(-6.75 -4.5)"/>
</svg>
