<svg xmlns="http://www.w3.org/2000/svg" width="21.808" height="24" viewBox="0 0 21.808 24">
    <defs>
        <style>
            .cls-1{fill:#707070}
        </style>
    </defs>
    <g id="noun_Settings_943929" transform="translate(-11.2 -7.3)">
        <path id="패스_1278" d="M31.965 39.64H29.83a3.825 3.825 0 0 0-3.569-3.04 3.917 3.917 0 0 0-3.6 3.04H12.24a1.167 1.167 0 0 0 0 2.319h10.424A3.825 3.825 0 0 0 26.233 45a3.825 3.825 0 0 0 3.567-3.04h2.136a1.1 1.1 0 0 0 1.04-1.16 1.063 1.063 0 0 0-1.011-1.16zm-5.7 3.04a1.8 1.8 0 0 1-1.69-1.88 1.7 1.7 0 1 1 3.372 0 1.8 1.8 0 0 1-1.686 1.88z" class="cls-1" transform="translate(0 -21.5)"/>
        <path id="패스_1279" d="M12.24 12.66h2.22a3.825 3.825 0 0 0 3.569 3.04 3.825 3.825 0 0 0 3.571-3.04h10.37a1.1 1.1 0 0 0 1.04-1.16 1.084 1.084 0 0 0-1.04-1.16H21.6a3.825 3.825 0 0 0-3.571-3.04 3.825 3.825 0 0 0-3.569 3.04h-2.22a1.1 1.1 0 0 0-1.04 1.16 1.084 1.084 0 0 0 1.04 1.16zm5.789-3.04a1.8 1.8 0 0 1 1.686 1.88 1.759 1.759 0 0 1-1.686 1.881 1.8 1.8 0 0 1-1.686-1.881 1.837 1.837 0 0 1 1.686-1.881z" class="cls-1"/>
        <path id="패스_1280" d="M31.968 68.94H21.6a3.825 3.825 0 0 0-3.569-3.04 3.825 3.825 0 0 0-3.569 3.04H12.24a1.1 1.1 0 0 0-1.04 1.16 1.084 1.084 0 0 0 1.04 1.16h2.22a3.825 3.825 0 0 0 3.569 3.04 3.825 3.825 0 0 0 3.571-3.04h10.37a1.1 1.1 0 0 0 1.04-1.16 1.084 1.084 0 0 0-1.042-1.16zm-13.939 3.04a1.8 1.8 0 0 1-1.686-1.88 1.7 1.7 0 1 1 3.372 0 1.8 1.8 0 0 1-1.686 1.88z" class="cls-1" transform="translate(0 -43)"/>
    </g>
</svg>
