<svg xmlns="http://www.w3.org/2000/svg" width="48" height="32" viewBox="0 0 48 32">
    <defs>
        <clipPath id="clip-path">
            <path id="Frame" fill="none" d="M0 0H48V32H0z" transform="translate(3508 7058)"/>
        </clipPath>
        <style>
            .cls-3{fill:#184c5f}
        </style>
    </defs>
    <g id="Glyph" transform="translate(-3508 -7058)">
        <g id="마스크_그룹_4" clip-path="url(#clip-path)">
            <g id="noun_Person_excited_writing_1562024" transform="translate(3514.77 7056.593)">
                <g id="그룹_1631">
                    <path id="패스_1091" d="M14.133 25.455l.014.018h.011a.063.063 0 0 1-.025-.018zm0 0zm.077-.069h.009-.009zm-.088-.137l.224-.076-.018-.049-.01-.03a.363.363 0 0 1-.031-.083c0-.02 0-.02-.007-.039a.33.33 0 0 1 0-.049v-.143a.314.314 0 0 1 0-.047v-.027-.027a.3.3 0 0 1 .009-.048l.011-.055.007-.029v-.579-.058-.037-.063c0-.021 0-.029.006-.059l.007-.057.008-.057c0-.027 0-.027.007-.055s.006-.045.011-.07.006-.036.008-.053l.009-.072.009-.064.008-.066c0-.038 0-.038.007-.075s0-.037.008-.075q0-.034.006-.067v-.077V22.406v-.094-.086-.1c0-.033 0-.061.006-.091s0-.066.006-.1 0-.061.005-.09 0-.071.008-.106l.011-.1.009-.095.01-.1.009-.092.006-.1v-.642-.1-.114-.1-.11-.115-.1q0-.048-.005-.112t-.006-.119q0-.051-.006-.1c0-.052 0-.052-.007-.109 0-.038 0-.076-.008-.112s-.006-.074-.008-.106c0-.05 0-.05-.007-.1q0-.049-.009-.1t.007-.113q0-.047-.005-.1c0-.05 0-.05-.008-.1s-.005-.071-.007-.1 0-.069 0-.106v-.884-.077-.067a.656.656 0 0 1 .005-.087q0-.031.005-.057v-.064c0-.034 0-.051.006-.073l.006-.058v-.054c0-.027 0-.042.006-.063s0-.029 0-.044v-.049-.053-.032-.049-.167H14.039l-.051.005-.067.006-.058.005-.067.007-.074.009-.085.009-.07.009-.087.01-.089.009-.095.011-.1.011-.1.013-.109.014-.113.011-.117.013-.112.015-.128.017-.135.017-.122.015-.117.016-.133.02-.096.042-.117.015-.12.015-.117.017-.122.02-.132.021-.113.018-.124.019-.124.017-.117.015-.111.015-.124.017-.126.017-.122.016-.132.018-.139.019-.135.018-.139.023-.136.02q-.07.012-.147.021c-.047.006-.092.012-.135.02l-.143.023-.139.016-.144.022-.146.023-.143.019-.142.018-.145.019-.142.017-.139.019-.144.021-.156.022-.16.024-.139.024-.137.026-.143.028-.124.027-.115.028-.128.03-.12.031-.111.03c-.031.008-.067.019-.109.033L6.4 17.9l-.115.034-.111.035L6.06 18l-.1.035-.113.039-.1.036-.1.039-.111.043-.1.042-.1.047-.1.046-.088.044-.1.051c-.035.018-.066.035-.093.051l-.088.054-.085.056-.08.058-.092.059q-.037.026-.077.058t-.074.063l-.079.071-.071.064-.073.068-.07.067-.066.067-.069.072-.061.07-.063.068-.063.068-.055.063q-.028.034-.06.069l-.059.068a.543.543 0 0 0-.046.061c-.017.026-.033.05-.049.071s-.026.037-.041.061-.027.044-.037.064l-.033.067-.033.073-.031.067a.474.474 0 0 0-.02.055c-.006.019-.011.042-.017.066a.333.333 0 0 0-.009.055v.546l.008.066q0 .033.009.061c0 .019.007.039.012.06l.014.069.012.055.015.054.019.062c.007.024.014.046.018.066a.339.339 0 0 0 .015.045l.024.061.023.054.027.054.032.056.037.063.04.063.044.063.049.06.063.075c.018.023.039.045.06.068l.073.077q.032.035.07.071l.077.072.083.074.09.078c.026.023.055.046.086.07l.088.07.092.071.1.072.094.069.106.078.1.071.1.067.095.064.109.074.1.066.109.068.1.063.1.059.114.06.112.057.127.062.062.03.062.03.119.055.116.052.12.053.132.056.134.056.146.059.157.061.159.058q.07.027.165.06l.169.061.162.057q.095.032.176.063l.163.059.155.055.16.056.176.06.161.053.175.056q.092.03.173.053l.174.05.189.054.183.052.188.05.192.051.2.05.194.051c.06.016.125.032.194.048s.136.031.205.044l.2.041q.1.02.209.038l.222.038.208.033.2.03.192.026.185.02.185.018.163.017.151.013.139.012.138.009.13.008.121.007.116.005h.731a.112.112 0 0 1 .075-.145z" class="cls-3" transform="rotate(90 8.928 21.099)"/>
                    <path id="패스_1092" d="M13.536 10.547zm-.022-.009a.218.218 0 0 1-.054-.274l-.006-.033c0-.025 0-.025-.01-.05l-.013-.057a.219.219 0 0 0-.01-.031l-.017-.039L13.38 10l-.021-.043-.029-.057-.023-.049-.029-.063-.026-.062-.025-.068-.018-.051-.02-.058c0-.012-.009-.024-.013-.034l-.025-.057-.021-.046c-.008-.018-.014-.029-.021-.041l-.025-.041-.038-.056-.039-.055c-.012-.017-.026-.034-.042-.053l-.052-.062-.054-.066-.056-.07-.045-.056-.058-.064-.049-.064-.041-.054-.043-.053-.043-.047-.04-.039-.037-.034-.047-.043-.057-.05-.032-.026-.055-.045-.035-.029-.031-.023a.749.749 0 0 1-.063-.049l-.027-.018-.053-.039-.038-.035-.02-.013q-.032-.018-.06-.038l-.035-.022-.053-.027-.034-.02-.044-.022-.069-.034-.053-.027-.062-.031-.056-.027-.054-.023-.069-.034-.067-.031-.058-.026-.06-.026-.05-.021-.075-.031-.043-.018-.063-.023-.038-.012-.082-.025-.049-.016-.06-.019-.04-.011-.079-.02-.047-.012-.065-.015-.047-.009-.077-.014-.06-.013-.054-.008c-.029 0-.06-.007-.094-.014l-.049-.008-.08-.01L10 7.493l-.074-.007h-.921l-.081.007-.071.007-.078.008-.047.007-.084.014-.057.01-.068.015-.059.015-.075.031-.063.019-.073.025-.074.026-.058.03-.068.032-.066.031-.073.037-.065.034-.064.038-.07.043-.062.039L7.575 8l-.06.042-.062.046c-.02.015-.039.03-.056.045l-.063.058-.06.056-.045.046-.053.061-.052.065-.046.062-.05.074-.041.064-.046.081-.049.085q-.019.032-.039.07l-.038.077-.039.085-.041.091-.035.08q-.018.042-.034.085l-.029.083-.032.1-.031.1-.028.091-.027.1-.022.093-.022.1-.017.086a.533.533 0 0 0-.007.069v.37q0 .045.005.095c0 .032.005.064.009.1l.011.093c.003.028.009.055.017.09l.022.094.027.1c.011.041.02.066.03.093l.036.1c.013.038.024.058.037.084l.047.1c.015.03.03.06.048.092s.033.061.05.089l.056.089.071.107c.021.033.038.058.059.087l.07.094.073.09.072.084c.026.03.051.057.074.081l.082.082c.026.026.049.047.07.066l.08.068.093.077q.039.032.08.061l.1.071c.03.022.061.042.094.062l.1.063.1.061c.035.021.066.037.091.049s.076.038.118.062a1 1 0 0 0 .091.045l.11.047.1.043c.027.011.059.023.1.035l.12.038.1.029.12.03c.038.009.073.017.107.023l.119.022.126.02c.042.006.076.009.1.01h.516l.141-.005.139-.009c.043 0 .086-.007.131-.013l.139-.017c.041-.005.079-.011.114-.017l.125-.022q.055-.009.12-.024l.125-.028.109-.028.132-.036.128-.038c.035-.011.069-.022.1-.036l.118-.047.129-.054q.058-.024.106-.047l.1-.053.105-.058.1-.059c.027-.015.059-.035.1-.06l.106-.07.094-.065.107-.076.1-.075.085-.069.08-.071.089-.082q.042-.04.076-.075l.073-.08a.82.82 0 0 0 .055-.068l.054-.077.049-.075q.024-.038.041-.07l.038-.072.038-.077.034-.073.029-.067.028-.067.032-.077.03-.071.029-.07q.014-.033.025-.064l.021-.058c0-.015.01-.032.015-.051s0-.058 0-.16a.3.3 0 0 0 0-.031q0-.024-.008-.049a.361.361 0 0 0-.01-.039.256.256 0 0 1-.04-.123zm.46-.164l.019.043a.739.739 0 0 1 .03.075.789.789 0 0 1 .023.086l.015.087a.7.7 0 0 1 .006.083v.152a.458.458 0 0 1-.017.118q-.011.041-.023.076t-.025.07c-.01.027-.02.054-.033.083l-.028.066-.031.074-.032.076-.028.066-.032.075-.039.086-.043.087-.045.086c-.015.028-.033.058-.054.091l-.057.088-.063.09a1.266 1.266 0 0 1-.085.1l-.08.088q-.043.046-.1.1l-.1.089-.092.081-.1.077c-.037.03-.077.06-.117.089l-.112.079-.1.071-.11.072c-.046.03-.086.055-.123.076l-.1.058-.119.066-.119.061c-.041.02-.086.04-.132.059l-.13.054-.127.051c-.045.018-.092.034-.139.049l-.137.041-.137.038-.13.033-.126.028c-.053.012-.1.022-.147.029l-.119.021c-.044.008-.091.015-.139.021l-.142.018c-.052.007-.1.012-.153.015l-.156.01-.146.005h-.542c-.046 0-.1-.007-.153-.015l-.146-.023-.117-.021q-.068-.012-.14-.03l-.121-.03q-.064-.016-.129-.036l-.13-.041c-.047-.016-.089-.031-.127-.046l-.11-.046-.111-.048a1.475 1.475 0 0 1-.134-.066c-.035-.019-.066-.036-.095-.049s-.08-.041-.126-.068l-.109-.066-.1-.061c-.042-.025-.083-.052-.121-.08l-.1-.072q-.053-.038-.1-.08l-.1-.079-.092-.078-.089-.083-.088-.087c-.03-.03-.06-.064-.091-.1l-.08-.093-.08-.1q-.047-.06-.085-.113l-.07-.1c-.022-.031-.04-.061-.064-.1l-.072-.113-.058-.1c-.018-.03-.039-.072-.056-.108l-.048-.1c-.018-.036-.034-.075-.051-.116s-.028-.073-.04-.107-.026-.077-.038-.12l-.029-.105-.027-.112c-.01-.043-.017-.086-.023-.125S6 10.728 6 10.693s-.008-.076-.01-.115 0-.073-.006-.108 0-.069 0-.1v-.194-.1a.961.961 0 0 1 .012-.124l.021-.108.021-.095q.011-.053.027-.115t.03-.107l.03-.1.033-.1.033-.1.035-.1.038-.1.042-.1.04-.089.041-.09.045-.093c.017-.034.035-.066.052-.094l.046-.08.043-.081c.018-.03.037-.061.057-.09l.052-.076c.019-.028.04-.056.06-.082l.062-.078.066-.076c.023-.026.046-.049.071-.073L7 7.87l.075-.07c.027-.023.054-.046.084-.068l.065-.048.076-.053.08-.053.074-.046.063-.039.087-.051.091-.042.077-.037.068-.032.068-.032c.031-.015.063-.028.094-.04l.087-.031.072-.028c.027-.009.057-.019.091-.028l.073-.02.084-.022.079-.017.084-.013.062-.01a.864.864 0 0 1 .1-.014l.066-.009.084-.008.068-.006q.045 0 .1-.007h.922l.077.007.081.01.071.009c.028 0 .057.008.085.013l.052.008c.029 0 .06.007.094.014l.078.016.051.01.079.016.059.013.077.02.048.012c.027.006.053.013.081.022l.053.017.069.022.051.015q.042.012.081.026l.061.023c.027.01.052.021.075.031l.048.02.07.029.06.027.069.031.058.026.053.023q.038.015.079.034l.069.033.061.03.061.032.048.024.069.035q.035.019.067.04l.041.026.056.036.031.019a.668.668 0 0 1 .07.047l.042.032.036.026a.76.76 0 0 1 .06.047l.022.017.056.041.054.044.032.026.056.045.062.054.059.053.03.028c.016.014.034.032.058.056s.045.047.068.074l.05.062.049.064.041.054.047.058.056.071.047.059.05.06.055.066q.03.036.057.072l.048.067.042.061c.016.023.03.046.043.07l.034.065.031.067.021.048q.015.035.028.072l.018.052.02.059.017.045.022.052.018.04.029.061.022.045c.01.02.02.039.027.056l.023.047c.01.021.02.044.03.07a.65.65 0 0 1 .028.092l.014.061.013.061c.007.031.006.032.011.062l.008.054.007.046.026.049z" class="cls-3" transform="rotate(90 10.022 10.374)"/>
                    <path id="패스_1093" d="M12.8 32.242zm-.059-.34a.238.238 0 0 1 .072-.068v-.854-.124q0-.064-.005-.128 0-.059-.01-.114t-.016-.143l-.015-.149-.015-.147-.014-.147-.012-.139-.011-.139c0-.052-.008-.1-.011-.151s0-.081-.006-.114c0-.053 0-.053-.008-.114q0-.065-.006-.126c0-.035 0-.07-.005-.108s0-.077-.005-.112 0-.074 0-.113v-.093-.1-.506a.838.838 0 0 1 .006-.106c0-.027.008-.054.015-.086s.011-.049.019-.076l.019-.064c.009-.028.018-.055.028-.079l.021-.05.027-.061.037-.071.043-.079a.886.886 0 0 1 .057-.089l.038-.051a.662.662 0 0 1 .068-.075l.053-.048a.39.39 0 0 1 .1-.064.457.457 0 0 1 .094-.029l.063-.012.067-.008h.101l.078-.008.063-.006.075-.007.08-.009c.029 0 .059-.006.088-.007l.074-.005q.053 0 .112-.007h.112l.137-.006h1.047l.2-.005.217-.008q.109 0 .209-.009l.227-.015.218-.017.2-.015.189-.012.175-.008.173-.007.167-.006.136-.005.138-.006h.124l.111-.005.116-.006H18.869a.456.456 0 0 0 .005-.053v-.069a.365.365 0 0 0-.016-.05l-.011-.025a.247.247 0 0 1 .115-.324.233.233 0 0 1 .314.119l.011.025a.84.84 0 0 1 .035.1.533.533 0 0 1 .024.159v.093a.967.967 0 0 1-.01.1c0 .029-.01.057-.018.087l-.022.075-.019.056a.27.27 0 0 1-.258.195h-1.008l-.11.005-.122.006h-.124l-.129.005-.15.006-.156.006-.177.008-.171.008-.177.011-.195-.029-.222.017-.234.016c-.071 0-.145.007-.221.01l-.212.008c-.07 0-.142 0-.215.006H14.355l-.128.006-.121.005-.086.005-.1.007h-.048l-.093.011-.078.008-.065.006-.06.006-.075.007h-.079l-.043.008-.025.023-.014.015-.037.05a.379.379 0 0 0-.022.034l-.039.072-.028.053c0 .01-.009.02-.014.031l-.021.051-.013.035-.015.05c0 .016-.008.033-.012.048s-.006.033-.008.047a.332.332 0 0 0 0 .04v.896c0 .034 0 .081.006.122s0 .071.005.107c0 .06 0 .06.008.115 0 .037 0 .078.007.123s.005.087.009.134l.011.142c0 .043.007.088.011.134l.013.14.015.149.015.147q.007.073.015.134t.013.148q0 .071.006.142t0 .138v.968c0 .036 0 .036-.006.083a.415.415 0 0 1-.056.187.289.289 0 0 1-.481-.315zm.651-4.249zm5.608-.74z" class="cls-3" transform="rotate(90 16 29.363)"/>
                    <path id="패스_1094" d="M4.975 33.587a.248.248 0 0 1 .039-.343.233.233 0 0 1 .181-.05l.035-.051.059-.079.065-.085.075-.1.09-.115.094-.122.107-.146.109-.153.117-.171c.04-.059.076-.115.111-.171l.114-.185q.058-.093.127-.211c.045-.077.085-.146.118-.207l.116-.212.134-.244.131-.237.114-.211.123-.228.121-.225c.033-.063.068-.13.1-.2s.072-.142.105-.21l.092-.19.078-.169.08-.172.069-.156.064-.148.066-.152.058-.135.053-.121.048-.112.042-.1.039-.1.032-.079.035-.089.033-.078.037-.08.035-.069c.012-.022.024-.045.039-.069l.041-.064.047-.064a.886.886 0 0 1 .065-.071.808.808 0 0 1 .086-.076.62.62 0 0 1 .093-.057.464.464 0 0 1 .1-.035l.053-.013a.458.458 0 0 1 .1-.011h.072a.4.4 0 0 1 .135.036l.043.018.053.02.024.008.046.01.059.01.063.008.086.009H9.531l.078.006h1.787l.071-.006.049-.007c.03-.007.057-.012.078-.014l.026-.006a.113.113 0 0 0 .008-.073q-.006-.038-.008-.078v-.063V26.872a.955.955 0 0 1 .007-.111.666.666 0 0 1 .024-.122l.023-.079.021-.078.022-.082.027-.092.021-.068.018-.068.018-.069c0-.019.009-.038.012-.058l.01-.059.009-.057v-.067a.238.238 0 1 1 .475.031v.029c0 .026 0 .052-.009.082l-.01.059c0 .026-.008.051-.013.073l-.018.085-.019.076-.021.077-.025.082-.023.078-.02.072-.024.088-.025.086a.218.218 0 0 0-.006.035.479.479 0 0 0 0 .055V27.164c0 .011.005.031.011.056s.013.062.017.088a.6.6 0 0 1 .009.1v.092a.286.286 0 0 1-.145.254.326.326 0 0 1-.158.041l-.024.006-.058.018a.645.645 0 0 1-.089.02l-.048.009a.909.909 0 0 1-.107.015l-.07.006H9.659l-.094-.006-.065-.025h-.064q-.039 0-.075-.007L9.3 27.82c-.037 0-.07-.007-.1-.012l-.073-.008-.064-.014a.7.7 0 0 1-.082-.026l-.056-.022-.058-.024a.35.35 0 0 0-.069.011.313.313 0 0 0-.052.043.461.461 0 0 0-.032.035.352.352 0 0 0-.021.028l-.026.04-.027.048-.03.059q-.01.022-.027.052l-.029.067-.03.077-.04.1-.033.081-.045.112-.052.121-.054.112-.061.141-.064.146-.066.154-.068.155-.077.175c-.026.059-.054.119-.083.18l-.094.2-.109.217-.109.21-.123.229-.122.227-.115.213-.133.24-.132.24-.117.214q-.054.1-.125.22l-.132.22-.116.188q-.058.091-.12.184t-.123.18l-.113.158-.111.151-.105.138-.081.1-.076.1-.066.087-.049.066-.036.052-.04.058-.031.046a.369.369 0 0 1-.163.144.259.259 0 0 1-.355-.126zm3.9-5.877zm-.017 0zm2.957-.4z" class="cls-3" transform="rotate(90 8.615 29.715)"/>
                    <path id="패스_1095" d="M11.632 13.693a.247.247 0 0 1 .148-.3l.034-.012a.24.24 0 0 1 .326.192c.008.026.015.043.025.067l.027.07.015.04.026.066.02.048.036.081.036.08.046.107.044.107.049.118.051.128.054.142c.021.056.04.109.056.161l.049.162.051.184c.017.063.035.135.051.209s.031.145.044.216l.041.225c.014.08.026.158.038.237l.035.243.034.258.034.261.035.262.038.288.039.288.042.3.043.3c.014.095.029.205.043.315l.037.3c.01.089.02.194.032.317s.023.238.031.343.014.217.015.324v.647c0 .108 0 .21-.006.309s-.007.205-.013.312-.013.2-.02.3-.017.189-.027.288-.023.2-.037.292-.029.193-.045.286-.032.173-.047.244l-.053.245c-.021.094-.044.188-.066.269s-.046.157-.069.231-.049.15-.077.227-.06.158-.094.235-.063.138-.092.2-.067.13-.11.206-.085.142-.124.2-.081.117-.126.174-.09.111-.139.165-.1.1-.149.152-.094.085-.135.118-.087.068-.14.105-.108.074-.156.1-.094.052-.141.074-.1.043-.151.063a.9.9 0 0 1-.17.046.961.961 0 0 1-.155.012h-.269c-.037 0-.085-.008-.135-.015s-.093-.016-.138-.025-.094-.022-.142-.036-.1-.03-.146-.048-.1-.038-.146-.062-.1-.048-.143-.073-.09-.05-.134-.077-.095-.059-.148-.095l-.145-.1-.142-.1c-.051-.038-.1-.08-.158-.124s-.106-.087-.153-.127-.1-.087-.15-.133-.1-.1-.152-.147-.1-.1-.141-.146-.087-.094-.121-.135l-.108-.13q-.065-.079-.114-.149l-.088-.123-.1-.143c-.036-.05-.06-.1-.087-.145s-.053-.093-.076-.134l-.074-.137c-.029-.053-.054-.1-.075-.144l-.064-.129-.063-.131c-.017-.037-.037-.075-.058-.115s-.048-.089-.065-.125-.03-.06-.051-.1l-.064-.118-.052-.1-.052-.1-.047-.09c-.018-.033-.034-.065-.05-.1l-.042-.087-.035-.078-.028-.068a.475.475 0 0 1-.029-.123v-.085a.929.929 0 0 1 .006-.1.778.778 0 0 1 .026-.121.222.222 0 0 1 .282-.159.247.247 0 0 1 .147.3.314.314 0 0 0-.009.037.4.4 0 0 0 0 .044.228.228 0 0 0 .018.072l.029.063.037.078.041.078c.018.032.035.066.052.1l.051.1.052.1.059.108q.037.067.063.121l.055.105c.023.042.05.1.071.141l.059.123.063.126.068.131.073.135c.02.037.043.078.07.123l.078.13c.027.044.052.081.079.118l.088.124q.04.056.094.122l.105.127q.041.05.1.113l.134.139c.046.046.091.09.137.133s.09.082.135.12l.146.122c.052.043.1.079.142.112l.137.1.135.094q.069.047.128.082t.118.068c.038.021.078.041.121.061s.078.035.113.048.072.025.113.037.079.021.115.029.075.015.114.021.073.01.1.012.065 0 .107 0h.132a.547.547 0 0 0 .089-.007.487.487 0 0 0 .09-.025q.064-.024.117-.049c.035-.016.071-.035.108-.057s.075-.046.121-.079.086-.063.119-.089.068-.057.109-.1.081-.079.121-.123.08-.092.118-.14.072-.1.1-.145.069-.107.107-.173.07-.126.095-.177.055-.115.085-.182.055-.131.079-.2.049-.141.071-.21.043-.139.064-.213.04-.152.059-.24l.052-.24c.015-.067.029-.143.044-.229s.029-.175.042-.267.024-.185.035-.278.019-.183.026-.271.014-.184.019-.285.01-.2.012-.294 0-.2.006-.3 0-.212 0-.32v-.312c0-.1-.006-.192-.014-.29s-.018-.213-.03-.333l-.032-.314c-.009-.087-.021-.182-.035-.288s-.028-.211-.043-.308-.029-.2-.044-.309l-.041-.3-.04-.293-.038-.287-.035-.263-.034-.262-.034-.255q-.016-.12-.034-.233l-.037-.229-.039-.215c-.013-.067-.027-.134-.042-.2s-.03-.128-.045-.185l-.049-.176-.045-.152c-.013-.044-.028-.085-.046-.132l-.053-.139-.046-.116-.048-.116-.047-.113q-.017-.043-.035-.082c-.016-.033-.03-.066-.043-.1l-.029-.066c-.012-.026-.024-.054-.033-.08l-.023-.059-.021-.054-.016-.04a.236.236 0 0 1-.119-.153z" class="cls-3" transform="rotate(90 10.197 19.34)"/>
                    <path id="패스_1096" d="M12.277 20.9a.241.241 0 1 1 .152.457.37.37 0 0 1-.113.071.392.392 0 0 1-.143.026h-.065a.38.38 0 0 1-.18-.045.551.551 0 0 1-.114-.08.562.562 0 0 1-.1-.115.541.541 0 0 1-.059-.114q-.013-.037-.024-.078c-.007-.026-.013-.054-.019-.086a.885.885 0 0 1-.011-.111V20.615c0-.05 0-.1.007-.149a1.206 1.206 0 0 1 .031-.169c.014-.052.029-.105.046-.159s.038-.115.062-.182.047-.126.07-.185l.08-.2.085-.207.087-.212q.049-.122.107-.25l.113-.255.108-.253.11-.267.106-.263.107-.272.109-.271.106-.263.1-.254.1-.251.1-.224.093-.211c.033-.073.067-.143.1-.213l.1-.194.091-.179c.031-.059.063-.118.1-.177s.065-.113.093-.158l.089-.143q.052-.084.105-.158l.1-.138c.032-.045.062-.083.089-.12s.063-.085.1-.129.056-.072.077-.1l.074-.1c.021-.028.04-.054.055-.078l.056-.084.057-.082c.019-.026.024-.034.034-.051l.032-.054.042-.069.042-.063.043-.066.018-.028a.241.241 0 0 1 .207-.364h.108a.628.628 0 0 1 .088.013.393.393 0 0 1 .12.05.269.269 0 0 1 .107.33.328.328 0 0 1-.114.147q-.031.022-.064.041l-.026.015-.018.022-.022.031-.045.068-.043.066-.026.042-.04.066c-.018.029-.037.057-.057.084l-.046.066-.051.076q-.033.052-.076.108l-.069.093c-.025.034-.054.073-.088.116s-.058.075-.084.112-.061.084-.1.132-.063.084-.094.126-.058.084-.088.132l-.088.142q-.037.06-.083.141l-.089.163-.087.171-.093.189c-.033.068-.065.136-.1.2s-.061.135-.089.2l-.1.224q-.053.123-.1.24l-.1.254-.107.264-.108.268-.106.27q-.051.13-.11.272l-.109.265q-.054.13-.112.264l-.114.257q-.054.122-.1.236l-.087.212-.085.208-.078.191c-.022.053-.043.112-.065.174s-.04.113-.055.161-.028.093-.039.135a.725.725 0 0 0-.019.1V20.8a.421.421 0 0 0 0 .048q0 .027.01.049c0 .013.007.024.011.036l.011.016a.1.1 0 0 0 .014.018.456.456 0 0 1 .15-.067zm2.841-7.05zm-.064-.33zm-2.62 7.832l.017-.017-.011.011z" class="cls-3" transform="rotate(90 13.539 17.407)"/>
                    <path id="패스_1097" d="M17.988 18.287a.32.32 0 0 1 .256.122.393.393 0 0 1 .08.212.344.344 0 0 1-.132.3.474.474 0 0 1-.117.067.726.726 0 0 1-.1.033l-.071.018-.093.026c-.035.01-.074.019-.114.027l-.129.026c-.05.01-.1.017-.144.021l-.122.014q-.078.01-.159.017t-.166.006H15.94c-.052 0-.108-.006-.17-.013l-.175-.018q-.094-.01-.164-.02l-.113-.014c-.044 0-.092-.011-.142-.021s-.1-.018-.135-.028a.984.984 0 0 1-.115-.036L14.84 19a.888.888 0 0 1-.1-.041l-.069-.035a.521.521 0 0 1-.121-.092.447.447 0 0 1-.1-.15.442.442 0 0 1-.032-.166.421.421 0 0 1 .041-.181.374.374 0 0 1 .129-.157l.057-.037q.039-.025.086-.049l.079-.04.091-.043c.036-.016.072-.032.109-.046s.081-.029.126-.042l.124-.04c.054-.019.109-.035.164-.049l.152-.038.178-.041q.106-.023.2-.04c.059-.01.116-.02.171-.031s.128-.026.2-.039.149-.025.226-.036l.216-.03.215-.031q.115-.017.221-.026c.064-.006.127-.012.188-.02s.139-.016.208-.02l.2-.013.166-.011c.053 0 .108-.008.165-.01H18.461a.25.25 0 0 1 .187-.133l.056-.007q.047-.005.09-.013c.039-.007.077-.013.112-.017l.09-.014q.06-.011.119-.017a1.145 1.145 0 0 1 .128-.007h.572l.076.006.08.006a.617.617 0 0 1 .1.02l.053.014a.535.535 0 0 1 .1.033l.058.027a.567.567 0 0 1 .089.055.643.643 0 0 1 .076.068l.047.051q.028.031.055.064a.823.823 0 0 1 .065.093 1 1 0 0 1 .049.09l.036.08a.537.537 0 0 1 .043.18V18.32a1.047 1.047 0 0 1-.013.113l-.022.1a1.039 1.039 0 0 1-.032.105c-.011.03-.024.06-.041.093s-.03.057-.046.082a.575.575 0 0 1-.073.095l-.041.045a.608.608 0 0 1-.07.066.76.76 0 0 1-.144.093l-.054.026a.764.764 0 0 1-.08.031l-.055.019q-.037.012-.08.023a.744.744 0 0 1-.1.019l-.049.008a.991.991 0 0 1-.1.016l-.089.007-.084.006-.092.006-.086.006-.1.007-.086.006-.089.006-.084.007-.084.009-.084.009-.049.007a.6.6 0 0 1-.11.011h-.06a.63.63 0 0 1-.1-.01.3.3 0 0 1-.256-.311v-.1c0-.034 0-.041.007-.075s.007-.054.012-.082.013-.057.021-.085l.022-.072.025-.075c.01-.029.022-.059.036-.093l.03-.07a.757.757 0 0 1 .052-.1l.035-.066.034-.069.043-.081c.017-.03.019-.035.028-.055v-.008h-.489c-.049 0-.095 0-.14.009l-.182.013-.2.012c-.06 0-.12.01-.181.018s-.136.016-.205.022-.128.013-.2.023l-.217.032-.218.031q-.106.015-.208.033l-.189.036q-.092.019-.188.035t-.18.035l-.169.039-.147.037q-.065.017-.128.038l-.142.046c-.034.01-.065.02-.09.03l-.081.034.054.016c.026.007.06.014.1.021s.076.013.108.016l.132.016.147.018.173.018c.053.005.1.009.143.011h1.019q.065 0 .131-.005t.134-.014l.136-.016c.031 0 .066-.008.1-.016l.116-.023.092-.022.034-.009a.257.257 0 0 1 .289-.236zm-3.1.138zm3.843-.615zm.5.022a.527.527 0 0 1-.043.206l-.035.078a.9.9 0 0 1-.044.083l-.024.046c-.015.033-.031.065-.049.1l-.026.049-.039.078c-.018.036-.035.068-.054.1a.218.218 0 0 0-.015.031l-.032.074-.021.054-.017.051.067-.007.1-.01.095-.007.085-.006.092-.006.084-.006.1-.007.087-.006.088-.006.069-.005.053-.009a.9.9 0 0 1 .095-.016l.036-.007.046-.013.059-.02.025-.009.048-.023.026-.015.027-.02.012-.012.047-.051.006-.008c.007-.011.015-.025.021-.038l.017-.039.013-.042c.005-.017.01-.044.013-.058a.463.463 0 0 0 .005-.049v-.154-.061l-.024-.054a.445.445 0 0 0-.021-.039.279.279 0 0 0-.022-.031l-.035-.041-.039-.042-.014-.012-.011-.007-.044-.021h-.013l-.068-.018-.027-.005-.067-.005-.079-.006h-.554a.492.492 0 0 1 .001.04z" class="cls-3" transform="rotate(90 17.582 18.286)"/>
                    <path id="패스_1098" d="M13.492 6.915a.7.7 0 0 1 .07.045l.006-.006a.33.33 0 0 0 .033-.041l.025-.039.009-.019a.21.21 0 0 0 .008-.023.1.1 0 0 0 0-.015V6.75l-.005-.005-.015-.006h-.027l-.013.011-.011.012-.027.034-.019.026-.017.029-.024.042-.01.017zm.113-.191zm-.384.537a.206.206 0 0 1-.21-.2v-.023-.065a.427.427 0 0 1 .025-.116.636.636 0 0 1 .03-.071l.018-.036q.013-.028.029-.056l.019-.033c.009-.017.02-.036.033-.055l.039-.055.029-.036a.474.474 0 0 1 .049-.054.617.617 0 0 1 .071-.059.362.362 0 0 1 .158-.066.509.509 0 0 1 .115 0 .611.611 0 0 1 .107.018.5.5 0 0 1 .116.048.432.432 0 0 1 .088.064c.015.014.029.029.04.042a.306.306 0 0 1 .069.134.41.41 0 0 1 .017.11v.107a.479.479 0 0 1-.013.074.608.608 0 0 1-.023.067.641.641 0 0 1-.027.06c-.01.017-.023.039-.043.069a.728.728 0 0 1-.071.091.905.905 0 0 1-.075.074.351.351 0 0 1-.134.075.409.409 0 0 1-.113.015.362.362 0 0 1-.141-.029.393.393 0 0 1-.114-.075.224.224 0 0 0-.03-.019h-.008a.22.22 0 0 1-.05.001z" class="cls-3" transform="rotate(90 13.539 6.858)"/>
                    <path id="패스_1099" d="M14.961 7.251l.018.019s0 .005 0 0l.021.013.03.011h.263l.022-.017c0-.01.007-.019.009-.028s0-.012 0-.014a.24.24 0 0 0 0-.026V7.2l-.024-.03-.042-.023h-.01l-.035-.01-.038-.008H15h-.01c-.01 0 0 .009 0 .014v.034a.2.2 0 0 1-.026.081zm.018.022h-.008.005zM14.512 7a.347.347 0 0 1 .073-.134.5.5 0 0 1 .109-.1.5.5 0 0 1 .17-.071.62.62 0 0 1 .136-.014h.192c.027 0 .054.006.085.011l.073.016c.024.006.049.013.078.023a.634.634 0 0 1 .094.041l.041.022a.473.473 0 0 1 .087.06c.02.017.042.04.069.069a.409.409 0 0 1 .086.125.314.314 0 0 1 .022.114v.046a.629.629 0 0 1 0 .07.516.516 0 0 1-.014.071c-.006.02-.012.041-.019.059a.42.42 0 0 1-.118.171l-.057.045a.635.635 0 0 1-.082.051.419.419 0 0 1-.168.047H15.058c-.024 0-.06-.005-.087-.01a.6.6 0 0 1-.11-.026c-.027-.009-.051-.018-.071-.027l-.066-.031a.456.456 0 0 1-.111-.086.556.556 0 0 1-.073-.087l-.04-.032a.739.739 0 0 1-.074-.155.2.2 0 0 1 .073-.233L14.512 7z" class="cls-3" transform="rotate(90 15.121 7.209)"/>
                    <path id="패스_1100" d="M16.674 6.417a.15.15 0 0 0 .015.022l.026.033.024.024h.005l.039.024.022.012.036.014.026.007.053.01h.197l.007-.011a.2.2 0 0 0 .011-.021c0-.032 0-.032.006-.051s0-.023 0-.04v-.048a.2.2 0 0 0-.012-.023l-.04-.059-.041-.055a.246.246 0 0 0-.028-.029l-.063-.059a.186.186 0 0 0-.026-.022l-.031-.022-.034-.014-.054-.02h-.138c.007 0 .006 0 0 0l-.014.013-.012.013c0-.005 0 0-.005.013a.14.14 0 0 0-.011.029c0 .022-.007.038-.008.044a.181.181 0 0 0 0 .02v.065a.4.4 0 0 0 0 .047.535.535 0 0 1 .05.084zm.438.161zm-.925-.142v-.037a.873.873 0 0 1-.007-.112v-.064a.662.662 0 0 1 0-.072c0-.025.008-.055.016-.094a.614.614 0 0 1 .049-.138.509.509 0 0 1 .064-.1.569.569 0 0 1 .056-.059l.035-.04a.364.364 0 0 1 .135-.071.426.426 0 0 1 .13-.023h.178a.41.41 0 0 1 .1.022l.058.021a.684.684 0 0 1 .086.037.772.772 0 0 1 .078.047.624.624 0 0 1 .088.072l.054.05a.694.694 0 0 1 .079.085l.055.074.051.076a.688.688 0 0 1 .054.106.433.433 0 0 1 .032.162V6.532c0 .028 0 .032-.008.069a.446.446 0 0 1-.032.123.65.65 0 0 1-.038.076.585.585 0 0 1-.054.076.457.457 0 0 1-.085.078.384.384 0 0 1-.23.074h-.178a.621.621 0 0 1-.1-.009l-.061-.011a.641.641 0 0 1-.092-.018c-.025-.009-.047-.017-.072-.028a.742.742 0 0 1-.067-.036l-.042-.026a.483.483 0 0 1-.071-.055.776.776 0 0 1-.056-.057c-.016-.018-.032-.037-.047-.057a.614.614 0 0 1-.058-.09.308.308 0 0 0-.021-.027.233.233 0 0 1-.042-.074.236.236 0 0 1-.037-.104z" class="cls-3" transform="rotate(90 16.879 6.33)"/>
                    <path id="패스_1101" d="M20.235 6.73A.237.237 0 0 1 20 6.494v-.141-.089c0-.037 0-.037.006-.07l.005-.045a.577.577 0 0 1 .015-.085.526.526 0 0 0 .012-.064v-.344-.079c0-.025 0-.061-.007-.1s-.007-.065-.011-.1-.009-.059-.017-.1l-.023-.118q-.008-.04-.025-.1l-.038-.126c-.013-.041-.026-.087-.038-.131l-.036-.126-.034-.123c-.012-.042-.023-.09-.033-.137l-.025-.117-.023-.117c-.007-.04-.015-.082-.02-.121s-.01-.081-.012-.118 0-.073 0-.116v-.435-.093-.08c0-.042 0-.04.005-.074a.909.909 0 0 1 .012-.1c0-.02.007-.04.01-.06a.6.6 0 0 1 .022-.1l.018-.059.022-.066a.625.625 0 0 1 .036-.083q.019-.036.039-.067a.631.631 0 0 1 .073-.09.7.7 0 0 1 .108-.093.4.4 0 0 1 .2-.071h.187a.712.712 0 0 1 .082 0l.048.005h.254s.011-.007.023-.02a.527.527 0 0 0 .019-.049.675.675 0 0 1 .044-.137l.035-.108c.008-.024.018-.048.03-.077L21 1.9c.013-.034.028-.069.045-.1l.039-.087c.014-.033.032-.069.052-.109l.057-.111a1.505 1.505 0 0 1 .075-.131c.02-.031.04-.062.061-.1s.053-.082.085-.129.064-.087.1-.127.065-.077.1-.118a1.675 1.675 0 0 1 .119-.123c.038-.036.078-.071.121-.107l.123-.1q.069-.056.148-.108c.051-.034.1-.064.153-.091s.094-.048.141-.07l.144-.065c.044-.02.1-.041.149-.06s.1-.036.147-.05.094-.032.141-.044l.133-.03c.045-.01.093-.019.146-.027A1.06 1.06 0 0 1 23.436 0h.519l.088.006.08.005.084.005c.032 0 .064.006.1.011l.064.01a.693.693 0 0 1 .1.023l.063.019a.61.61 0 0 1 .09.035l.05.024a.526.526 0 0 1 .08.049l.069.054a.63.63 0 0 1 .1.1.682.682 0 0 1 .064.1c.015.028.03.057.041.082l.03.063.015.031.052.014.047.014.058.015.07.018.087.02.092.017q.055.009.12.023c.036.008.074.015.113.021l.13.023.115.02.123.022.114.023.106.024.107.024.105.026.1.029a1.177 1.177 0 0 1 .112.041l.08.035.081.035c.034.015.066.031.1.049a1.009 1.009 0 0 1 .1.062l.07.049.089.065a1.148 1.148 0 0 1 .1.084l.074.072c.03.03.058.059.081.086a1.227 1.227 0 0 1 .081.1l.069.1a1.1 1.1 0 0 1 .069.12l.049.1c.016.036.031.077.047.125s.027.091.036.136a.945.945 0 0 1 .018.137v.431c0 .04 0 .05-.005.1s0 .066-.006.1c0 .05 0 .05-.006.1s0 .05 0 .1 0 .052-.005.1 0 .048-.005.1V3.594c0 .036 0 .063-.006.1 0 .055 0 .055-.005.109s0 .053-.005.1 0 .068-.008.106-.008.077-.012.111-.006.05-.007.073v.392c0 .02 0 .043.007.066s.007.048.012.07a.623.623 0 0 0 .016.062l.026.084a.635.635 0 0 0 .026.066q.024.053.042.1c.008.022.018.044.031.069l.042.085.045.091q.019.039.036.068t.049.091l.042.085.043.092.031.066.041.079.046.092.037.076.043.09.033.073.037.079a1.024 1.024 0 0 1 .04.1c.01.031.018.061.026.091a.544.544 0 0 1 .015.126v.303l-.005.072-.006.068c0 .042 0 .042-.006.073v.065c0 .029-.005.059-.009.09a.694.694 0 0 1-.024.113l-.02.068-.021.068a.719.719 0 0 1-.044.1l-.042.078a.707.707 0 0 1-.063.09l-.04.05a.682.682 0 0 1-.079.087l-.056.053-.066.061-.072.062-.067.054-.094.059-.05.04-.057.051-.045.041v.066c0 .019 0 .02.01.044l.032.071c.008.017.016.031.025.045l.03.045c.012.017.027.036.043.053s.047.057.07.088a.51.51 0 0 0 .044.052q.041.042.08.086l.065.072.068.075.072.079.07.078.056.062.067.074.05.056.055.064.041.047.04.042a.863.863 0 0 1 .068.081l.054.07a.458.458 0 0 1 .069.121.4.4 0 0 1 .027.146.717.717 0 0 1-.005.087.8.8 0 0 1-.013.081.357.357 0 0 1-.068.139.425.425 0 0 1-.1.092.4.4 0 0 1-.148.063.616.616 0 0 1-.132.013h-.317c-.03 0-.059-.006-.086-.01l-.052-.007H27.631l-.015.051c0 .01-.006.023-.007.035l-.011.076c0 .019-.005.037-.006.053 0 .038 0 .038-.005.078s0 .039 0 .082-.006.069-.011.1-.005.041-.006.062c0 .037-.005.072-.01.1s-.01.062-.017.094l-.015.073c-.006.032-.014.065-.023.095l-.028.088a.8.8 0 0 1-.04.09l-.038.073-.042.071a.633.633 0 0 1-.062.084c-.017.019-.037.039-.061.062a.756.756 0 0 1-.088.073l-.049.037a.653.653 0 0 1-.1.061c-.03.016-.062.032-.094.045s-.061.025-.091.035a.527.527 0 0 1-.145.028H26.3a.908.908 0 0 1-.122-.014l-.1-.021c-.036-.008-.072-.017-.107-.028l-.1-.034c-.033-.012-.068-.027-.106-.043s-.071-.033-.108-.052-.066-.036-.094-.052l-.105-.062-.1-.066-.087-.055c-.039-.024-.077-.05-.114-.076l-.108-.077-.089-.064-.1-.072-.094-.07c-.037-.027-.071-.052-.1-.078l-.095-.077-.091-.072-.1-.08-.091-.076-.084-.069-.086-.07-.085-.068-.075-.059-.078-.062-.06-.048c-.019-.014-.037-.027-.056-.039l-.062-.042-.048-.032-.03-.018a.5.5 0 0 0-.077-.007h-.039l-.042.009a.567.567 0 0 0-.056.019l-.057.024-.052.023-.047.021c-.022.01-.045.018-.069.026l-.028.011-.035.016a.48.48 0 0 1-.091.034l-.06.018a.555.555 0 0 1-.139.028H22.668a.725.725 0 0 1-.11-.008.805.805 0 0 1-.115-.026.625.625 0 0 1-.1-.038l-.064-.034-.058-.034a.774.774 0 0 1-.079-.054l-.058-.046-.084-.053-.073-.063-.078-.073q-.042-.041-.079-.08l-.07-.078-.085-.089c-.03-.032-.06-.064-.087-.1s-.055-.066-.084-.1l-.078-.1-.084-.109-.086-.118c-.03-.042-.055-.08-.08-.117l-.076-.114-.082-.13c-.025-.042-.05-.086-.076-.134l-.068-.123a1.464 1.464 0 0 1-.074-.148q-.026-.061-.06-.132t-.069-.162l-.054-.149-.049-.142q-.026-.076-.049-.152c-.016-.052-.029-.1-.041-.154s-.022-.088-.034-.133l-.038-.151-.03-.131a1.125 1.125 0 0 1-.024-.158c0-.048-.006-.093-.006-.133v-.208a.24.24 0 0 1-.051.005zm3.354 3.532l-.013-.007zM27.7 8.3zM25.081.65zm-4.267 1.755s0-.006 0 0zm.067-.044zm-.294 3.56a.335.335 0 0 1 .194-.062h.057c.027 0 .061 0 .1.006a.236.236 0 1 1-.043.471h-.059l-.023.049-.026.08c0 .011-.007.024-.011.041l-.01.05-.006.049V7.037a.65.65 0 0 0 .013.09l.03.13q.015.065.034.133c.014.05.026.1.038.149s.021.084.034.128.028.09.043.134l.049.141q.023.066.049.134t.056.13l.066.146a1 1 0 0 0 .05.1l.073.132c.024.045.044.08.066.116l.07.111.077.116c.022.033.046.069.071.1l.077.106.081.105.076.1.071.087c.024.029.046.052.07.078l.082.086.078.082.063.064.064.06.062.053.061.049.055.043.029.02.054.032.037.02.026.008a.34.34 0 0 0 .049.011.254.254 0 0 0 .039 0h.134l.1-.03.057-.025a.685.685 0 0 1 .073-.029l.026-.01.052-.023.046-.02.075-.031a1.05 1.05 0 0 1 .105-.036.834.834 0 0 1 .1-.021.754.754 0 0 1 .119-.006h.079a.373.373 0 0 1 .171.036l.051.026c.023.012.045.025.069.041l.055.036.053.036c.027.017.055.037.086.06l.072.057.069.055.079.062.092.074.081.066.091.075.1.08.077.063c.027.022.07.054.106.084l.088.071.087.065.106.079.08.06.1.07.1.072c.031.022.061.042.09.06l.1.062.091.058.094.056.074.041.083.039.08.033.072.024.076.02.079.017a.441.441 0 0 0 .06.007h.314a.522.522 0 0 0 .077-.026l.055-.026.026-.016.068-.051a.285.285 0 0 0 .033-.027l.035-.035a.729.729 0 0 0 .044-.069l.032-.061a.365.365 0 0 0 .019-.041c0-.013.01-.029.016-.051l.014-.059.017-.08c0-.021.008-.041.011-.062s0-.037.006-.062.006-.072.011-.105.005-.042.006-.061c0-.044 0-.044.005-.086s0-.039.005-.078.006-.063.011-.094l.011-.073a.83.83 0 0 1 .018-.087l.019-.068a.513.513 0 0 1 .1-.174.4.4 0 0 1 .128-.106.459.459 0 0 1 .151-.047.945.945 0 0 1 .124-.008h.2a.808.808 0 0 1 .093 0l.069.009.047.005h.26l-.05-.046-.029-.036-.05-.053-.057-.065-.04-.046-.06-.067-.054-.059-.067-.074-.062-.069-.073-.08-.07-.077-.067-.074-.068-.073a.978.978 0 0 1-.086-.1c-.014-.02-.029-.039-.045-.057s-.046-.056-.068-.085-.037-.053-.05-.075-.028-.047-.042-.075l-.033-.068a.588.588 0 0 1-.036-.1l-.016-.065a.482.482 0 0 1-.01-.1v-.076a.45.45 0 0 1 .019-.141.4.4 0 0 1 .052-.106.522.522 0 0 1 .074-.088l.058-.053.054-.049.067-.057.066-.053.065-.053.054-.047.053-.049.062-.058a.209.209 0 0 0 .024-.026l.052-.065a.229.229 0 0 0 .019-.026l.03-.056a.261.261 0 0 0 .014-.032l.018-.058.02-.069a.232.232 0 0 0 .008-.038q0-.034.007-.065c0-.037 0-.037.005-.072s0-.028.006-.069 0-.041.006-.07v-.063-.274a.508.508 0 0 0-.018-.073.538.538 0 0 0-.02-.051l-.036-.077-.037-.082-.033-.069-.043-.089c-.013-.029-.023-.048-.036-.073l-.033-.082c-.015-.029-.029-.06-.042-.09s-.023-.051-.036-.076l-.04-.08q-.018-.037-.036-.068t-.051-.1l-.044-.079-.044-.089q-.027-.055-.047-.107c-.009-.024-.02-.051-.033-.078a1.1 1.1 0 0 1-.045-.115l-.029-.092a1.087 1.087 0 0 1-.027-.109c-.006-.031-.011-.062-.016-.1s-.008-.067-.01-.1 0-.062 0-.093v-.252-.1c0-.035.006-.071.01-.107l.01-.095c.003-.037.006-.063.007-.09 0-.043 0-.043.005-.091s0-.055.005-.11c0-.039 0-.075.006-.11s0-.053 0-.083v-.118c0-.04 0-.053.005-.1s0-.049 0-.1 0-.054.005-.107 0-.052.006-.106c0-.032 0-.062.006-.093s0-.045.005-.092v-.297-.087a.467.467 0 0 0-.009-.065c-.006-.028-.014-.058-.024-.088s-.02-.059-.029-.079l-.04-.084a.637.637 0 0 0-.04-.07l-.061-.09a.774.774 0 0 0-.05-.066c-.015-.018-.033-.037-.054-.057L27 1.706a.669.669 0 0 0-.055-.048l-.065-.048-.08-.054a.54.54 0 0 0-.052-.033q-.03-.016-.061-.03l-.078-.034-.079-.034-.063-.023-.086-.024-.081-.023-.1-.023-.107-.024-.1-.02-.116-.021-.125-.022-.116-.02-.139-.026-.1-.019-.11-.02-.1-.023-.077-.019-.069-.018-.06-.017-.047-.013a.483.483 0 0 1-.1-.036.385.385 0 0 1-.114-.086.391.391 0 0 1-.077-.116l-.021-.045-.032-.066c-.008-.021-.017-.036-.029-.058a.221.221 0 0 0-.021-.032.158.158 0 0 0-.024-.024L24.47.571l-.055-.029-.084-.027L24.3.507 24.23.5l-.051-.009h-.08L24.008.48 23.93.475h-.493a.6.6 0 0 0-.082.008q-.063.01-.116.021l-.125.026c-.041.01-.08.02-.118.032L22.88.6c-.041.014-.087.034-.129.052l-.128.058c-.043.02-.082.04-.121.06s-.075.043-.115.069a1.368 1.368 0 0 0-.111.081l-.116.095c-.037.031-.07.06-.1.09a1.215 1.215 0 0 0-.086.09q-.049.055-.09.105c-.026.032-.052.066-.077.1s-.049.071-.067.1-.046.075-.069.109-.034.056-.05.088l-.058.113c-.016.032-.03.059-.04.084l-.043.095c-.013.027-.023.052-.032.074l-.034.088-.023.058c-.005.014-.012.034-.017.053a.67.67 0 0 1-.034.094.656.656 0 0 1-.027.1.953.953 0 0 1-.036.092l-.025.055a.511.511 0 0 1-.062.1.335.335 0 0 1-.166.114.79.79 0 0 1-.09.02.736.736 0 0 1-.113.008h-.298l-.059-.006H20.3c-.031.031-.038.039-.037.039l-.016.028a.715.715 0 0 0-.025.068c-.01.036-.01.036-.021.068l-.017.1a.45.45 0 0 0-.006.048c0 .034 0 .034-.005.069s0 .042-.005.083v.592q0 .037.011.066c0 .032.01.066.017.1l.022.108.024.115q.012.058.027.114l.032.118.035.123.035.122.04.131c.014.045.027.1.035.138l.024.119c.01.051.018.1.022.132s.009.073.012.114l.008.113c.002.036 0 .07 0 .1v.295c.027.015.051-.005.075-.021zm-.273-3.1zm.528 3.5z" class="cls-3" transform="rotate(90 24.264 5.978)"/>
                    <path id="패스_1102" d="M23.177 4.656c.022-.009.045-.019.071-.028a.688.688 0 0 1 .086-.024l.093-.017c.037-.006.074-.01.111-.013s.071 0 .106 0h.362a.856.856 0 0 1 .15.014l.127.022c.043.008.086.017.132.028l.116.026.112.025.1.023c.036.009.072.019.1.03l.079.024a.882.882 0 0 1 .1.031l.071.026.068.023.071.026.057.022.06.027.033.014.034.01H25.456c.118 0 .213.152.213.34s-.1.34-.213.34h-.022a.346.346 0 0 1-.083-.011.541.541 0 0 1-.065-.02.555.555 0 0 1-.064-.027l-.038-.017-.057-.023-.056-.021L25 5.484l-.079-.029a.609.609 0 0 0-.069-.022l-.1-.029c-.027-.009-.055-.017-.083-.024l-.1-.023-.1-.022-.126-.028c-.04-.009-.079-.018-.116-.024l-.127-.022a.589.589 0 0 0-.1-.01H23.551c-.029 0-.059.006-.088.01l-.08.015a.4.4 0 0 0-.05.014l-.05.019a.157.157 0 0 0-.021.016.4.4 0 0 1-.123.073c-.181.06-.287-.16-.287-.4 0-.188.1-.34.213-.34a.141.141 0 0 1 .064.016.34.34 0 0 1 .048-.018z" class="cls-3" transform="rotate(90 24.264 5.099)"/>
                    <path id="패스_1103" d="M17.86 23.6a.232.232 0 0 1-.267-.2v-.029a.412.412 0 0 1 0-.141.589.589 0 0 1 .03-.107.578.578 0 0 1 .049-.1 1.043 1.043 0 0 1 .053-.092l.031-.049.031-.053c.011-.019.02-.037.029-.056l.039-.081c.012-.025.024-.054.036-.085s.023-.062.033-.1l.037-.122q.017-.056.033-.129c.011-.048.019-.094.026-.136l.027-.182c.011-.07.017-.12.022-.168l.015-.18c.005-.068.01-.13.013-.195s.008-.141.014-.22.009-.143.01-.208 0-.149.008-.229.007-.158.011-.236l.011-.223q0-.107.01-.223c0-.078.007-.155.011-.229l.011-.209.013-.21.016-.2c.005-.062.012-.12.02-.186l.025-.195.026-.18c.008-.057.018-.113.028-.161l.026-.136.023-.13c.007-.041.015-.093.023-.131s.011-.062.016-.1l.017-.114a.536.536 0 0 0 .007-.067v-.092-.368-.078c0-.024 0-.032.006-.061a.5.5 0 0 1 .022-.1.493.493 0 0 1 .051-.105.284.284 0 0 1 .243-.138h.129a.552.552 0 0 1 .093.018l.051.012a.876.876 0 0 1 .105.03l.081.028.106.037.114.042.114.041c.047.016.1.034.148.055l.144.058.158.062.17.065.154.057.184.066.186.067q.093.033.175.058l.186.057c.062.019.125.038.189.055l.183.052q.076.023.158.043l.172.044.141.035c.05.011.1.024.15.038l.116.03c.042.01.086.022.132.036L22.4 18c.037.012.074.025.108.04l.09.037.085.037a.779.779 0 0 1 .108.056l.071.047.07.05.051.038a.558.558 0 0 1 .079.068.775.775 0 0 1 .065.081.408.408 0 0 1 .075.187.844.844 0 0 1 .007.107v.318c0 .033 0 .033-.006.068l-.006.071v.071l-.005.086v.452c0 .074 0 .074-.006.153 0 .05 0 .106-.006.17s-.005.137-.011.2l-.016.194-.022.234-.023.237-.026.248-.029.266-.029.264c-.01.093-.018.167-.023.237s-.009.15-.013.237l-.011.279c-.004.096-.007.18-.008.256v.245c0 .084 0 .17-.008.253s-.006.153-.008.219 0 .144-.008.231-.008.169-.013.241-.011.143-.019.217l-.022.21-.022.2-.021.173c-.007.051-.015.108-.025.162l-.023.134c-.007.043-.015.1-.023.135s-.016.083-.026.123-.012.054-.017.081a1.006 1.006 0 0 1-.025.113l-.02.071-.024.082-.027.086a.812.812 0 0 1-.029.078.269.269 0 0 1-.218.168.638.638 0 0 1-.076 0h-.079l-.08-.006-.1-.005-.076-.015-.079-.016-.093-.021-.1-.024-.108-.024-.115-.029-.137-.036-.142-.039-.145-.039-.17-.042-.192-.045-.206-.049-.2-.047q-.1-.024-.2-.041t-.216-.041l-.212-.042-.215-.041-.186-.031-.181-.027c-.057-.008-.1-.013-.142-.015h-.524a.618.618 0 0 1-.143-.014.264.264 0 0 1-.171-.382.227.227 0 0 1 .371-.083h.492c.053 0 .114.009.183.018l.186.027c.062.009.129.02.2.033l.217.041.221.044q.1.021.2.038c.074.013.15.028.227.046l.212.05.2.047.2.046.178.044.156.042.133.037.131.034.116.029.1.026.1.025.077.018.08.017.06.012.044.006h.023l.02-.07.021-.074a.52.52 0 0 0 .013-.057c.006-.039.015-.079.025-.118s.014-.061.021-.1l.02-.117.025-.15c.009-.05.015-.09.021-.137l.02-.165.021-.193.022-.209.018-.2c0-.066.009-.14.012-.224l.008-.228.008-.222c.003-.081.006-.16.007-.243v-.245c0-.08 0-.169.009-.266s.007-.187.011-.278.008-.177.014-.255.014-.163.025-.257l.029-.259.029-.267.025-.242.023-.238.021-.228.016-.19c.005-.062.008-.118.009-.177s0-.127.006-.179c0-.077 0-.077.006-.149v-.142V19.452v-.114l.005-.087c0-.031 0-.059.005-.083l.006-.073c0-.035 0-.035.006-.066l.005-.055v-.222a.1.1 0 0 0-.014-.038l-.071-.053-.054-.038-.058-.038a.338.338 0 0 0-.047-.024l-.077-.033-.086-.035c-.027-.011-.053-.021-.082-.03l-.1-.033q-.054-.017-.1-.028l-.131-.034-.131-.033c-.05-.011-.1-.025-.159-.04l-.162-.042c-.061-.015-.121-.031-.177-.048l-.176-.05c-.068-.019-.135-.038-.2-.059l-.184-.056q-.092-.028-.195-.065l-.189-.068-.179-.064c-.064-.022-.12-.043-.168-.062l-.169-.065-.17-.067-.136-.055q-.068-.027-.126-.047l-.128-.046-.11-.04-.094-.033-.088-.031a.42.42 0 0 0-.048-.014l-.047-.01v.477a1.022 1.022 0 0 1-.014.126c0 .029-.01.06-.014.094s-.013.085-.021.127l-.02.112-.025.143-.027.14c-.009.046-.016.087-.024.139l-.025.176-.023.182-.019.177c-.006.056-.011.117-.015.185l-.012.2-.011.212-.011.223-.01.226-.011.224c0 .077-.007.154-.011.233s-.006.149-.007.219-.006.152-.012.232-.01.147-.013.211-.008.139-.014.209l-.016.186c-.005.055-.014.125-.025.2l-.026.177c-.007.051-.019.114-.033.174s-.027.113-.042.161l-.038.126c-.014.045-.029.088-.044.129s-.032.08-.049.116l-.042.088c-.014.029-.029.056-.042.08l-.041.07-.049.053-.012.02a.672.672 0 0 1-.035.063.266.266 0 0 1-.193.317zm4.886-4.884z" class="cls-3" transform="rotate(90 20.395 21.45)"/>
                    <path id="패스_1104" d="M21.238 4.9a.861.861 0 0 1-.093-.013c-.031-.006-.062-.012-.093-.02s-.058-.016-.083-.025l-.042-.013a.249.249 0 0 1-.054-.02c-.062.008-.062.008-.126-.416.161-.177.161-.177.188-.165a.354.354 0 0 1 .077 0 .9.9 0 0 1 .121.018l.092.022.084.019.1.02c.033.006.065.011.1.015s.079.011.121.018.07.011.109.015l.127.015.1.013.122.014.12.013c.048 0 .09.01.123.015s.055.007.084.009a1.165 1.165 0 0 1 .12.012l.089.014.064.008a.67.67 0 0 1 .1.014l.043.007a.637.637 0 0 1 .087.013l.043.008c.023 0 .047.008.068.013l.074.017a.762.762 0 0 1 .11.034l.053.021a.485.485 0 0 1 .109.059.559.559 0 0 1 .085.075l.019.021a.357.357 0 0 1 .022.427.211.211 0 0 1-.342.028l-.019-.021h-.008l-.065-.026a.356.356 0 0 0-.048-.015l-.075-.017L22.9 5.1l-.067-.013-.04-.006a.881.881 0 0 1-.09-.014.314.314 0 0 0-.047-.006q-.049 0-.1-.012l-.086-.013a.8.8 0 0 0-.084-.008c-.042 0-.081-.007-.121-.013s-.06-.008-.1-.012l-.131-.014-.115-.013-.118-.015-.101-.008q-.074-.007-.141-.019l-.1-.015c-.039 0-.079-.011-.12-.019s-.075 0-.101 0z" class="cls-3" transform="rotate(90 22.154 4.747)"/>
                    <path id="패스_1105" d="M25.21 4.619h.111a1.283 1.283 0 0 1 .133.014l.129.022.125.019c.048.006.1.015.157.027l.147.031.149.033.139.035.139.034.141.037c.037.01.072.019.107.026l.129.03c.034.009.064.015.091.02l.1.019.08.013.069.008.07.005c.032 0 .064.007.1.013l.044.006h.035a.769.769 0 0 1 .077 0 .625.625 0 0 1 .094.015h.015c.027 0 .058.008.1.015a.956.956 0 0 1 .11.028l.059.018H27.911a.262.262 0 0 1 .222.293.256.256 0 0 1-.282.231h-.029a.661.661 0 0 1-.1-.02l-.073-.022a.482.482 0 0 0-.055-.014l-.054-.009a.622.622 0 0 1-.082-.015h-.131a.834.834 0 0 1-.089-.012l-.047-.006-.073-.006c-.029 0-.062-.006-.1-.01s-.073-.011-.108-.018l-.089-.016c-.04-.007-.084-.016-.13-.028l-.108-.025c-.045-.009-.091-.02-.139-.033l-.129-.034-.13-.032-.141-.033-.137-.031-.143-.03q-.068-.014-.125-.021l-.139-.018-.123-.021a.807.807 0 0 0-.084-.009h-.399a.283.283 0 0 1-.229-.453.249.249 0 0 1 .351-.08l.009.006z" class="cls-3" transform="rotate(90 26.374 5.099)"/>
                    <path id="패스_1106" d="M26.278 7.557l.028.037c.013.011.013.011.067.128-.057.362-.057.362-.408.366a.307.307 0 0 1-.074-.048l-.029-.027-.095-.091a.316.316 0 0 1-.02-.436.292.292 0 0 1 .422-.021l.008.008a.3.3 0 0 1 .101.084z" class="cls-3" transform="rotate(90 26.022 7.736)"/>
                    <path id="패스_1107" d="M18.508 22.275c-.008-.025-.018-.057-.029-.1a.311.311 0 0 1 .038-.254l.061.014.031.005h.067a.265.265 0 0 0-.171.322zm.13-.447a.241.241 0 0 1 .308.181l.019.064a.307.307 0 0 1-.189.42.5.5 0 0 1-.117.012h-.095c-.031 0-.051-.007-.077-.013l-.072-.017-.082-.022-.067-.019-.059-.015-.068-.014a.883.883 0 0 1-.1-.025l-.072-.02-.076-.019-.074-.018-.086-.02-.077-.02-.071-.016-.086-.02-.066-.014-.06-.011-.045-.007a.778.778 0 0 1-.086-.013l-.032-.006-.055-.006-.059-.007-.065-.009a.8.8 0 0 1-.1-.022.541.541 0 0 1-.115-.048.618.618 0 0 1-.1-.065.742.742 0 0 1-.081-.077l-.026-.028a.307.307 0 0 1-.006-.4.225.225 0 0 1 .347-.007l.026.028a.239.239 0 0 0 .027.025.15.15 0 0 0 .024.016l.02.008a.37.37 0 0 0 .048.01l.067.01.048.006.049.005a.752.752 0 0 1 .079.013l.04.006.075.011.069.013.084.018.074.017.09.021.073.019.077.018.083.02.074.018.092.025a.478.478 0 0 0 .056.014l.084.017.085.022.067.019.064.017a.247.247 0 0 1 .115-.095z" class="cls-3" transform="rotate(90 17.758 21.978)"/>
                    <path id="패스_1108" d="M17.614 20.788a.241.241 0 0 1 .089-.328.382.382 0 0 1 .2-.064h.061a.562.562 0 0 1 .134.017l.1.026.113.029q.068.017.145.04l.137.039.155.043.172.048.145.041.17.043.163.04.15.037.147.034.14.03.123.023.121.022c.033.006.065.011.1.014l.116.015a.708.708 0 0 0 .072.008c.039 0 .073.006.1.01h.122l.068.006H20.864a.24.24 0 0 1 0 .481H20.7a.942.942 0 0 1-.1 0l-.057-.005h-.044a.746.746 0 0 1-.106-.007l-.066-.006a1.171 1.171 0 0 1-.118-.013l-.089-.012c-.044 0-.088-.011-.133-.019l-.119-.022-.134-.025-.145-.031-.159-.036-.153-.038-.165-.041-.171-.043c-.06-.015-.116-.031-.166-.046l-.155-.044-.161-.044-.146-.042-.125-.035-.118-.033-.087-.023h-.041a.24.24 0 0 1-.328-.089z" class="cls-3" transform="rotate(90 19.341 20.923)"/>
                    <path id="패스_1109" d="M21.835 21.408zm.093-.366h.008a.062.062 0 0 0-.018 0zm.079.007l.026.014.032.019c.029.009.029.009.089.163-.156.218-.156.218-.215.2a.266.266 0 0 1-.042 0l-.051-.009c-.022 0-.046-.01-.071-.018l-.062-.019-.064-.018-.091-.028-.094-.033-.085-.029-.095-.033-.1-.038-.1-.033-.111-.037-.1-.033-.1-.031-.1-.029-.119-.033q-.045-.014-.1-.026l-.12-.03-.112-.028-.087-.021-.091-.019-.084-.016-.063-.009h-.18a.665.665 0 0 1-.075 0 .328.328 0 0 1-.126-.045.914.914 0 0 1-.1-.072.191.191 0 0 1-.028-.277.214.214 0 0 1 .291-.027l.041.031h.143a.7.7 0 0 1 .09.006l.085.013.1.019.1.02.1.024.115.029.112.028c.043.01.083.021.121.032l.1.029.12.033.1.032.114.038.1.033.112.038.1.038.081.028.1.033.087.03.068.021.078.022.031.01a.215.215 0 0 1 .13.008z" class="cls-3" transform="rotate(90 20.747 20.923)"/>
                    <path id="패스_1110" d="M20.624 21.53a.227.227 0 0 1-.228-.23.237.237 0 0 1 .261-.2.682.682 0 0 1 .208.036l.067.027.028.009.071.018c.031.008.065.017.1.029s.052.015.079.021.087.021.137.035l.132.035.139.036.159.043.156.045.146.044.136.039c.051.014.1.027.134.04l.1.031.115.032.105.032a.36.36 0 0 0 .048.013 1 1 0 0 1 .108.028l.028.008.073.014.03.005h.025a.225.225 0 0 1 .221.235.239.239 0 0 1-.267.195h-.03c-.026 0-.055-.007-.088-.014l-.055-.01a.71.71 0 0 1-.1-.026l-.044-.012a.88.88 0 0 1-.117-.031l-.085-.026-.108-.031-.126-.038-.111-.033-.148-.043-.146-.044-.149-.043-.145-.039-.139-.036-.143-.038c-.042-.012-.078-.021-.111-.028s-.083-.021-.121-.033l-.073-.021-.08-.021a.77.77 0 0 1-.1-.034l-.051-.021c.017.008-.005.005-.041.002z" class="cls-3" transform="rotate(90 21.803 21.627)"/>
                    <path id="패스_1111" d="M22.056 21.512a.225.225 0 0 1-.252-.183.212.212 0 0 1 .206-.224c.039 0 .071-.005.1-.005h.058a.751.751 0 0 1 .1.007h.121l.1.008c.034 0 .074.01.121.019s.072.012.106.016.093.013.147.023.1.021.149.033l.133.031q.084.018.162.042l.157.05.147.049.136.047.129.046.119.044c.039.015.077.032.113.049l.093.042.1.046.065.031.07.034.058.033.024.014a.191.191 0 0 1 .067.283.248.248 0 0 1-.319.059l-.026-.015-.039-.022-.05-.025-.08-.039-.071-.033-.1-.046-.1-.026-.1-.038-.129-.046-.129-.045-.141-.047-.149-.047c-.039-.012-.079-.022-.123-.032l-.146-.034c-.039-.01-.079-.019-.121-.027s-.08-.014-.113-.018-.089-.012-.135-.021l-.088-.014-.066-.006c-.033 0-.064 0-.1-.008h-.157z" class="cls-3" transform="rotate(90 23.209 21.627)"/>
                    <path id="패스_1112" d="M24.169 7.557l.028.037c.013.011.013.011.067.128-.057.362-.057.362-.408.366a.307.307 0 0 1-.074-.048l-.029-.027-.095-.091a.316.316 0 0 1-.02-.436.292.292 0 0 1 .422-.021l.008.008a.3.3 0 0 1 .101.084z" class="cls-3" transform="rotate(90 23.912 7.736)"/>
                    <path id="패스_1113" d="M21.707 7.2l.028.037c.013.011.013.011.067.128-.057.362-.057.362-.408.366a.307.307 0 0 1-.074-.048l-.029-.027-.091-.086a.316.316 0 0 1-.02-.436.292.292 0 0 1 .422-.021l.008.008a.3.3 0 0 1 .097.079z" class="cls-3" transform="rotate(90 21.45 7.385)"/>
                </g>
            </g>
        </g>
    </g>
</svg>
